<svg width="1440" height="530" viewBox="0 0 1440 530" fill="none" xmlns="http://www.w3.org/2000/svg">
<mask id="mask0_4612_7049" style="mask-type:alpha" maskUnits="userSpaceOnUse" x="0" y="0" width="1440" height="530">
<rect width="1440" height="530" fill="url(#paint0_radial_4612_7049)"/>
</mask>
<g mask="url(#mask0_4612_7049)">
<g filter="url(#filter0_d_4612_7049)">
<rect x="80" y="20" width="142.5" height="128.5" rx="24" fill="white" fill-opacity="0.01" shape-rendering="crispEdges"/>
<path d="M121 53.2188C126.906 53.2188 131.781 58.0938 131.781 64C131.781 70 126.906 74.7812 121 74.7812C115 74.7812 110.219 70 110.219 64C110.219 58.0938 115 53.2188 121 53.2188ZM121 71.0312C124.844 71.0312 127.938 67.9375 127.938 64C127.938 60.1562 124.844 57.0625 121 57.0625C117.062 57.0625 113.969 60.1562 113.969 64C113.969 67.9375 117.156 71.0312 121 71.0312ZM134.688 52.8438C134.688 54.25 133.562 55.375 132.156 55.375C130.75 55.375 129.625 54.25 129.625 52.8438C129.625 51.4375 130.75 50.3125 132.156 50.3125C133.562 50.3125 134.688 51.4375 134.688 52.8438ZM141.812 55.375C142 58.8438 142 69.25 141.812 72.7188C141.625 76.0938 140.875 79 138.438 81.5312C136 83.9688 133 84.7188 129.625 84.9062C126.156 85.0938 115.75 85.0938 112.281 84.9062C108.906 84.7188 106 83.9688 103.469 81.5312C101.031 79 100.281 76.0938 100.094 72.7188C99.9062 69.25 99.9062 58.8438 100.094 55.375C100.281 52 101.031 49 103.469 46.5625C106 44.125 108.906 43.375 112.281 43.1875C115.75 43 126.156 43 129.625 43.1875C133 43.375 136 44.125 138.438 46.5625C140.875 49 141.625 52 141.812 55.375ZM137.312 76.375C138.438 73.6562 138.156 67.0938 138.156 64C138.156 61 138.438 54.4375 137.312 51.625C136.562 49.8438 135.156 48.3438 133.375 47.6875C130.562 46.5625 124 46.8438 121 46.8438C117.906 46.8438 111.344 46.5625 108.625 47.6875C106.75 48.4375 105.344 49.8438 104.594 51.625C103.469 54.4375 103.75 61 103.75 64C103.75 67.0938 103.469 73.6562 104.594 76.375C105.344 78.25 106.75 79.6562 108.625 80.4062C111.344 81.5312 117.906 81.25 121 81.25C124 81.25 130.562 81.5312 133.375 80.4062C135.156 79.6562 136.656 78.25 137.312 76.375Z" fill="white"/>
</g>
<g filter="url(#filter1_d_4612_7049)">
<rect x="242.5" y="20" width="142.5" height="128.5" rx="24" fill="white" fill-opacity="0.01" shape-rendering="crispEdges"/>
<path d="M299.156 49.75V60.0625H295.5V49.75H299.156ZM289.219 49.6562V59.9688H285.562V49.6562H289.219ZM273.75 40H308.156V64L291.844 79.4688H284.625L275.625 88V79.4688H264.75V48.625L273.75 40ZM304.594 62.3125V43.4688H275.625V69.1562H283.781V75.1562L290.062 69.1562H297.281L304.594 62.3125Z" fill="white"/>
</g>
<g filter="url(#filter2_d_4612_7049)">
<rect x="405" y="20" width="142.5" height="128.5" rx="24" fill="white" fill-opacity="0.01" shape-rendering="crispEdges"/>
<path d="M467 59.6875H466.906C462.594 59.6875 458.656 58.375 455.469 56.0312V72.8125C455.469 81.25 448.625 88 440.188 88C431.75 88 425 81.25 425 72.8125C425 64.375 431.75 57.5312 440.188 57.5312C440.938 57.5312 441.594 57.625 442.344 57.7188V66.1562C441.594 65.875 440.938 65.7812 440.188 65.7812C436.344 65.7812 433.156 68.9688 433.156 72.8125C433.156 76.6562 436.344 79.8438 440.188 79.8438C444.031 79.8438 447.219 76.6562 447.219 72.8125V40H455.469C455.469 40.0938 455.469 40.0938 455.469 40.1875C455.469 40.8438 455.469 41.5 455.656 42.1562C456.219 45.25 458.094 47.9688 460.719 49.6562C462.5 50.875 464.656 51.5312 466.906 51.5312C466.906 51.5312 466.906 51.5312 467 51.5312V59.6875Z" fill="white"/>
</g>
<g filter="url(#filter3_d_4612_7049)">
<rect x="567.5" y="20" width="142.5" height="128.5" rx="24" fill="white" fill-opacity="0.01" shape-rendering="crispEdges"/>
<path d="M638.969 51.7188C640.094 55.6562 640.094 64.0938 640.094 64.0938C640.094 64.0938 640.094 72.4375 638.969 76.4688C638.406 78.7188 636.625 80.4062 634.469 80.9688C630.438 82 614.5 82 614.5 82C614.5 82 598.469 82 594.438 80.9688C592.281 80.4062 590.5 78.7188 589.938 76.4688C588.812 72.4375 588.812 64.0938 588.812 64.0938C588.812 64.0938 588.812 55.6562 589.938 51.7188C590.5 49.4688 592.281 47.6875 594.438 47.125C598.469 46 614.5 46 614.5 46C614.5 46 630.438 46 634.469 47.125C636.625 47.6875 638.406 49.4688 638.969 51.7188ZM609.25 71.6875L622.562 64.0938L609.25 56.5V71.6875Z" fill="white"/>
</g>
<g filter="url(#filter4_d_4612_7049)">
<rect x="730" y="20" width="142.5" height="128.5" rx="24" fill="white" fill-opacity="0.01" shape-rendering="crispEdges"/>
<path d="M793.031 54.25C793.031 54.7188 793.031 55.0938 793.031 55.5625C793.031 68.5938 783.188 83.5 765.094 83.5C759.469 83.5 754.312 81.9062 750 79.0938C750.75 79.1875 751.5 79.2812 752.344 79.2812C756.938 79.2812 761.156 77.6875 764.531 75.0625C760.219 74.9688 756.562 72.1562 755.344 68.2188C756 68.3125 756.562 68.4062 757.219 68.4062C758.062 68.4062 759 68.2188 759.75 68.0312C755.25 67.0938 751.875 63.1562 751.875 58.375V58.2812C753.188 59.0312 754.781 59.4062 756.375 59.5C753.656 57.7188 751.969 54.7188 751.969 51.3438C751.969 49.4688 752.438 47.7812 753.281 46.375C758.156 52.2812 765.469 56.2188 773.625 56.6875C773.438 55.9375 773.344 55.1875 773.344 54.4375C773.344 49 777.75 44.5938 783.188 44.5938C786 44.5938 788.531 45.7188 790.406 47.6875C792.562 47.2188 794.719 46.375 796.594 45.25C795.844 47.5938 794.344 49.4688 792.281 50.6875C794.25 50.5 796.219 49.9375 797.906 49.1875C796.594 51.1562 794.906 52.8438 793.031 54.25Z" fill="white"/>
</g>
<g filter="url(#filter5_d_4612_7049)">
<rect x="892.5" y="20" width="142.5" height="128.5" rx="24" fill="white" fill-opacity="0.01" shape-rendering="crispEdges"/>
<path d="M938.656 67H931.625V88H922.25V67H914.562V58.375H922.25V51.7188C922.25 44.2188 926.75 40 933.594 40C936.875 40 940.344 40.6562 940.344 40.6562V48.0625H936.5C932.75 48.0625 931.625 50.3125 931.625 52.75V58.375H939.969L938.656 67Z" fill="white"/>
</g>
<g filter="url(#filter6_d_4612_7049)">
<rect x="1055" y="20" width="142.5" height="128.5" rx="24" fill="white" fill-opacity="0.01" shape-rendering="crispEdges"/>
<path d="M1098.25 40.75C1111.09 40.75 1121.5 51.1562 1121.5 64C1121.5 76.8438 1111.09 87.25 1098.25 87.25C1085.41 87.25 1075 76.8438 1075 64C1075 51.1562 1085.41 40.75 1098.25 40.75ZM1109.59 56.6875C1109.97 55.1875 1109.03 54.5312 1108 54.9062L1085.59 63.5312C1084.09 64.0938 1084.09 65.0312 1085.31 65.4062L1091.03 67.1875L1104.34 58.75C1105 58.375 1105.56 58.6562 1105.09 59.0312L1094.31 68.7812L1093.94 74.6875C1094.5 74.6875 1094.78 74.4062 1095.06 74.125L1097.88 71.4062L1103.69 75.7188C1104.81 76.2812 1105.56 76 1105.84 74.6875L1109.59 56.6875Z" fill="white"/>
</g>
<g filter="url(#filter7_d_4612_7049)">
<rect x="1217.5" y="20" width="142.5" height="128.5" rx="24" fill="white" fill-opacity="0.01" shape-rendering="crispEdges"/>
<path d="M1260.75 40.75C1273.5 40.75 1284 51.25 1284 64C1284 76.8438 1273.5 87.25 1260.75 87.25C1247.91 87.25 1237.5 76.8438 1237.5 64C1237.5 51.25 1247.91 40.75 1260.75 40.75ZM1270.12 74.9688C1270.88 74.9688 1271.53 74.4062 1271.53 73.5625C1271.53 72.7188 1271.25 72.3438 1270.69 71.9688C1263.94 68.0312 1256.16 67.8438 1248.47 69.5312C1247.72 69.7188 1247.16 70.1875 1247.16 71.125C1247.16 71.875 1247.72 72.625 1248.66 72.625C1248.94 72.625 1249.41 72.4375 1249.78 72.3438C1256.53 71.0312 1263.28 71.125 1269.19 74.6875C1269.47 74.875 1269.75 74.9688 1270.12 74.9688ZM1272.66 68.875C1273.69 68.875 1274.44 68.0312 1274.53 67C1274.53 66.25 1274.16 65.5938 1273.41 65.2188C1268.81 62.4062 1262.91 60.9062 1256.81 60.9062C1252.97 60.9062 1250.25 61.4688 1247.62 62.2188C1246.69 62.5 1246.22 63.1562 1246.22 64.0938C1246.22 65.125 1247.06 65.9688 1248 65.9688C1248.47 65.9688 1248.66 65.7812 1249.12 65.6875C1256.91 63.625 1265.62 65.0312 1271.53 68.5C1271.81 68.5938 1272.19 68.875 1272.66 68.875ZM1275.56 61.75C1276.69 61.75 1277.72 60.8125 1277.72 59.5C1277.72 58.375 1277.25 57.8125 1276.5 57.4375C1271.34 54.3438 1264.12 52.9375 1257.28 52.9375C1253.25 52.9375 1249.59 53.4062 1246.31 54.3438C1245.47 54.625 1244.62 55.2812 1244.62 56.5938C1244.62 57.8125 1245.56 58.8438 1246.78 58.8438C1247.25 58.8438 1247.72 58.6562 1248 58.5625C1255.78 56.4062 1267.69 57.3438 1274.34 61.375C1274.81 61.5625 1275.09 61.75 1275.56 61.75Z" fill="white"/>
</g>
<g filter="url(#filter8_d_4612_7049)">
<rect x="80" y="194.66" width="142.5" height="128.5" rx="24" fill="white" fill-opacity="0.01" shape-rendering="crispEdges"/>
<path d="M110.406 238.754L110.969 244.847L110.406 251.222C110.406 251.504 110.219 251.597 110.031 251.597C109.75 251.597 109.562 251.504 109.562 251.222L109.094 244.847L109.562 238.754C109.562 238.566 109.75 238.379 110.031 238.379C110.219 238.379 110.406 238.566 110.406 238.754ZM112.375 234.441C112.656 234.441 112.844 234.629 112.844 234.91L113.406 244.847L112.844 251.222C112.844 251.504 112.656 251.691 112.375 251.691C112.188 251.691 112 251.504 111.906 251.222L111.438 244.847L111.906 234.91C112 234.629 112.188 234.441 112.375 234.441ZM114.812 232.191C115.094 232.191 115.281 232.379 115.281 232.66L115.75 244.847L115.281 251.222C115.281 251.504 115.094 251.691 114.812 251.691C114.531 251.691 114.344 251.504 114.25 251.222L113.875 244.847L114.25 232.66C114.344 232.379 114.531 232.191 114.812 232.191ZM100.656 241.285C100.75 241.285 100.844 241.379 100.844 241.472L101.406 244.847L100.844 248.129C100.844 248.222 100.75 248.316 100.656 248.316C100.469 248.316 100.469 248.222 100.375 248.129L100 244.847L100.375 241.472C100.469 241.379 100.469 241.285 100.656 241.285ZM102.812 239.222C103 239.222 103.094 239.316 103.094 239.41L103.75 244.847L103.094 250.097C103.094 250.285 103 250.379 102.812 250.379C102.719 250.379 102.625 250.285 102.625 250.097L101.969 244.847L102.625 239.41C102.625 239.316 102.719 239.222 102.812 239.222ZM105.25 238.097C105.344 238.097 105.531 238.285 105.531 238.472L106.188 244.847L105.531 251.035C105.531 251.129 105.344 251.316 105.25 251.316C105.062 251.316 104.969 251.129 104.875 251.035L104.406 244.847L104.875 238.472C104.969 238.285 105.062 238.097 105.25 238.097ZM107.594 237.91C107.781 237.91 107.969 238.097 107.969 238.285L108.531 244.847L107.969 251.222C107.969 251.41 107.781 251.504 107.594 251.504C107.406 251.504 107.219 251.41 107.219 251.222L106.75 244.847L107.219 238.285C107.219 238.097 107.406 237.91 107.594 237.91ZM130.188 227.504C130.469 227.691 130.562 227.879 130.656 228.16L131.031 244.847L130.656 250.847C130.656 251.316 130.281 251.691 129.812 251.691C129.438 251.691 129.062 251.316 128.969 250.847L128.875 247.847L128.688 244.847L128.969 228.254V228.16C128.969 227.972 129.156 227.691 129.344 227.597C129.438 227.504 129.625 227.41 129.812 227.41C130 227.41 130.094 227.41 130.188 227.504ZM127.75 229.004C127.938 229.097 128.031 229.285 128.125 229.566L128.406 244.847L128.125 250.379L128.031 250.941C128.031 251.222 128.031 251.41 127.844 251.504C127.75 251.597 127.562 251.691 127.281 251.691C127.094 251.691 126.906 251.597 126.719 251.41C126.625 251.316 126.531 251.129 126.531 251.035V250.941C126.25 244.847 126.25 244.847 126.25 244.847L126.531 229.754V229.566C126.531 229.285 126.719 229.097 126.906 229.004C127 228.91 127.188 228.816 127.281 228.816C127.469 228.816 127.562 228.91 127.75 229.004ZM117.25 231.066C117.625 231.066 117.812 231.347 117.812 231.629L118.281 244.847L117.812 251.129C117.812 251.41 117.625 251.691 117.25 251.691C116.969 251.691 116.781 251.41 116.688 251.129L116.312 244.847L116.688 231.629C116.688 231.347 116.969 231.066 117.25 231.066ZM152.594 236.972C156.625 236.972 160 240.254 159.906 244.379C159.906 248.41 156.625 251.691 152.594 251.691H132.156C131.688 251.597 131.312 251.316 131.312 250.847V227.41C131.312 226.941 131.5 226.754 132.062 226.566C133.469 226.004 135.062 225.722 136.75 225.722C143.594 225.722 149.125 230.879 149.688 237.535C150.625 237.16 151.562 236.972 152.594 236.972ZM124.75 231.347C125.125 231.347 125.406 231.629 125.5 232.004L125.875 244.847L125.5 251.035C125.5 251.41 125.125 251.691 124.75 251.691C124.375 251.691 124.094 251.41 124 251.035L123.719 244.847L124 232.004C124.094 231.629 124.375 231.347 124.75 231.347ZM119.781 230.597C120.062 230.597 120.344 230.879 120.344 231.16L120.812 244.847L120.344 251.129C120.344 251.41 120.062 251.691 119.781 251.691C119.406 251.691 119.219 251.41 119.125 251.129L118.75 244.847L119.125 231.16C119.125 230.879 119.406 230.597 119.781 230.597ZM122.219 230.879C122.594 230.879 122.875 231.16 122.875 231.535L123.25 244.847L122.875 251.035C122.875 251.41 122.594 251.691 122.219 251.691C121.938 251.691 121.656 251.41 121.562 251.035L121.281 244.847L121.562 231.535C121.562 231.16 121.844 230.879 122.219 230.879Z" fill="white"/>
</g>
<g filter="url(#filter9_d_4612_7049)">
<rect x="242.5" y="194.66" width="142.5" height="128.5" rx="24" fill="white" fill-opacity="0.01" shape-rendering="crispEdges"/>
<path d="M300.281 217.66C302.531 217.66 304.5 219.629 304.5 221.879V255.535C304.5 257.785 302.531 259.66 300.281 259.66H266.625C264.375 259.66 262.5 257.785 262.5 255.535V221.879C262.5 219.629 264.375 217.66 266.625 217.66H300.281ZM297.844 231.629C297.938 227.691 296.531 225.629 293.344 225.629C289.219 225.441 286.312 227.785 284.812 232.754C286.688 231.91 289.5 231.722 289.125 234.816C289.031 235.847 288.375 237.347 287.062 239.41C283.594 244.941 282.656 243.066 280.781 230.785C280.219 227.316 278.719 225.722 276.375 226.004C274.312 226.191 270.938 229.566 267.469 232.66L268.875 234.441C270.281 233.504 271.031 233.035 271.312 233.035C273.281 233.035 274.219 238.191 276.656 246.91C277.875 250.191 279.375 251.785 281.156 251.785C283.969 251.785 287.531 249.16 291.656 243.816C295.594 238.66 297.656 234.629 297.844 231.629Z" fill="white"/>
</g>
<g filter="url(#filter10_d_4612_7049)">
<rect x="405" y="194.66" width="142.5" height="128.5" rx="24" fill="white" fill-opacity="0.01" shape-rendering="crispEdges"/>
<path d="M464 217.66C465.594 217.66 467 219.066 467 220.754V256.66C467 258.347 465.594 259.66 464 259.66H427.906C426.312 259.66 425 258.347 425 256.66V220.754C425 219.066 426.312 217.66 427.906 217.66H464ZM437.656 253.66V233.691H431.469V253.66H437.656ZM434.562 230.879C436.531 230.879 438.125 229.285 438.125 227.316C438.125 225.347 436.531 223.66 434.562 223.66C432.5 223.66 430.906 225.347 430.906 227.316C430.906 229.285 432.5 230.879 434.562 230.879ZM461 253.66V242.691C461 237.347 459.781 233.129 453.5 233.129C450.5 233.129 448.438 234.816 447.594 236.41H447.5V233.691H441.594V253.66H447.781V243.816C447.781 241.191 448.25 238.66 451.531 238.66C454.719 238.66 454.719 241.66 454.719 243.91V253.66H461Z" fill="white"/>
</g>
<g filter="url(#filter11_d_4612_7049)">
<rect x="567.5" y="194.66" width="142.5" height="128.5" rx="24" fill="white" fill-opacity="0.01" shape-rendering="crispEdges"/>
<path d="M634 238.66C634 251.504 623.594 261.91 610.75 261.91C608.312 261.91 605.969 261.629 603.812 260.879C604.75 259.379 606.156 256.847 606.719 254.785C607 253.754 608.125 249.254 608.125 249.254C608.875 250.754 611.125 251.972 613.469 251.972C620.5 251.972 625.562 245.504 625.562 237.535C625.562 229.847 619.281 224.035 611.219 224.035C601.188 224.035 595.844 230.785 595.844 238.097C595.844 241.566 597.625 245.785 600.531 247.191C601 247.379 601.281 247.285 601.375 246.816C601.375 246.535 601.844 244.941 602.031 244.191C602.031 244.004 602.031 243.722 601.844 243.535C600.906 242.41 600.156 240.254 600.156 238.191C600.156 233.129 604 228.16 610.656 228.16C616.281 228.16 620.312 232.004 620.312 237.629C620.312 243.91 617.125 248.222 613 248.222C610.75 248.222 609.062 246.347 609.531 244.097C610.188 241.285 611.5 238.285 611.5 236.316C611.5 234.535 610.562 233.035 608.594 233.035C606.25 233.035 604.375 235.472 604.375 238.66C604.375 240.722 605.031 242.129 605.031 242.129C605.031 242.129 602.781 251.879 602.312 253.66C601.844 255.722 602.031 258.535 602.219 260.316C593.594 256.941 587.5 248.597 587.5 238.66C587.5 225.816 597.906 215.41 610.75 215.41C623.594 215.41 634 225.816 634 238.66Z" fill="white"/>
</g>
<g filter="url(#filter12_d_4612_7049)">
<rect x="730" y="194.66" width="142.5" height="128.5" rx="24" fill="white" fill-opacity="0.01" shape-rendering="crispEdges"/>
<path d="M795.75 239.222C795.75 252.535 786.656 261.91 773.25 261.91C760.312 261.91 750 251.597 750 238.66C750 225.816 760.312 215.41 773.25 215.41C779.438 215.41 784.781 217.754 788.812 221.504L782.438 227.597C774.188 219.629 758.812 225.629 758.812 238.66C758.812 246.816 765.281 253.379 773.25 253.379C782.438 253.379 785.906 246.816 786.375 243.347H773.25V235.379H795.375C795.562 236.597 795.75 237.722 795.75 239.222Z" fill="white"/>
</g>
<g filter="url(#filter13_d_4612_7049)">
<rect x="892.5" y="194.66" width="142.5" height="128.5" rx="24" fill="white" fill-opacity="0.01" shape-rendering="crispEdges"/>
<path d="M934.25 236.972C938.281 238.097 940.25 241.191 940.25 245.316C940.25 252.066 934.625 254.972 928.531 254.972H912.5V221.785H928.156C933.781 221.785 938.75 223.379 938.75 230.035C938.75 233.316 937.156 235.472 934.25 236.972ZM919.719 227.41V235.191H927.125C929.75 235.191 931.625 234.066 931.625 231.254C931.625 228.16 929.281 227.41 926.656 227.41H919.719ZM927.594 249.347C930.5 249.347 932.938 248.316 932.938 244.941C932.938 241.566 930.969 240.16 927.688 240.16H919.719V249.347H927.594ZM961.156 226.754H947.75V223.472H961.156V226.754ZM966.5 243.347C966.5 243.722 966.406 244.191 966.406 244.566H949.062C949.062 248.41 951.125 250.66 954.969 250.66C956.938 250.66 959.562 249.629 960.219 247.566H966.031C964.25 253.004 960.5 255.629 954.781 255.629C947.188 255.629 942.406 250.472 942.406 242.972C942.406 235.754 947.375 230.222 954.781 230.222C962.281 230.222 966.5 236.222 966.5 243.347ZM949.062 240.347H959.844C959.562 237.16 957.875 235.285 954.5 235.285C951.406 235.285 949.25 237.254 949.062 240.347Z" fill="white"/>
</g>
<g filter="url(#filter14_d_4612_7049)">
<rect x="1055" y="194.66" width="142.5" height="128.5" rx="24" fill="white" fill-opacity="0.01" shape-rendering="crispEdges"/>
<path d="M1080.72 230.597L1090.28 256.66C1083.62 253.379 1079.03 246.629 1079.03 238.66C1079.03 235.847 1079.59 233.035 1080.72 230.597ZM1112.41 237.722C1112.41 239.41 1111.75 241.379 1110.91 244.097L1108.94 250.754L1101.72 229.379C1102.94 229.285 1103.97 229.191 1103.97 229.191C1105.09 229.004 1104.91 227.41 1103.88 227.504C1103.88 227.504 1100.59 227.785 1098.53 227.785C1096.56 227.785 1093.28 227.504 1093.28 227.504C1092.25 227.41 1092.06 229.097 1093.19 229.191C1093.19 229.191 1094.22 229.285 1095.25 229.379L1098.34 237.816L1094.03 250.941L1086.72 229.379C1087.94 229.285 1089.06 229.191 1089.06 229.191C1090.09 229.004 1090 227.41 1088.88 227.504C1088.88 227.504 1085.69 227.785 1083.53 227.785C1083.16 227.785 1082.78 227.785 1082.31 227.785C1085.88 222.347 1091.97 218.785 1099 218.785C1104.16 218.785 1108.84 220.754 1112.41 224.035C1112.31 223.941 1112.22 223.941 1112.12 223.941C1110.25 223.941 1108.84 225.722 1108.84 227.504C1108.84 229.191 1109.78 230.597 1110.81 232.191C1111.56 233.504 1112.41 235.191 1112.41 237.722ZM1099.28 240.441L1105.47 257.222C1105.47 257.316 1105.56 257.41 1105.56 257.504C1103.5 258.254 1101.25 258.629 1099 258.629C1097.03 258.629 1095.16 258.347 1093.28 257.879L1099.28 240.441ZM1116.44 229.097C1118.03 232.004 1118.88 235.191 1118.88 238.66C1118.88 246.066 1114.94 252.441 1108.94 255.91L1115.03 238.285C1116.25 235.472 1116.62 233.222 1116.62 231.16C1116.62 230.41 1116.53 229.754 1116.44 229.097ZM1122.25 238.66C1122.25 251.504 1111.75 261.91 1099 261.91C1086.16 261.91 1075.75 251.504 1075.75 238.66C1075.75 225.91 1086.16 215.41 1099 215.41C1111.75 215.41 1122.25 225.91 1122.25 238.66ZM1121.12 238.66C1121.12 226.472 1111.19 216.535 1099 216.535C1086.72 216.535 1076.78 226.472 1076.78 238.66C1076.78 250.941 1086.72 260.879 1099 260.879C1111.19 260.879 1121.12 250.941 1121.12 238.66Z" fill="white"/>
</g>
<g filter="url(#filter15_d_4612_7049)">
<rect x="1217.5" y="194.66" width="142.5" height="128.5" rx="24" fill="white" fill-opacity="0.01" shape-rendering="crispEdges"/>
<path d="M1261.5 215.41C1274.25 215.41 1284.75 225.91 1284.75 238.66C1284.75 251.504 1274.25 261.91 1261.5 261.91C1248.66 261.91 1238.25 251.504 1238.25 238.66C1238.25 225.91 1248.66 215.41 1261.5 215.41ZM1276.78 226.191C1276.41 226.754 1273.12 230.972 1265.72 233.972C1266.47 235.472 1266.94 236.597 1267.5 237.91C1274.06 237.066 1280.62 238.379 1281.28 238.566C1281.28 233.879 1279.59 229.566 1276.78 226.191ZM1274.62 223.847C1269.75 219.535 1263.09 217.941 1256.81 219.441C1257.38 220.191 1260.94 225.066 1264.22 231.066C1271.25 228.441 1274.25 224.41 1274.62 223.847ZM1252.97 220.754C1247.44 223.379 1243.31 228.535 1242 234.629C1242.94 234.722 1251.09 234.722 1260.38 232.285C1257.09 226.379 1253.53 221.504 1252.97 220.754ZM1241.62 238.754C1241.62 243.816 1243.5 248.504 1246.69 251.972C1249.88 246.535 1256.44 240.722 1263.66 238.66C1263.09 237.535 1262.62 236.41 1261.97 235.285C1252.12 238.285 1242.47 238.191 1241.62 238.097C1241.62 238.379 1241.62 238.566 1241.62 238.754ZM1249.22 254.41C1255.12 259.004 1262.81 259.754 1269.19 257.035C1268.91 255.254 1267.78 249.16 1264.97 241.941C1257 244.66 1251.38 250.191 1249.22 254.41ZM1272.56 255.16C1276.97 252.16 1280.16 247.379 1281.09 241.847C1280.34 241.66 1274.91 240.066 1268.72 241.004C1271.25 248.222 1272.38 254.035 1272.56 255.16Z" fill="white"/>
</g>
<g filter="url(#filter16_d_4612_7049)">
<rect x="80" y="369.33" width="142.5" height="128.5" rx="24" fill="white" fill-opacity="0.01" shape-rendering="crispEdges"/>
<path d="M128.969 434.424C127.75 435.736 124.281 437.33 119.875 437.33C108.531 437.33 106.094 429.08 106.094 424.205V410.705H101.594C101.125 410.705 100.656 410.236 100.656 409.768V403.393C100.656 402.736 101.125 402.08 101.781 401.893C107.594 399.83 109.375 394.768 109.656 390.924C109.75 389.893 110.312 389.33 111.156 389.33H117.812C118.375 389.33 118.75 389.799 118.75 390.268V401.143H126.531C127.094 401.143 127.469 401.518 127.469 402.08V409.674C127.469 410.236 127.094 410.611 126.531 410.611H118.75V423.08C118.75 426.361 120.906 428.143 125.125 426.455C125.5 426.268 125.969 426.174 126.25 426.268C126.625 426.361 126.812 426.549 127 427.018L129.062 433.018C129.25 433.486 129.344 434.049 128.969 434.424Z" fill="white"/>
</g>
<g filter="url(#filter17_d_4612_7049)">
<rect x="242.5" y="369.33" width="142.5" height="128.5" rx="24" fill="white" fill-opacity="0.01" shape-rendering="crispEdges"/>
<path d="M300 392.33C302.438 392.33 304.5 394.393 304.5 396.83V429.83C304.5 432.361 302.438 434.33 300 434.33H267C264.469 434.33 262.5 432.361 262.5 429.83V396.83C262.5 394.393 264.469 392.33 267 392.33H300ZM276 419.236C279.281 419.236 282 416.611 282 413.33C282 410.049 279.281 407.33 276 407.33C272.719 407.33 270.094 410.049 270.094 413.33C270.094 416.611 272.719 419.236 276 419.236ZM290.906 419.236C294.188 419.236 296.906 416.611 296.906 413.33C296.906 410.049 294.188 407.33 290.906 407.33C287.625 407.33 285 410.049 285 413.33C285 416.611 287.625 419.236 290.906 419.236Z" fill="white"/>
</g>
<g filter="url(#filter18_d_4612_7049)">
<rect x="405" y="369.33" width="142.5" height="128.5" rx="24" fill="white" fill-opacity="0.01" shape-rendering="crispEdges"/>
<path d="M449.75 400.299L437.375 408.174L449.75 416.049L437.375 424.018L425 416.049L437.375 408.08L425 400.299L437.375 392.33L449.75 400.299ZM437.281 426.455L449.656 418.58L462.031 426.455L449.656 434.33L437.281 426.455ZM449.75 416.049L462.125 408.08L449.75 400.299L462.031 392.33L474.5 400.299L462.031 408.174L474.5 416.049L462.031 424.018L449.75 416.049Z" fill="white"/>
</g>
<g filter="url(#filter19_d_4612_7049)">
<rect x="567.5" y="369.33" width="142.5" height="128.5" rx="24" fill="white" fill-opacity="0.01" shape-rendering="crispEdges"/>
<path d="M627.25 417.455C628.656 419.236 629.5 421.486 629.406 423.83C629.406 429.643 624.719 434.33 618.906 434.33C616.562 434.33 614.312 433.58 612.531 432.174C611.219 432.455 609.812 432.643 608.406 432.643C597.812 432.643 589.188 424.018 589.188 413.33C589.188 412.018 589.375 410.611 589.656 409.299C588.25 407.518 587.5 405.268 587.5 402.83C587.5 397.111 592.188 392.33 598 392.33C600.344 392.33 602.594 393.174 604.375 394.58C605.688 394.299 607.094 394.111 608.5 394.111C619.094 394.111 627.719 402.736 627.719 413.33C627.719 414.736 627.531 416.143 627.25 417.455ZM609.062 426.08C614.219 426.08 619.562 423.455 619.562 417.924C619.562 413.143 614.875 411.549 611.031 410.705C606.531 409.58 604.562 409.393 604.562 407.611C604.562 406.111 606.062 405.455 608.5 405.455C612.812 405.455 612.906 408.643 615.531 408.643C617.312 408.643 618.344 407.236 618.344 405.643C618.344 402.455 613.094 400.393 607.938 400.393C603.25 400.393 597.719 402.455 597.719 408.08C597.719 414.174 602.969 414.736 608.781 416.236C611.219 416.799 612.719 417.08 612.719 418.861C612.719 420.268 611.125 421.299 608.781 421.299C603.719 421.299 603.438 417.08 600.531 417.08C598.562 417.08 597.719 418.486 597.719 419.986C597.719 423.361 602.875 426.08 609.062 426.08Z" fill="white"/>
</g>
<g filter="url(#filter20_d_4612_7049)">
<rect x="730" y="369.33" width="142.5" height="128.5" rx="24" fill="white" fill-opacity="0.01" shape-rendering="crispEdges"/>
<path d="M786.75 392.33C789.656 392.424 792 394.768 791.906 397.58V429.08C791.906 431.986 789.656 434.33 786.75 434.33H755.25C752.344 434.33 750 431.986 750 429.08C750 397.205 749.906 397.58 750 397.58C750 394.768 752.344 392.33 755.25 392.33H786.75ZM768.469 424.205V400.393C768.469 398.986 767.344 397.861 765.938 397.861H758.156C756.75 397.861 755.625 398.986 755.625 400.393V424.205C755.625 425.611 756.75 426.643 758.156 426.643H765.938C767.25 426.643 768.375 425.518 768.469 424.205ZM786.562 413.705V400.393C786.562 398.986 785.438 397.861 784.031 397.861H776.438C775.031 397.861 773.906 398.986 773.906 400.393V413.705C773.906 415.111 775.031 416.236 776.438 416.236H784.031C785.438 416.236 786.562 415.111 786.562 413.705Z" fill="white"/>
</g>
<g filter="url(#filter21_d_4612_7049)">
<rect x="892.5" y="369.33" width="142.5" height="128.5" rx="24" fill="white" fill-opacity="0.01" shape-rendering="crispEdges"/>
<path d="M921.312 418.955C921.312 421.299 919.25 423.361 916.906 423.361C914.469 423.361 912.5 421.299 912.5 418.955C912.5 416.518 914.469 414.549 916.906 414.549H921.312V418.955ZM923.469 418.955C923.469 416.518 925.531 414.549 927.875 414.549C930.312 414.549 932.281 416.518 932.281 418.955V429.924C932.281 432.361 930.312 434.33 927.875 434.33C925.531 434.33 923.469 432.361 923.469 429.924V418.955ZM927.875 401.236C925.531 401.236 923.469 399.174 923.469 396.83C923.469 394.393 925.531 392.33 927.875 392.33C930.312 392.33 932.281 394.393 932.281 396.83V401.236H927.875ZM927.875 403.393C930.312 403.393 932.281 405.361 932.281 407.799C932.281 410.236 930.312 412.205 927.875 412.205H916.906C914.469 412.205 912.5 410.236 912.5 407.799C912.5 405.361 914.469 403.393 916.906 403.393H927.875ZM945.594 407.799C945.594 405.361 947.656 403.393 950 403.393C952.438 403.393 954.5 405.361 954.5 407.799C954.5 410.236 952.438 412.205 950 412.205H945.594V407.799ZM943.438 407.799C943.438 410.236 941.469 412.205 939.031 412.205C936.594 412.205 934.625 410.236 934.625 407.799V396.83C934.625 394.393 936.594 392.33 939.031 392.33C941.469 392.33 943.438 394.393 943.438 396.83V407.799ZM939.031 425.518C941.469 425.518 943.438 427.58 943.438 429.924C943.438 432.361 941.469 434.33 939.031 434.33C936.594 434.33 934.625 432.361 934.625 429.924V425.518H939.031ZM939.031 423.361C936.594 423.361 934.625 421.299 934.625 418.955C934.625 416.518 936.594 414.549 939.031 414.549H950C952.438 414.549 954.5 416.518 954.5 418.955C954.5 421.299 952.438 423.361 950 423.361H939.031Z" fill="white"/>
</g>
<g filter="url(#filter22_d_4612_7049)">
<rect x="1055" y="369.33" width="142.5" height="128.5" rx="24" fill="white" fill-opacity="0.01" shape-rendering="crispEdges"/>
<path d="M1093.84 418.018C1092.53 418.018 1091.5 416.986 1091.5 415.674C1091.5 414.455 1092.53 413.33 1093.84 413.33C1095.16 413.33 1096.19 414.455 1096.19 415.674C1096.19 416.986 1095.16 418.018 1093.84 418.018ZM1122.25 413.33C1122.25 426.174 1111.84 436.58 1099 436.58C1086.16 436.58 1075.75 426.174 1075.75 413.33C1075.75 400.486 1086.16 390.08 1099 390.08C1111.84 390.08 1122.25 400.486 1122.25 413.33ZM1109.78 409.486C1108.94 409.486 1108.19 409.861 1107.53 410.424C1105.47 409.018 1102.66 408.08 1099.47 407.986L1101.16 400.58L1106.31 401.799C1106.31 403.018 1107.34 404.049 1108.66 404.049C1109.97 404.049 1111 403.018 1111 401.799C1111 400.486 1109.97 399.455 1108.66 399.455C1107.72 399.455 1106.97 399.924 1106.59 400.674L1100.78 399.455C1100.5 399.361 1100.22 399.549 1100.22 399.83L1098.34 407.986C1095.25 408.08 1092.44 409.018 1090.38 410.424C1089.81 409.861 1088.97 409.486 1088.12 409.486C1084.84 409.486 1083.81 413.893 1086.72 415.393C1086.62 415.861 1086.62 416.33 1086.62 416.893C1086.62 421.768 1092.16 425.799 1099 425.799C1105.84 425.799 1111.38 421.768 1111.38 416.893C1111.38 416.33 1111.28 415.861 1111.19 415.393C1114.09 413.893 1113.06 409.486 1109.78 409.486ZM1103.31 420.361C1103.59 420.174 1103.88 420.174 1104.16 420.361C1104.34 420.643 1104.34 421.018 1104.16 421.205C1102 423.361 1095.91 423.361 1093.75 421.205C1093.56 421.018 1093.56 420.643 1093.75 420.361C1094.03 420.174 1094.41 420.174 1094.59 420.361C1096.19 422.049 1101.62 422.143 1103.31 420.361ZM1104.06 413.33C1105.38 413.33 1106.41 414.455 1106.41 415.674C1106.41 416.986 1105.38 418.018 1104.06 418.018C1102.84 418.018 1101.72 416.986 1101.72 415.674C1101.72 414.455 1102.75 413.33 1104.06 413.33Z" fill="white"/>
</g>
<g filter="url(#filter23_d_4612_7049)">
<rect x="1217.5" y="369.33" width="142.5" height="128.5" rx="24" fill="white" fill-opacity="0.01" shape-rendering="crispEdges"/>
<path d="M1273.12 398.518C1277.06 402.455 1279.5 407.611 1279.5 413.236C1279.5 424.674 1269.94 434.049 1258.41 434.049C1254.94 434.049 1251.56 433.111 1248.47 431.518L1237.5 434.33L1240.41 423.549C1238.62 420.455 1237.59 416.893 1237.59 413.143C1237.59 401.705 1246.97 392.33 1258.41 392.33C1264.03 392.33 1269.28 394.58 1273.12 398.518ZM1258.41 430.486C1267.97 430.486 1275.94 422.705 1275.94 413.236C1275.94 408.549 1273.97 404.236 1270.69 400.955C1267.41 397.674 1263.09 395.893 1258.5 395.893C1248.94 395.893 1241.16 403.674 1241.16 413.143C1241.16 416.424 1242.09 419.611 1243.78 422.424L1244.25 423.08L1242.47 429.455L1249.03 427.674L1249.59 428.049C1252.31 429.643 1255.31 430.486 1258.41 430.486ZM1267.97 417.549C1268.44 417.83 1268.81 417.924 1268.91 418.205C1269.09 418.393 1269.09 419.424 1268.62 420.643C1268.16 421.861 1266.09 422.986 1265.16 423.08C1263.47 423.361 1262.16 423.268 1258.88 421.768C1253.62 419.518 1250.25 414.268 1249.97 413.986C1249.69 413.611 1247.91 411.174 1247.91 408.549C1247.91 406.018 1249.22 404.799 1249.69 404.236C1250.16 403.674 1250.72 403.58 1251.09 403.58C1251.38 403.58 1251.75 403.58 1252.03 403.58C1252.41 403.58 1252.78 403.486 1253.25 404.518C1253.62 405.549 1254.75 408.08 1254.84 408.361C1254.94 408.643 1255.03 408.924 1254.84 409.299C1253.91 411.268 1252.78 411.174 1253.34 412.111C1255.41 415.58 1257.38 416.799 1260.47 418.299C1260.94 418.58 1261.22 418.486 1261.59 418.205C1261.88 417.83 1262.91 416.611 1263.19 416.143C1263.56 415.58 1263.94 415.674 1264.41 415.861C1264.88 416.049 1267.41 417.268 1267.97 417.549Z" fill="white"/>
</g>
</g>
<rect width="1440" height="530" fill="url(#paint1_radial_4612_7049)"/>
<defs>
<filter id="filter0_d_4612_7049" x="79" y="19" width="144.5" height="130.5" filterUnits="userSpaceOnUse" color-interpolation-filters="sRGB">
<feFlood flood-opacity="0" result="BackgroundImageFix"/>
<feColorMatrix in="SourceAlpha" type="matrix" values="0 0 0 0 0 0 0 0 0 0 0 0 0 0 0 0 0 0 127 0" result="hardAlpha"/>
<feMorphology radius="1" operator="dilate" in="SourceAlpha" result="effect1_dropShadow_4612_7049"/>
<feOffset/>
<feComposite in2="hardAlpha" operator="out"/>
<feColorMatrix type="matrix" values="0 0 0 0 1 0 0 0 0 1 0 0 0 0 1 0 0 0 0.1 0"/>
<feBlend mode="normal" in2="BackgroundImageFix" result="effect1_dropShadow_4612_7049"/>
<feBlend mode="normal" in="SourceGraphic" in2="effect1_dropShadow_4612_7049" result="shape"/>
</filter>
<filter id="filter1_d_4612_7049" x="241.5" y="19" width="144.5" height="130.5" filterUnits="userSpaceOnUse" color-interpolation-filters="sRGB">
<feFlood flood-opacity="0" result="BackgroundImageFix"/>
<feColorMatrix in="SourceAlpha" type="matrix" values="0 0 0 0 0 0 0 0 0 0 0 0 0 0 0 0 0 0 127 0" result="hardAlpha"/>
<feMorphology radius="1" operator="dilate" in="SourceAlpha" result="effect1_dropShadow_4612_7049"/>
<feOffset/>
<feComposite in2="hardAlpha" operator="out"/>
<feColorMatrix type="matrix" values="0 0 0 0 1 0 0 0 0 1 0 0 0 0 1 0 0 0 0.1 0"/>
<feBlend mode="normal" in2="BackgroundImageFix" result="effect1_dropShadow_4612_7049"/>
<feBlend mode="normal" in="SourceGraphic" in2="effect1_dropShadow_4612_7049" result="shape"/>
</filter>
<filter id="filter2_d_4612_7049" x="404" y="19" width="144.5" height="130.5" filterUnits="userSpaceOnUse" color-interpolation-filters="sRGB">
<feFlood flood-opacity="0" result="BackgroundImageFix"/>
<feColorMatrix in="SourceAlpha" type="matrix" values="0 0 0 0 0 0 0 0 0 0 0 0 0 0 0 0 0 0 127 0" result="hardAlpha"/>
<feMorphology radius="1" operator="dilate" in="SourceAlpha" result="effect1_dropShadow_4612_7049"/>
<feOffset/>
<feComposite in2="hardAlpha" operator="out"/>
<feColorMatrix type="matrix" values="0 0 0 0 1 0 0 0 0 1 0 0 0 0 1 0 0 0 0.1 0"/>
<feBlend mode="normal" in2="BackgroundImageFix" result="effect1_dropShadow_4612_7049"/>
<feBlend mode="normal" in="SourceGraphic" in2="effect1_dropShadow_4612_7049" result="shape"/>
</filter>
<filter id="filter3_d_4612_7049" x="566.5" y="19" width="144.5" height="130.5" filterUnits="userSpaceOnUse" color-interpolation-filters="sRGB">
<feFlood flood-opacity="0" result="BackgroundImageFix"/>
<feColorMatrix in="SourceAlpha" type="matrix" values="0 0 0 0 0 0 0 0 0 0 0 0 0 0 0 0 0 0 127 0" result="hardAlpha"/>
<feMorphology radius="1" operator="dilate" in="SourceAlpha" result="effect1_dropShadow_4612_7049"/>
<feOffset/>
<feComposite in2="hardAlpha" operator="out"/>
<feColorMatrix type="matrix" values="0 0 0 0 1 0 0 0 0 1 0 0 0 0 1 0 0 0 0.1 0"/>
<feBlend mode="normal" in2="BackgroundImageFix" result="effect1_dropShadow_4612_7049"/>
<feBlend mode="normal" in="SourceGraphic" in2="effect1_dropShadow_4612_7049" result="shape"/>
</filter>
<filter id="filter4_d_4612_7049" x="729" y="19" width="144.5" height="130.5" filterUnits="userSpaceOnUse" color-interpolation-filters="sRGB">
<feFlood flood-opacity="0" result="BackgroundImageFix"/>
<feColorMatrix in="SourceAlpha" type="matrix" values="0 0 0 0 0 0 0 0 0 0 0 0 0 0 0 0 0 0 127 0" result="hardAlpha"/>
<feMorphology radius="1" operator="dilate" in="SourceAlpha" result="effect1_dropShadow_4612_7049"/>
<feOffset/>
<feComposite in2="hardAlpha" operator="out"/>
<feColorMatrix type="matrix" values="0 0 0 0 1 0 0 0 0 1 0 0 0 0 1 0 0 0 0.1 0"/>
<feBlend mode="normal" in2="BackgroundImageFix" result="effect1_dropShadow_4612_7049"/>
<feBlend mode="normal" in="SourceGraphic" in2="effect1_dropShadow_4612_7049" result="shape"/>
</filter>
<filter id="filter5_d_4612_7049" x="891.5" y="19" width="144.5" height="130.5" filterUnits="userSpaceOnUse" color-interpolation-filters="sRGB">
<feFlood flood-opacity="0" result="BackgroundImageFix"/>
<feColorMatrix in="SourceAlpha" type="matrix" values="0 0 0 0 0 0 0 0 0 0 0 0 0 0 0 0 0 0 127 0" result="hardAlpha"/>
<feMorphology radius="1" operator="dilate" in="SourceAlpha" result="effect1_dropShadow_4612_7049"/>
<feOffset/>
<feComposite in2="hardAlpha" operator="out"/>
<feColorMatrix type="matrix" values="0 0 0 0 1 0 0 0 0 1 0 0 0 0 1 0 0 0 0.1 0"/>
<feBlend mode="normal" in2="BackgroundImageFix" result="effect1_dropShadow_4612_7049"/>
<feBlend mode="normal" in="SourceGraphic" in2="effect1_dropShadow_4612_7049" result="shape"/>
</filter>
<filter id="filter6_d_4612_7049" x="1054" y="19" width="144.5" height="130.5" filterUnits="userSpaceOnUse" color-interpolation-filters="sRGB">
<feFlood flood-opacity="0" result="BackgroundImageFix"/>
<feColorMatrix in="SourceAlpha" type="matrix" values="0 0 0 0 0 0 0 0 0 0 0 0 0 0 0 0 0 0 127 0" result="hardAlpha"/>
<feMorphology radius="1" operator="dilate" in="SourceAlpha" result="effect1_dropShadow_4612_7049"/>
<feOffset/>
<feComposite in2="hardAlpha" operator="out"/>
<feColorMatrix type="matrix" values="0 0 0 0 1 0 0 0 0 1 0 0 0 0 1 0 0 0 0.1 0"/>
<feBlend mode="normal" in2="BackgroundImageFix" result="effect1_dropShadow_4612_7049"/>
<feBlend mode="normal" in="SourceGraphic" in2="effect1_dropShadow_4612_7049" result="shape"/>
</filter>
<filter id="filter7_d_4612_7049" x="1216.5" y="19" width="144.5" height="130.5" filterUnits="userSpaceOnUse" color-interpolation-filters="sRGB">
<feFlood flood-opacity="0" result="BackgroundImageFix"/>
<feColorMatrix in="SourceAlpha" type="matrix" values="0 0 0 0 0 0 0 0 0 0 0 0 0 0 0 0 0 0 127 0" result="hardAlpha"/>
<feMorphology radius="1" operator="dilate" in="SourceAlpha" result="effect1_dropShadow_4612_7049"/>
<feOffset/>
<feComposite in2="hardAlpha" operator="out"/>
<feColorMatrix type="matrix" values="0 0 0 0 1 0 0 0 0 1 0 0 0 0 1 0 0 0 0.1 0"/>
<feBlend mode="normal" in2="BackgroundImageFix" result="effect1_dropShadow_4612_7049"/>
<feBlend mode="normal" in="SourceGraphic" in2="effect1_dropShadow_4612_7049" result="shape"/>
</filter>
<filter id="filter8_d_4612_7049" x="79" y="193.66" width="144.5" height="130.5" filterUnits="userSpaceOnUse" color-interpolation-filters="sRGB">
<feFlood flood-opacity="0" result="BackgroundImageFix"/>
<feColorMatrix in="SourceAlpha" type="matrix" values="0 0 0 0 0 0 0 0 0 0 0 0 0 0 0 0 0 0 127 0" result="hardAlpha"/>
<feMorphology radius="1" operator="dilate" in="SourceAlpha" result="effect1_dropShadow_4612_7049"/>
<feOffset/>
<feComposite in2="hardAlpha" operator="out"/>
<feColorMatrix type="matrix" values="0 0 0 0 1 0 0 0 0 1 0 0 0 0 1 0 0 0 0.1 0"/>
<feBlend mode="normal" in2="BackgroundImageFix" result="effect1_dropShadow_4612_7049"/>
<feBlend mode="normal" in="SourceGraphic" in2="effect1_dropShadow_4612_7049" result="shape"/>
</filter>
<filter id="filter9_d_4612_7049" x="241.5" y="193.66" width="144.5" height="130.5" filterUnits="userSpaceOnUse" color-interpolation-filters="sRGB">
<feFlood flood-opacity="0" result="BackgroundImageFix"/>
<feColorMatrix in="SourceAlpha" type="matrix" values="0 0 0 0 0 0 0 0 0 0 0 0 0 0 0 0 0 0 127 0" result="hardAlpha"/>
<feMorphology radius="1" operator="dilate" in="SourceAlpha" result="effect1_dropShadow_4612_7049"/>
<feOffset/>
<feComposite in2="hardAlpha" operator="out"/>
<feColorMatrix type="matrix" values="0 0 0 0 1 0 0 0 0 1 0 0 0 0 1 0 0 0 0.1 0"/>
<feBlend mode="normal" in2="BackgroundImageFix" result="effect1_dropShadow_4612_7049"/>
<feBlend mode="normal" in="SourceGraphic" in2="effect1_dropShadow_4612_7049" result="shape"/>
</filter>
<filter id="filter10_d_4612_7049" x="404" y="193.66" width="144.5" height="130.5" filterUnits="userSpaceOnUse" color-interpolation-filters="sRGB">
<feFlood flood-opacity="0" result="BackgroundImageFix"/>
<feColorMatrix in="SourceAlpha" type="matrix" values="0 0 0 0 0 0 0 0 0 0 0 0 0 0 0 0 0 0 127 0" result="hardAlpha"/>
<feMorphology radius="1" operator="dilate" in="SourceAlpha" result="effect1_dropShadow_4612_7049"/>
<feOffset/>
<feComposite in2="hardAlpha" operator="out"/>
<feColorMatrix type="matrix" values="0 0 0 0 1 0 0 0 0 1 0 0 0 0 1 0 0 0 0.1 0"/>
<feBlend mode="normal" in2="BackgroundImageFix" result="effect1_dropShadow_4612_7049"/>
<feBlend mode="normal" in="SourceGraphic" in2="effect1_dropShadow_4612_7049" result="shape"/>
</filter>
<filter id="filter11_d_4612_7049" x="566.5" y="193.66" width="144.5" height="130.5" filterUnits="userSpaceOnUse" color-interpolation-filters="sRGB">
<feFlood flood-opacity="0" result="BackgroundImageFix"/>
<feColorMatrix in="SourceAlpha" type="matrix" values="0 0 0 0 0 0 0 0 0 0 0 0 0 0 0 0 0 0 127 0" result="hardAlpha"/>
<feMorphology radius="1" operator="dilate" in="SourceAlpha" result="effect1_dropShadow_4612_7049"/>
<feOffset/>
<feComposite in2="hardAlpha" operator="out"/>
<feColorMatrix type="matrix" values="0 0 0 0 1 0 0 0 0 1 0 0 0 0 1 0 0 0 0.1 0"/>
<feBlend mode="normal" in2="BackgroundImageFix" result="effect1_dropShadow_4612_7049"/>
<feBlend mode="normal" in="SourceGraphic" in2="effect1_dropShadow_4612_7049" result="shape"/>
</filter>
<filter id="filter12_d_4612_7049" x="729" y="193.66" width="144.5" height="130.5" filterUnits="userSpaceOnUse" color-interpolation-filters="sRGB">
<feFlood flood-opacity="0" result="BackgroundImageFix"/>
<feColorMatrix in="SourceAlpha" type="matrix" values="0 0 0 0 0 0 0 0 0 0 0 0 0 0 0 0 0 0 127 0" result="hardAlpha"/>
<feMorphology radius="1" operator="dilate" in="SourceAlpha" result="effect1_dropShadow_4612_7049"/>
<feOffset/>
<feComposite in2="hardAlpha" operator="out"/>
<feColorMatrix type="matrix" values="0 0 0 0 1 0 0 0 0 1 0 0 0 0 1 0 0 0 0.1 0"/>
<feBlend mode="normal" in2="BackgroundImageFix" result="effect1_dropShadow_4612_7049"/>
<feBlend mode="normal" in="SourceGraphic" in2="effect1_dropShadow_4612_7049" result="shape"/>
</filter>
<filter id="filter13_d_4612_7049" x="891.5" y="193.66" width="144.5" height="130.5" filterUnits="userSpaceOnUse" color-interpolation-filters="sRGB">
<feFlood flood-opacity="0" result="BackgroundImageFix"/>
<feColorMatrix in="SourceAlpha" type="matrix" values="0 0 0 0 0 0 0 0 0 0 0 0 0 0 0 0 0 0 127 0" result="hardAlpha"/>
<feMorphology radius="1" operator="dilate" in="SourceAlpha" result="effect1_dropShadow_4612_7049"/>
<feOffset/>
<feComposite in2="hardAlpha" operator="out"/>
<feColorMatrix type="matrix" values="0 0 0 0 1 0 0 0 0 1 0 0 0 0 1 0 0 0 0.1 0"/>
<feBlend mode="normal" in2="BackgroundImageFix" result="effect1_dropShadow_4612_7049"/>
<feBlend mode="normal" in="SourceGraphic" in2="effect1_dropShadow_4612_7049" result="shape"/>
</filter>
<filter id="filter14_d_4612_7049" x="1054" y="193.66" width="144.5" height="130.5" filterUnits="userSpaceOnUse" color-interpolation-filters="sRGB">
<feFlood flood-opacity="0" result="BackgroundImageFix"/>
<feColorMatrix in="SourceAlpha" type="matrix" values="0 0 0 0 0 0 0 0 0 0 0 0 0 0 0 0 0 0 127 0" result="hardAlpha"/>
<feMorphology radius="1" operator="dilate" in="SourceAlpha" result="effect1_dropShadow_4612_7049"/>
<feOffset/>
<feComposite in2="hardAlpha" operator="out"/>
<feColorMatrix type="matrix" values="0 0 0 0 1 0 0 0 0 1 0 0 0 0 1 0 0 0 0.1 0"/>
<feBlend mode="normal" in2="BackgroundImageFix" result="effect1_dropShadow_4612_7049"/>
<feBlend mode="normal" in="SourceGraphic" in2="effect1_dropShadow_4612_7049" result="shape"/>
</filter>
<filter id="filter15_d_4612_7049" x="1216.5" y="193.66" width="144.5" height="130.5" filterUnits="userSpaceOnUse" color-interpolation-filters="sRGB">
<feFlood flood-opacity="0" result="BackgroundImageFix"/>
<feColorMatrix in="SourceAlpha" type="matrix" values="0 0 0 0 0 0 0 0 0 0 0 0 0 0 0 0 0 0 127 0" result="hardAlpha"/>
<feMorphology radius="1" operator="dilate" in="SourceAlpha" result="effect1_dropShadow_4612_7049"/>
<feOffset/>
<feComposite in2="hardAlpha" operator="out"/>
<feColorMatrix type="matrix" values="0 0 0 0 1 0 0 0 0 1 0 0 0 0 1 0 0 0 0.1 0"/>
<feBlend mode="normal" in2="BackgroundImageFix" result="effect1_dropShadow_4612_7049"/>
<feBlend mode="normal" in="SourceGraphic" in2="effect1_dropShadow_4612_7049" result="shape"/>
</filter>
<filter id="filter16_d_4612_7049" x="79" y="368.33" width="144.5" height="130.5" filterUnits="userSpaceOnUse" color-interpolation-filters="sRGB">
<feFlood flood-opacity="0" result="BackgroundImageFix"/>
<feColorMatrix in="SourceAlpha" type="matrix" values="0 0 0 0 0 0 0 0 0 0 0 0 0 0 0 0 0 0 127 0" result="hardAlpha"/>
<feMorphology radius="1" operator="dilate" in="SourceAlpha" result="effect1_dropShadow_4612_7049"/>
<feOffset/>
<feComposite in2="hardAlpha" operator="out"/>
<feColorMatrix type="matrix" values="0 0 0 0 1 0 0 0 0 1 0 0 0 0 1 0 0 0 0.1 0"/>
<feBlend mode="normal" in2="BackgroundImageFix" result="effect1_dropShadow_4612_7049"/>
<feBlend mode="normal" in="SourceGraphic" in2="effect1_dropShadow_4612_7049" result="shape"/>
</filter>
<filter id="filter17_d_4612_7049" x="241.5" y="368.33" width="144.5" height="130.5" filterUnits="userSpaceOnUse" color-interpolation-filters="sRGB">
<feFlood flood-opacity="0" result="BackgroundImageFix"/>
<feColorMatrix in="SourceAlpha" type="matrix" values="0 0 0 0 0 0 0 0 0 0 0 0 0 0 0 0 0 0 127 0" result="hardAlpha"/>
<feMorphology radius="1" operator="dilate" in="SourceAlpha" result="effect1_dropShadow_4612_7049"/>
<feOffset/>
<feComposite in2="hardAlpha" operator="out"/>
<feColorMatrix type="matrix" values="0 0 0 0 1 0 0 0 0 1 0 0 0 0 1 0 0 0 0.1 0"/>
<feBlend mode="normal" in2="BackgroundImageFix" result="effect1_dropShadow_4612_7049"/>
<feBlend mode="normal" in="SourceGraphic" in2="effect1_dropShadow_4612_7049" result="shape"/>
</filter>
<filter id="filter18_d_4612_7049" x="404" y="368.33" width="144.5" height="130.5" filterUnits="userSpaceOnUse" color-interpolation-filters="sRGB">
<feFlood flood-opacity="0" result="BackgroundImageFix"/>
<feColorMatrix in="SourceAlpha" type="matrix" values="0 0 0 0 0 0 0 0 0 0 0 0 0 0 0 0 0 0 127 0" result="hardAlpha"/>
<feMorphology radius="1" operator="dilate" in="SourceAlpha" result="effect1_dropShadow_4612_7049"/>
<feOffset/>
<feComposite in2="hardAlpha" operator="out"/>
<feColorMatrix type="matrix" values="0 0 0 0 1 0 0 0 0 1 0 0 0 0 1 0 0 0 0.1 0"/>
<feBlend mode="normal" in2="BackgroundImageFix" result="effect1_dropShadow_4612_7049"/>
<feBlend mode="normal" in="SourceGraphic" in2="effect1_dropShadow_4612_7049" result="shape"/>
</filter>
<filter id="filter19_d_4612_7049" x="566.5" y="368.33" width="144.5" height="130.5" filterUnits="userSpaceOnUse" color-interpolation-filters="sRGB">
<feFlood flood-opacity="0" result="BackgroundImageFix"/>
<feColorMatrix in="SourceAlpha" type="matrix" values="0 0 0 0 0 0 0 0 0 0 0 0 0 0 0 0 0 0 127 0" result="hardAlpha"/>
<feMorphology radius="1" operator="dilate" in="SourceAlpha" result="effect1_dropShadow_4612_7049"/>
<feOffset/>
<feComposite in2="hardAlpha" operator="out"/>
<feColorMatrix type="matrix" values="0 0 0 0 1 0 0 0 0 1 0 0 0 0 1 0 0 0 0.1 0"/>
<feBlend mode="normal" in2="BackgroundImageFix" result="effect1_dropShadow_4612_7049"/>
<feBlend mode="normal" in="SourceGraphic" in2="effect1_dropShadow_4612_7049" result="shape"/>
</filter>
<filter id="filter20_d_4612_7049" x="729" y="368.33" width="144.5" height="130.5" filterUnits="userSpaceOnUse" color-interpolation-filters="sRGB">
<feFlood flood-opacity="0" result="BackgroundImageFix"/>
<feColorMatrix in="SourceAlpha" type="matrix" values="0 0 0 0 0 0 0 0 0 0 0 0 0 0 0 0 0 0 127 0" result="hardAlpha"/>
<feMorphology radius="1" operator="dilate" in="SourceAlpha" result="effect1_dropShadow_4612_7049"/>
<feOffset/>
<feComposite in2="hardAlpha" operator="out"/>
<feColorMatrix type="matrix" values="0 0 0 0 1 0 0 0 0 1 0 0 0 0 1 0 0 0 0.1 0"/>
<feBlend mode="normal" in2="BackgroundImageFix" result="effect1_dropShadow_4612_7049"/>
<feBlend mode="normal" in="SourceGraphic" in2="effect1_dropShadow_4612_7049" result="shape"/>
</filter>
<filter id="filter21_d_4612_7049" x="891.5" y="368.33" width="144.5" height="130.5" filterUnits="userSpaceOnUse" color-interpolation-filters="sRGB">
<feFlood flood-opacity="0" result="BackgroundImageFix"/>
<feColorMatrix in="SourceAlpha" type="matrix" values="0 0 0 0 0 0 0 0 0 0 0 0 0 0 0 0 0 0 127 0" result="hardAlpha"/>
<feMorphology radius="1" operator="dilate" in="SourceAlpha" result="effect1_dropShadow_4612_7049"/>
<feOffset/>
<feComposite in2="hardAlpha" operator="out"/>
<feColorMatrix type="matrix" values="0 0 0 0 1 0 0 0 0 1 0 0 0 0 1 0 0 0 0.1 0"/>
<feBlend mode="normal" in2="BackgroundImageFix" result="effect1_dropShadow_4612_7049"/>
<feBlend mode="normal" in="SourceGraphic" in2="effect1_dropShadow_4612_7049" result="shape"/>
</filter>
<filter id="filter22_d_4612_7049" x="1054" y="368.33" width="144.5" height="130.5" filterUnits="userSpaceOnUse" color-interpolation-filters="sRGB">
<feFlood flood-opacity="0" result="BackgroundImageFix"/>
<feColorMatrix in="SourceAlpha" type="matrix" values="0 0 0 0 0 0 0 0 0 0 0 0 0 0 0 0 0 0 127 0" result="hardAlpha"/>
<feMorphology radius="1" operator="dilate" in="SourceAlpha" result="effect1_dropShadow_4612_7049"/>
<feOffset/>
<feComposite in2="hardAlpha" operator="out"/>
<feColorMatrix type="matrix" values="0 0 0 0 1 0 0 0 0 1 0 0 0 0 1 0 0 0 0.1 0"/>
<feBlend mode="normal" in2="BackgroundImageFix" result="effect1_dropShadow_4612_7049"/>
<feBlend mode="normal" in="SourceGraphic" in2="effect1_dropShadow_4612_7049" result="shape"/>
</filter>
<filter id="filter23_d_4612_7049" x="1216.5" y="368.33" width="144.5" height="130.5" filterUnits="userSpaceOnUse" color-interpolation-filters="sRGB">
<feFlood flood-opacity="0" result="BackgroundImageFix"/>
<feColorMatrix in="SourceAlpha" type="matrix" values="0 0 0 0 0 0 0 0 0 0 0 0 0 0 0 0 0 0 127 0" result="hardAlpha"/>
<feMorphology radius="1" operator="dilate" in="SourceAlpha" result="effect1_dropShadow_4612_7049"/>
<feOffset/>
<feComposite in2="hardAlpha" operator="out"/>
<feColorMatrix type="matrix" values="0 0 0 0 1 0 0 0 0 1 0 0 0 0 1 0 0 0 0.1 0"/>
<feBlend mode="normal" in2="BackgroundImageFix" result="effect1_dropShadow_4612_7049"/>
<feBlend mode="normal" in="SourceGraphic" in2="effect1_dropShadow_4612_7049" result="shape"/>
</filter>
<radialGradient id="paint0_radial_4612_7049" cx="0" cy="0" r="1" gradientUnits="userSpaceOnUse" gradientTransform="translate(720 265) scale(720 371)">
<stop stop-color="white"/>
<stop offset="1" stop-opacity="0"/>
</radialGradient>
<radialGradient id="paint1_radial_4612_7049" cx="0" cy="0" r="1" gradientUnits="userSpaceOnUse" gradientTransform="translate(720 265) scale(769.665 749.857)">
<stop offset="0.2" stop-color="#020617"/>
<stop offset="0.45" stop-color="white" stop-opacity="0"/>
</radialGradient>
</defs>
</svg>
