<svg width="44" height="44" viewBox="0 0 44 44" fill="none" xmlns="http://www.w3.org/2000/svg">
<path d="M9.69727 24.848V14.5939C9.69773 13.9141 9.96811 13.2623 10.449 12.7817C10.9298 12.3012 11.5818 12.0312 12.2616 12.0312H14.8243" stroke="white" stroke-width="2.75" stroke-linecap="round" stroke-linejoin="round"/>
<path d="M9.69727 19.7209H13.5421" stroke="white" stroke-width="2.75" stroke-linecap="round" stroke-linejoin="round"/>
<path d="M18.9218 24.8479V14.5939C18.9128 14.2517 18.9726 13.9111 19.0974 13.5924C19.2224 13.2736 19.4097 12.983 19.6486 12.7378C19.8875 12.4927 20.1732 12.2978 20.4886 12.1647C20.804 12.0317 21.1429 11.9631 21.4853 11.9631C21.8277 11.9631 22.1664 12.0317 22.482 12.1647C22.7974 12.2978 23.083 12.4927 23.3219 12.7378C23.5608 12.983 23.7482 13.2736 23.8731 13.5924C23.9979 13.9111 24.0577 14.2517 24.0488 14.5939V24.8479" stroke="white" stroke-width="2.75" stroke-linecap="round" stroke-linejoin="round"/>
<path d="M18.9219 19.7209H24.0489" stroke="white" stroke-width="2.75" stroke-linecap="round" stroke-linejoin="round"/>
<path d="M34.3032 22.2835C34.312 22.6257 34.2523 22.9664 34.1274 23.2851C34.0026 23.6039 33.8151 23.8945 33.5762 24.1396C33.3373 24.3849 33.0518 24.5796 32.7362 24.7128C32.4208 24.8459 32.0819 24.9143 31.7397 24.9143C31.3973 24.9143 31.0584 24.8459 30.743 24.7128C30.4276 24.5796 30.1419 24.3849 29.903 24.1396C29.6641 23.8945 29.4766 23.6039 29.3518 23.2851C29.227 22.9664 29.1672 22.6257 29.1762 22.2835V14.5939C29.1672 14.2517 29.227 13.9111 29.3518 13.5924C29.4766 13.2736 29.6641 12.983 29.903 12.7378C30.1419 12.4927 30.4276 12.2978 30.743 12.1647C31.0584 12.0317 31.3973 11.9631 31.7397 11.9631C32.0819 11.9631 32.4208 12.0317 32.7362 12.1647C33.0518 12.2978 33.3373 12.4927 33.5762 12.7378C33.8151 12.983 34.0026 13.2736 34.1274 13.5924C34.2523 13.9111 34.312 14.2517 34.3032 14.5939V22.2835Z" stroke="white" stroke-width="2.75" stroke-linecap="round" stroke-linejoin="round"/>
<path d="M31.7383 24.848L34.3027 27.4107" stroke="white" stroke-width="2.75" stroke-linecap="round" stroke-linejoin="round"/>
<path d="M39.5312 5.79382H4.46875C3.98949 5.79565 3.53047 5.98732 3.19222 6.32684C2.85398 6.66638 2.66406 7.12613 2.66406 7.60539V30.9598C2.66406 31.439 2.85398 31.8987 3.19222 32.2384C3.53047 32.5778 3.98949 32.7695 4.46875 32.7714H8.66766C8.28986 34.7371 7.47581 36.5932 6.28547 38.2026C11.5277 38.2782 14.8448 36.2501 16.8352 32.7714H39.5312C40.0116 32.7714 40.4724 32.5804 40.8122 32.2408C41.152 31.901 41.3428 31.4402 41.3428 30.9598V7.60539C41.3428 7.12494 41.152 6.66416 40.8122 6.32442C40.4724 5.98469 40.0116 5.79382 39.5312 5.79382Z" stroke="white" stroke-width="2.75" stroke-linecap="round" stroke-linejoin="round"/>
</svg>
