<svg width="48" height="48" viewBox="0 0 48 48" fill="none" xmlns="http://www.w3.org/2000/svg">
<path fill-rule="evenodd" clip-rule="evenodd" d="M22 26C22.894 26 23.774 26.048 24.632 26.14C25.1595 26.196 25.6432 26.4592 25.9766 26.8718C26.3101 27.2843 26.466 27.8125 26.41 28.34C26.354 28.8675 26.0908 29.3512 25.6782 29.6846C25.2657 30.0181 24.7375 30.174 24.21 30.118C23.49 30.04 22.75 30 22 30C17.954 30 14.314 31.18 11.728 32.758C10.434 33.546 9.458 34.402 8.828 35.202C8.18 36.022 8 36.642 8 37C8 37.244 8.074 37.502 8.51 37.852C9.008 38.252 9.874 38.666 11.198 39.016C13.834 39.716 17.622 40 22 40L23.316 39.99C23.8464 39.9828 24.358 40.1867 24.7381 40.5567C25.1183 40.9267 25.3358 41.4326 25.343 41.963C25.3502 42.4934 25.1463 43.005 24.7763 43.3851C24.4063 43.7653 23.9004 43.9828 23.37 43.99L22 44C17.542 44 13.33 43.72 10.174 42.884C8.604 42.468 7.126 41.872 6.006 40.972C4.82 40.02 4 38.69 4 37C4 35.426 4.716 33.954 5.688 32.722C6.676 31.472 8.042 30.322 9.644 29.342C12.85 27.39 17.21 26 22 26ZM37 26C38.2694 25.9998 39.4914 26.4825 40.4181 27.3501C41.3448 28.2177 41.9067 29.4053 41.99 30.672L42 31V32.17C43.076 32.55 43.87 33.526 43.986 34.702L44 35V41C44 41.7458 43.7222 42.4648 43.2208 43.0168C42.7194 43.5689 42.0303 43.9144 41.288 43.986L41 44H33C32.2542 44 31.5352 43.7222 30.9832 43.2208C30.4311 42.7194 30.0856 42.0303 30.014 41.288L30 41V35C29.9999 34.4278 30.1635 33.8675 30.4715 33.3852C30.7794 32.9029 31.2189 32.5187 31.738 32.278L32 32.17V31C32 29.6739 32.5268 28.4021 33.4645 27.4645C34.4021 26.5268 35.6739 26 37 26ZM40 36H34V40H40V36ZM37 30C36.7348 30 36.4804 30.1054 36.2929 30.2929C36.1054 30.4804 36 30.7348 36 31V32H38V31C38 30.7348 37.8946 30.4804 37.7071 30.2929C37.5196 30.1054 37.2652 30 37 30ZM22 4C24.6522 4 27.1957 5.05357 29.0711 6.92893C30.9464 8.8043 32 11.3478 32 14C32 16.6522 30.9464 19.1957 29.0711 21.0711C27.1957 22.9464 24.6522 24 22 24C19.3478 24 16.8043 22.9464 14.9289 21.0711C13.0536 19.1957 12 16.6522 12 14C12 11.3478 13.0536 8.8043 14.9289 6.92893C16.8043 5.05357 19.3478 4 22 4ZM22 8C21.2121 8 20.4319 8.15519 19.7039 8.45672C18.9759 8.75825 18.3145 9.20021 17.7574 9.75736C17.2002 10.3145 16.7582 10.9759 16.4567 11.7039C16.1552 12.4319 16 13.2121 16 14C16 14.7879 16.1552 15.5681 16.4567 16.2961C16.7582 17.0241 17.2002 17.6855 17.7574 18.2426C18.3145 18.7998 18.9759 19.2417 19.7039 19.5433C20.4319 19.8448 21.2121 20 22 20C23.5913 20 25.1174 19.3679 26.2426 18.2426C27.3679 17.1174 28 15.5913 28 14C28 12.4087 27.3679 10.8826 26.2426 9.75736C25.1174 8.63214 23.5913 8 22 8Z" fill="#161616"/>
</svg>
