<svg width="48" height="48" viewBox="0 0 48 48" fill="none" xmlns="http://www.w3.org/2000/svg">
<path d="M13.5161 33.3833C9.54887 30.2712 7 25.4333 7 20C7 10.6112 14.6112 3 24 3C33.3888 3 41 10.6112 41 20C41 25.4333 38.4511 30.2712 34.4839 33.3833C34.1623 34.6828 33.7991 35.9295 33.5125 36.8625C33.2059 37.8607 32.3768 38.5863 31.3383 38.6947C29.9447 38.8402 27.5956 39 24 39C20.4044 39 18.0553 38.8402 16.6617 38.6947C15.6232 38.5863 14.7941 37.8607 14.4875 36.8625C14.2009 35.9295 13.8377 34.6828 13.5161 33.3833Z" stroke="#161616" stroke-width="3" stroke-linecap="round" stroke-linejoin="round"/>
<path d="M16.4883 38.6703C16.6909 39.9803 16.9021 41.1725 17.0788 42.1141C17.3275 43.4389 18.2698 44.503 19.6026 44.7046C20.6486 44.8629 22.1019 44.9997 23.9999 44.9997C25.8048 44.9997 27.288 44.876 28.4172 44.7277C30.0015 44.5198 31.1113 43.2021 31.2834 41.6135L31.6042 38.6523" stroke="#161616" stroke-width="3" stroke-linecap="round" stroke-linejoin="round"/>
<path d="M34 19C34 13.4772 29.5228 9 24 9" stroke="#161616" stroke-width="3" stroke-linecap="round" stroke-linejoin="round"/>
</svg>
