<svg width="48" height="48" viewBox="0 0 48 48" fill="none" xmlns="http://www.w3.org/2000/svg">
<path d="M11.6251 20.6954C11.8282 20.6954 12.0548 20.7267 12.3048 20.7892C12.5548 20.8517 12.8048 20.9376 13.0548 21.047C13.3048 21.1564 13.5548 21.2579 13.8048 21.3517C14.0548 21.4454 14.2814 21.5392 14.4845 21.6329L14.1095 21.6798C13.9845 21.6954 13.8517 21.7032 13.7111 21.7032C13.4454 21.7032 13.2032 21.6642 12.9845 21.5861C12.7657 21.5079 12.5626 21.4064 12.3751 21.2814C12.1876 21.1564 12.0001 21.0626 11.8126 21.0001C11.6251 20.9376 11.4532 20.8907 11.297 20.8595C11.1407 20.8595 11.0001 20.8907 10.8751 20.9532C10.7501 21.0157 10.6251 21.0861 10.5001 21.1642C10.5001 21.1017 10.4454 21.0704 10.3361 21.0704C10.4454 20.9611 10.6486 20.8751 10.9454 20.8126C11.2423 20.7501 11.4689 20.7111 11.6251 20.6954ZM14.7892 21.7501C15.4298 21.7501 16.0157 21.8595 16.547 22.0782C16.3282 22.1564 16.1095 22.2189 15.8907 22.2657C15.672 22.3126 15.4454 22.3439 15.2111 22.3595C14.8986 22.3595 14.6173 22.3282 14.3673 22.2657C14.4454 22.1407 14.5236 22.0626 14.6017 22.0314C14.6798 22.0001 14.7423 21.9064 14.7892 21.7501ZM24.0001 0.00011268C26.2032 0.00011268 28.3204 0.289175 30.3517 0.8673C32.3829 1.44543 34.2892 2.25011 36.0704 3.28136C37.8517 4.31261 39.4767 5.57043 40.9454 7.0548C42.4142 8.53918 43.6642 10.1564 44.6954 11.9064C45.7267 13.6564 46.5392 15.5626 47.1329 17.6251C47.7267 19.6876 48.0157 21.8126 48.0001 24.0001C48.0001 26.2032 47.711 28.3204 47.1329 30.3517C46.5548 32.3829 45.7501 34.2892 44.7189 36.0704C43.6876 37.8517 42.4298 39.4767 40.9454 40.9454C39.4611 42.4142 37.8439 43.6642 36.0939 44.6954C34.3439 45.7267 32.4376 46.5392 30.3751 47.1329C28.3126 47.7267 26.1876 48.0157 24.0001 48.0001C21.797 48.0001 19.6798 47.711 17.6486 47.1329C15.6173 46.5548 13.7111 45.7501 11.9298 44.7189C10.1486 43.6876 8.52355 42.4298 7.0548 40.9454C5.58605 39.4611 4.33605 37.8439 3.3048 36.0939C2.27355 34.3439 1.46105 32.4376 0.8673 30.3751C0.27355 28.3126 -0.0155123 26.1876 0.00011268 24.0001C0.00011268 21.797 0.289175 19.6798 0.8673 17.6486C1.44543 15.6173 2.25011 13.7111 3.28136 11.9298C4.31261 10.1486 5.57043 8.52355 7.0548 7.0548C8.53918 5.58605 10.1564 4.33605 11.9064 3.3048C13.6564 2.27355 15.5626 1.46105 17.6251 0.8673C19.6876 0.27355 21.8126 -0.0155123 24.0001 0.00011268ZM41.8595 13.0079C41.6407 12.6642 41.422 12.3361 41.2032 12.0236C40.9845 11.7111 40.7579 11.3907 40.5236 11.0626C40.4923 11.2032 40.4532 11.3048 40.4064 11.3673C40.3595 11.4298 40.3282 11.5704 40.3126 11.7892C40.3126 11.9298 40.3673 12.0626 40.4767 12.1876C40.586 12.3126 40.7267 12.4376 40.8986 12.5626C41.0704 12.6876 41.2423 12.7814 41.4142 12.8439C41.5861 12.9064 41.7345 12.9611 41.8595 13.0079ZM40.2423 10.7111C40.2423 10.8361 40.2189 10.922 40.172 10.9689H40.3126C40.3751 10.9689 40.422 10.9767 40.4532 10.9923L40.2423 10.7111ZM24.0001 45.0001C25.7814 45.0001 27.5236 44.7736 29.2267 44.3204C30.9298 43.8673 32.5392 43.2267 34.0548 42.3986C35.5704 41.5704 36.9767 40.5548 38.2736 39.3517C39.5704 38.1486 40.7032 36.8048 41.672 35.3204C41.4689 34.8517 41.2736 34.3751 41.0861 33.8907C40.8986 33.4064 40.8048 32.9064 40.8048 32.3907C40.8048 31.8282 40.8282 31.3751 40.8751 31.0314C40.922 30.6876 40.9767 30.3829 41.0392 30.1173C41.1017 29.8517 41.1329 29.6251 41.1329 29.4376C41.1329 29.2501 41.1095 29.0079 41.0626 28.7111C41.0157 28.4142 40.8829 28.0939 40.6642 27.7501C40.4454 27.4064 40.1564 26.922 39.797 26.297C39.8126 26.1876 39.836 26.0392 39.8673 25.8517C39.8986 25.6642 39.9298 25.4689 39.9611 25.2657C39.9923 25.0626 40.0001 24.8751 39.9845 24.7032C39.9689 24.5314 39.9298 24.3829 39.8673 24.2579C39.461 24.2111 39.0392 24.1251 38.6017 24.0001C38.1642 23.8751 37.7736 23.6876 37.4298 23.4376L37.5704 23.3204C37.3673 23.3673 37.1642 23.4298 36.9611 23.5079C36.7579 23.5861 36.5626 23.672 36.3751 23.7657C36.1876 23.8595 35.9845 23.922 35.7657 23.9532C35.547 23.9845 35.3361 24.0157 35.1329 24.047L34.7579 24.0001L34.8282 23.8361C34.6095 23.8986 34.3751 23.9767 34.1251 24.0704C33.8751 24.1642 33.6329 24.2111 33.3986 24.2111C33.2423 24.2111 33.0157 24.1564 32.7189 24.047C32.422 23.9376 32.1251 23.8048 31.8282 23.6486C31.5314 23.4923 31.2657 23.3204 31.0314 23.1329C30.797 22.9454 30.6798 22.7657 30.6798 22.5939L30.7267 22.5236C30.6486 22.4298 30.547 22.3439 30.422 22.2657C30.297 22.1876 30.1798 22.1095 30.0704 22.0314C29.9611 21.9532 29.8595 21.8673 29.7657 21.7736C29.672 21.6798 29.6329 21.5704 29.6486 21.4454L29.9064 21.2345L29.3673 21.1642L29.1798 20.4611C29.2111 20.5392 29.2814 20.5704 29.3907 20.5548C29.5001 20.5392 29.5861 20.5079 29.6486 20.4611L28.8048 20.0157L29.3907 18.5157C29.172 17.7032 29.1173 17.0782 29.2267 16.6407C29.3361 16.2032 29.547 15.8439 29.8595 15.5626C30.172 15.2814 30.5157 15.0001 30.8907 14.7189C31.2657 14.4376 31.6486 14.0548 32.0392 13.5704L31.9689 13.2892L33.5157 11.4142L33.8673 11.3673C34.3048 11.3673 34.797 11.3517 35.3439 11.3204C35.8907 11.2892 36.4454 11.2345 37.0079 11.1564C37.5704 11.0782 38.1251 11.0001 38.672 10.922C39.2189 10.8439 39.7189 10.7423 40.172 10.6173C39.672 10.0236 39.1486 9.46105 38.6017 8.9298C38.0548 8.39855 37.4689 7.89074 36.8439 7.40636C36.672 7.46886 36.4611 7.5548 36.2111 7.66418C35.961 7.77355 35.7111 7.91418 35.4611 8.08605C35.211 8.25793 35.0157 8.44543 34.8751 8.64855C34.7345 8.85168 34.6486 9.06261 34.6173 9.28136L34.7579 9.72668C34.4767 10.1798 34.1642 10.4611 33.8204 10.5704C33.4767 10.6798 33.1251 10.7423 32.7657 10.7579C32.4064 10.7736 32.0314 10.7736 31.6407 10.7579C31.2501 10.7423 30.8751 10.8126 30.5157 10.9689L30.1407 10.172L30.4923 8.81261L30.0939 8.22668L34.1486 6.96105C33.9767 6.52355 33.6954 6.19543 33.3048 5.97668C32.9142 5.75793 32.4845 5.64855 32.0157 5.64855V5.41418L33.3282 5.20324C31.8751 4.48449 30.3673 3.93761 28.8048 3.56261C27.2423 3.18761 25.6407 3.00011 24.0001 3.00011C22.6407 3.00011 21.297 3.13293 19.9689 3.39855C18.6407 3.66418 17.3595 4.04699 16.1251 4.54699C14.8907 5.04699 13.6954 5.67199 12.5392 6.42199C11.3829 7.17199 10.3282 8.01574 9.37511 8.95324C9.78136 8.95324 10.0939 9.0548 10.3126 9.25793C10.5314 9.46105 10.7345 9.68761 10.922 9.93761C11.1095 10.1876 11.3048 10.4142 11.5079 10.6173C11.7111 10.8204 11.9845 10.9298 12.3282 10.9454L12.7032 10.6642L12.6564 10.1486L13.4298 9.04699L12.8204 7.31261C12.8986 7.26574 13.0157 7.18761 13.172 7.07824C13.3282 6.96886 13.4611 6.91418 13.5704 6.91418C14.0392 6.91418 14.3986 6.93761 14.6486 6.98449C14.8986 7.03136 15.1173 7.1173 15.3048 7.2423C15.4923 7.3673 15.6564 7.54699 15.797 7.78136C15.9376 8.01574 16.1564 8.31261 16.4532 8.67199L17.297 8.01574C17.4532 8.07824 17.7032 8.1798 18.047 8.32043C18.3907 8.46105 18.7423 8.63293 19.1017 8.83605C19.4611 9.03918 19.7657 9.25011 20.0157 9.46886C20.2657 9.68761 20.3986 9.89074 20.4142 10.0782C20.4142 10.3126 20.3282 10.5001 20.1564 10.6407C19.9845 10.7814 19.7579 10.8986 19.4767 10.9923C19.1954 11.0861 18.9064 11.1564 18.6095 11.2032C18.3126 11.2501 18.0157 11.3126 17.7189 11.3907C17.422 11.4689 17.1954 11.547 17.0392 11.6251C16.8829 11.7032 16.7892 11.8361 16.7579 12.0236L18.1173 12.4689C17.8048 12.7345 17.4689 12.9767 17.1095 13.1954C16.7501 13.4142 16.3751 13.6173 15.9845 13.8048L16.0782 14.2032L13.922 15.047V15.7032L13.7579 15.7736L13.8751 14.9532L13.7814 14.9298C13.672 14.9298 13.6095 14.9532 13.5939 15.0001C13.5782 15.047 13.5704 15.1017 13.5704 15.1642C13.5704 15.2267 13.5861 15.2892 13.6173 15.3517C13.6486 15.4142 13.6564 15.4611 13.6407 15.4923L13.3361 15.3282L13.3829 15.422C13.3829 15.4689 13.4064 15.5392 13.4532 15.6329C13.5001 15.7267 13.5626 15.8126 13.6407 15.8907C13.7189 15.9689 13.7814 16.047 13.8282 16.1251C13.8751 16.2032 13.9064 16.2423 13.922 16.2423C13.922 16.2892 13.8907 16.3361 13.8282 16.3829C13.7657 16.4298 13.6876 16.4611 13.5939 16.4767C13.5001 16.4923 13.4376 16.5157 13.4064 16.547C13.3751 16.5782 13.3751 16.5861 13.4064 16.5704C13.6251 16.5704 13.672 16.5861 13.547 16.6173C13.422 16.6486 13.2267 16.7267 12.9611 16.8517C12.6954 16.9767 12.4532 17.1564 12.2345 17.3907C12.0157 17.6251 11.8907 17.9689 11.8595 18.422C11.8595 18.6876 11.8673 18.9454 11.8829 19.1954C11.8986 19.4454 11.8907 19.7032 11.8595 19.9689C11.6407 19.3751 11.3126 18.922 10.8751 18.6095C10.4376 18.297 9.90636 18.1407 9.28136 18.1407L8.27355 18.2345L8.76574 18.5626C8.50011 18.5314 8.22668 18.5001 7.94543 18.4689C7.66418 18.4376 7.37511 18.4298 7.07824 18.4454C6.78136 18.4611 6.51574 18.5236 6.28136 18.6329C6.04699 18.7423 5.81261 18.9064 5.57824 19.1251L5.43761 20.1798C5.43761 20.6798 5.54699 21.0861 5.76574 21.3986C5.98449 21.7111 6.3673 21.8751 6.91418 21.8907C7.38293 21.8907 7.84386 21.8204 8.29699 21.6798C8.75011 21.5392 9.19543 21.3751 9.63293 21.1876C9.4923 21.5314 9.33605 21.8595 9.16418 22.172C8.9923 22.4845 8.8673 22.8282 8.78918 23.2032L9.09386 23.3439C9.46886 23.0939 9.81261 23.0548 10.1251 23.2267C10.4376 23.3986 10.7423 23.6486 11.0392 23.9767C11.3361 24.3048 11.6407 24.6407 11.9532 24.9845C12.2657 25.3282 12.6017 25.5782 12.9611 25.7345L12.1642 26.1564L10.2892 25.1017C10.3048 25.1329 10.3204 25.2032 10.3361 25.3126C10.3517 25.422 10.3439 25.4454 10.3126 25.3829L9.46886 23.9532C8.96886 23.9376 8.43761 23.8595 7.87511 23.7189C7.31261 23.5782 6.7423 23.3907 6.16418 23.1564C5.58605 22.922 5.04699 22.6642 4.54699 22.3829C4.04699 22.1017 3.58605 21.8048 3.16418 21.4923L3.00011 24.0001C3.00011 25.9064 3.25793 27.7657 3.77355 29.5782C4.28918 31.3907 5.01574 33.0939 5.95324 34.6876C6.89074 36.2814 8.03918 37.7345 9.39855 39.047C10.7579 40.3595 12.2657 41.4767 13.922 42.3986C13.8439 42.0704 13.8361 41.7423 13.8986 41.4142C13.9611 41.0861 14.0392 40.7579 14.1329 40.4298C14.2267 40.1017 14.3282 39.7736 14.4376 39.4454C14.547 39.1173 14.6017 38.7814 14.6017 38.4376C14.6017 37.9376 14.5236 37.4142 14.3673 36.8673C14.2111 36.3204 14.0236 35.7657 13.8048 35.2032C13.5861 34.6407 13.3439 34.0861 13.0782 33.5392C12.8126 32.9923 12.6017 32.4767 12.4454 31.9923C12.2892 31.5079 12.1642 31.0548 12.0704 30.6329C11.9767 30.2111 12.0236 29.8439 12.2111 29.5314L11.8595 29.3673C11.9532 29.1486 12.0782 28.9376 12.2345 28.7345C12.3907 28.5314 12.5548 28.3282 12.7267 28.1251C12.8986 27.922 13.0314 27.7032 13.1251 27.4689C13.2189 27.2345 13.2736 27.0001 13.2892 26.7657C13.2892 26.6095 13.2579 26.4454 13.1954 26.2736C13.1329 26.1017 13.0782 25.9376 13.0314 25.7814L13.5236 25.8986C13.7892 25.2892 14.1486 24.8751 14.6017 24.6564C15.0548 24.4376 15.6251 24.3204 16.3126 24.3048C16.3907 24.3048 16.5548 24.3361 16.8048 24.3986C17.0548 24.4611 17.3204 24.547 17.6017 24.6564C17.8829 24.7657 18.1486 24.8517 18.3986 24.9142C18.6486 24.9767 18.8361 25.0392 18.9611 25.1017C18.9611 25.2111 19.0236 25.2814 19.1486 25.3126C19.2736 25.3439 19.3439 25.3986 19.3595 25.4767L19.3126 25.6642C19.3595 25.6798 19.4689 25.7345 19.6407 25.8282C19.8126 25.922 20.0001 26.0392 20.2032 26.1798C20.4064 26.3204 20.5861 26.4454 20.7423 26.5548C20.8986 26.6642 21.0079 26.7501 21.0704 26.8126C21.3517 26.8126 21.7345 26.9064 22.2189 27.0939C22.7032 27.2814 23.2345 27.5157 23.8126 27.797C24.3907 28.0782 24.9611 28.4142 25.5236 28.8048C26.0861 29.1954 26.6173 29.5861 27.1173 29.9767C27.6173 30.3673 28.0001 30.7579 28.2657 31.1486C28.5314 31.5392 28.6876 31.8829 28.7345 32.1798L27.9376 33.0236C28.0001 33.8204 27.9454 34.4298 27.7736 34.8517C27.6017 35.2736 27.3361 35.6251 26.9767 35.9064C26.6173 36.1876 26.2032 36.422 25.7345 36.6095C25.2657 36.797 24.7579 37.0626 24.2111 37.4064C24.2111 37.7189 24.1329 38.0548 23.9767 38.4142C23.8204 38.7735 23.6251 39.1173 23.3907 39.4454C23.1564 39.7736 22.8751 40.047 22.547 40.2657C22.2189 40.4845 21.8907 40.5939 21.5626 40.5939L20.5782 39.8439C20.6095 39.8751 20.6095 39.9298 20.5782 40.0079C20.547 40.086 20.5079 40.1017 20.4611 40.0548C20.6173 40.3517 20.6564 40.6954 20.5782 41.0861C20.5001 41.4767 20.3673 41.8751 20.1798 42.2814C19.9923 42.6876 19.7814 43.0704 19.547 43.4298C19.3126 43.7892 19.1017 44.0939 18.9142 44.3439C19.7579 44.5626 20.6017 44.7267 21.4454 44.8361C22.2892 44.9454 23.1407 45.0001 24.0001 45.0001Z" fill="white"/>
</svg>
