<svg width="75" height="25" viewBox="0 0 75 25" fill="none" xmlns="http://www.w3.org/2000/svg">
<path fill-rule="evenodd" clip-rule="evenodd" d="M66.5959 0.954402C46.641 0.907923 26.6859 0.892399 6.73091 0.907923C3.06074 1.55686 0.876221 3.72585 0.177362 7.41499C0.115359 11.0094 0.115359 14.6037 0.177362 18.1981C0.789305 21.986 2.97382 24.217 6.73091 24.8911C27.4303 24.921 48.129 24.89 68.8269 24.7982C72.3834 23.9215 74.382 21.6595 74.8227 18.0122C74.8847 14.4489 74.8847 10.8854 74.8227 7.32203C74.2262 4.07928 72.3516 2.00325 69.1988 1.09384C68.3319 1.04122 67.4643 0.994745 66.5959 0.954402ZM63.4408 13.0854C63.409 13.1633 63.3471 13.1943 63.2549 13.1783C63.1775 11.0561 63.1311 8.91804 63.1155 6.7642L62.8831 6.53181C62.4803 6.4698 62.0774 6.4698 61.6746 6.53181L61.4422 6.7642C61.3802 10.2966 61.3802 13.829 61.4422 17.3614L61.6746 17.5938C62.1084 17.6558 62.5422 17.6558 62.976 17.5938L63.1155 17.4544C63.1312 16.8324 63.1776 16.2126 63.2549 15.5952C63.5604 15.2612 63.8858 14.9514 64.2309 14.6656C64.3027 14.6791 64.3647 14.7101 64.4169 14.7586C64.9844 15.7286 65.5886 16.6736 66.2295 17.5938C66.6943 17.6558 67.1591 17.6558 67.6239 17.5938C67.9339 17.3448 67.9804 17.0505 67.7634 16.7107C67.0119 15.5488 66.2837 14.3713 65.5788 13.1783C66.1662 12.5444 66.7705 11.9247 67.3915 11.3191C67.6701 10.9995 67.6856 10.6741 67.438 10.3431C66.9732 10.2811 66.5084 10.2811 66.0436 10.3431C65.1884 11.2756 64.3208 12.1897 63.4408 13.0854ZM24.3053 11.7838C23.3133 11.9064 22.9415 11.4726 23.1898 10.4824C23.5582 10.3377 23.9455 10.2448 24.3518 10.2035C24.3689 9.49898 24.4154 8.8018 24.4912 8.11195C24.945 7.9674 25.4098 7.93645 25.8856 8.019C25.9941 8.06547 26.0715 8.14291 26.118 8.25139L26.2109 10.2035C26.7174 10.2636 27.2286 10.3255 27.7447 10.3894C27.8476 10.787 27.863 11.1898 27.7912 11.5979L27.6518 11.7373C27.157 11.7837 26.6612 11.7992 26.1645 11.7838C26.1489 13.0236 26.1645 14.2631 26.2109 15.5021C26.293 15.744 26.4325 15.9454 26.6292 16.1064C27.5712 15.903 28.036 16.2748 28.0236 17.2218C28.0293 17.3809 27.9673 17.5048 27.8377 17.5937C26.7118 18.0379 25.7048 17.8674 24.8166 17.0824C24.6745 16.8113 24.5506 16.5324 24.4447 16.2458C24.429 14.7425 24.3825 13.2551 24.3053 11.7838ZM53.1691 10.5755C53.1226 12.8372 53.1071 15.0992 53.1226 17.3614C53.3787 17.5945 53.6885 17.6874 54.0522 17.6403C54.4018 17.6894 54.6961 17.5964 54.9353 17.3614L55.0283 12.9924C55.2214 12.5213 55.5158 12.134 55.9114 11.8304C56.9669 11.4485 57.757 11.7429 58.2818 12.7135L58.3748 17.3614C58.6139 17.5964 58.9082 17.6894 59.2579 17.6403C59.6075 17.6894 59.9018 17.5964 60.141 17.3614C60.203 15.6572 60.203 13.9529 60.141 12.2487C60.0198 11.557 59.6945 10.9837 59.1649 10.529C57.6597 9.70399 56.2964 9.87438 55.0747 11.0403C55.035 10.7593 54.911 10.5269 54.7029 10.3431C54.3012 10.2967 53.8984 10.2812 53.4944 10.2966C53.3742 10.37 53.2657 10.463 53.1691 10.5755ZM38.4354 6.53208C38.0337 6.4857 37.6309 6.47017 37.2269 6.4856C37.1691 6.59037 37.0917 6.68333 36.9945 6.76448C36.9325 10.3278 36.9325 13.8913 36.9945 17.4547L37.134 17.5941C37.5729 17.6663 38.0068 17.6508 38.4354 17.5476C38.5632 17.2756 38.6717 16.9967 38.7608 16.711C38.9966 16.978 39.2599 17.2104 39.5509 17.4082C41.298 18.1914 42.8007 17.866 44.0594 16.4321C45.1288 14.4357 44.9583 12.5611 43.5481 10.8082C42.2423 9.88341 40.879 9.79045 39.4579 10.5293C39.2677 10.7991 39.0198 10.9695 38.7143 11.0406C38.7298 9.61485 38.7143 8.18953 38.6678 6.76448L38.4354 6.53208ZM42.85 14.4802C43.0595 12.5053 42.1764 11.5758 40.2007 11.6915C39.7711 11.8687 39.4148 12.1475 39.1317 12.5281C38.4013 13.9284 38.6647 15.0904 39.9219 16.014C41.416 16.4679 42.392 15.9566 42.85 14.4802ZM10.1765 10.0178C11.5297 9.83687 12.7381 10.1622 13.8019 10.9938C14.3059 11.4615 14.7551 11.9728 15.1497 12.5276C15.7987 11.5376 16.6508 10.7785 17.7061 10.2502C19.2631 9.77626 20.6885 10.0242 21.9822 10.9938C22.5829 11.4975 22.8773 12.1327 22.8653 12.8995L22.6329 13.1319C22.2301 13.1939 21.8272 13.1939 21.4244 13.1319C20.4657 11.573 19.1954 11.2632 17.6131 12.2023C17.0551 12.6838 16.6214 13.2571 16.3117 13.922C16.7721 14.9867 17.5468 15.7149 18.6357 16.1065C19.2565 16.2135 19.8452 16.1206 20.4019 15.8276C20.8161 15.464 21.1879 15.0612 21.5174 14.6192C22.9635 14.4578 23.2889 15.0001 22.4934 16.246C20.9779 17.8957 19.1962 18.252 17.1483 17.315C16.3582 16.7728 15.692 16.1065 15.1497 15.3164C14.5315 16.2756 13.7104 17.0038 12.6864 17.5009C9.94382 18.3529 8.10018 17.4388 7.15535 14.7586C6.85472 12.3195 7.86174 10.7392 10.1765 10.0178ZM10.4553 11.6907C12.1332 11.6316 13.3107 12.3753 13.9877 13.9217C13.5895 14.7969 12.9697 15.4631 12.1286 15.9203C10.839 16.4303 9.83185 16.1049 9.10742 14.9443C8.57264 13.4314 9.0219 12.3468 10.4553 11.6907ZM35.3215 11.5054C34.2354 10.322 32.8875 9.82616 31.2778 10.018C30.693 10.2018 30.1352 10.4652 29.6046 10.8082C28.6464 11.5932 28.1816 12.6002 28.2102 13.8293C28.245 16.3429 29.5155 17.6753 32.0215 17.8265C34.1425 17.827 35.4595 16.8044 35.9722 14.7589C36.2009 13.5767 35.9839 12.4923 35.3215 11.5054ZM34.1133 14.7591C34.4815 12.6635 33.5984 11.641 31.464 11.6915C30.8823 11.9787 30.4329 12.4126 30.1161 12.9929C29.7197 14.3783 30.1381 15.4164 31.3711 16.107C32.6871 16.4327 33.6012 15.9834 34.1133 14.7591ZM51.9138 12.2486C51.9294 13.953 51.9138 15.6573 51.8674 17.3612C51.7708 17.4737 51.6623 17.5667 51.542 17.6401C50.7698 17.8577 50.305 17.5789 50.1476 16.8035C49.6791 17.3943 49.0595 17.7197 48.2885 17.7796C46.0944 18.0233 45.0874 17.0472 45.2673 14.8514C45.609 14.029 46.2132 13.5332 47.08 13.3641C47.4388 13.3354 47.7796 13.2734 48.1026 13.1781C48.7753 13.1385 49.4415 13.0766 50.1012 12.9922C50.1465 11.922 49.6198 11.3953 48.5209 11.4119C47.7336 11.418 47.2069 11.7898 46.9406 12.5274C46.5436 12.713 46.1252 12.7595 45.6856 12.6669C45.4406 12.2498 45.4561 11.8315 45.7321 11.4119C46.2575 10.6452 46.9857 10.1959 47.9166 10.064C48.9839 9.86808 49.9754 10.054 50.8913 10.6218C51.4131 11.0629 51.7539 11.6051 51.9138 12.2486ZM49.0324 14.2937H50.1479C50.1995 15.959 49.3939 16.6561 47.7309 16.3853C47.1458 16.1598 46.9443 15.7415 47.1267 15.1303C47.272 14.8303 47.5044 14.6288 47.8239 14.5261C48.239 14.4449 48.6417 14.3674 49.0324 14.2937Z" fill="#161616"/>
</svg>
