<svg width="169" height="24" viewBox="0 0 169 24" fill="none" xmlns="http://www.w3.org/2000/svg">
<path d="M4.28558 0.616671C2.704 1.33093 1.27547 2.73395 0.535697 4.31553C0.0255094 5.38693 0 5.8716 0 11.9683C0 18.0651 0.0255094 18.5498 0.535697 19.6212C1.30098 21.2283 2.704 22.6058 4.36211 23.3455C5.73961 23.9578 5.79063 23.9578 14.923 23.9578H24.1064V15.0805C24.1064 5.36142 24.0554 5.00429 22.5503 2.91252C21.6065 1.58603 20.6626 0.871765 19.2086 0.361576C18.3413 0.0554638 16.7852 -0.0210648 11.8619 0.00444603C5.84165 0.00444603 5.56105 0.0299549 4.28558 0.616671ZM11.3772 3.88187C11.5813 3.6778 11.8619 3.70331 12.3721 3.88187C12.9843 4.11146 13.1884 4.08595 13.5965 3.72882C14.1577 3.21863 14.4128 3.39719 14.4128 4.29002C14.4128 5.13183 14.5659 5.3104 15.8668 6.20323C18.4178 7.91236 19.0045 9.54496 19.0045 14.8509V18.8559L18.3157 18.8814C17.9076 18.8814 15.9179 18.8814 13.8516 18.8559C9.66806 18.8304 8.92829 18.6008 7.21916 17.0192C3.95396 13.9071 4.43863 8.67764 8.23953 6.1267C9.25991 5.43795 9.56602 5.08081 9.56602 4.57063C9.56602 3.57576 10.0507 3.19312 10.6374 3.72882C10.969 4.03493 11.1986 4.06044 11.3772 3.88187Z" fill="#161616"/>
<path d="M11.2247 9.59608C10.4594 9.80016 10.0257 10.2083 9.64307 11.1266C9.36247 11.8409 9.36247 12.096 9.64307 12.7848C10.1788 14.0857 10.689 14.3408 12.5766 14.3663L14.2858 14.3918L14.3623 12.7082C14.4133 11.2287 14.3623 10.9226 13.8521 10.3359C13.2654 9.67261 12.143 9.34099 11.2247 9.59608Z" fill="#161616"/>
<path d="M72.8295 4.34128C70.2531 4.82596 68.1358 6.40754 66.9369 8.67788C66.4522 9.59622 66.3502 10.2084 66.3502 12.2237C66.3247 14.3155 66.4012 14.8256 66.9624 15.8715C67.7532 17.4276 69.1052 18.6776 70.9929 19.5704C72.2939 20.1826 72.702 20.2591 75.1254 20.2336C77.1151 20.2336 78.008 20.1061 78.5692 19.8C79.0028 19.5704 79.462 19.3663 79.615 19.3663C80.2783 19.3663 82.5231 16.9939 83.1864 15.5909C83.7731 14.392 83.9006 13.7798 83.9006 12.2237C83.9006 8.06565 81.1966 5.00453 76.9366 4.29026C75.2785 4.03517 74.4111 4.03517 72.8295 4.34128ZM77.4212 7.81056C79.2834 8.7289 80.3293 11.3564 79.7426 13.6267C78.7222 17.6572 73.3397 18.601 70.9929 15.1573C70.4062 14.2899 70.3041 13.8563 70.2786 12.4022C70.2786 11.1523 70.4317 10.387 70.7888 9.67274C71.3245 8.62686 72.753 7.52996 73.8754 7.30037C74.7938 7.12181 76.5284 7.35139 77.4212 7.81056Z" fill="#161616"/>
<path d="M49.8708 4.54548L48.7229 4.69854V12.3514V20.0042H50.381H52.0391L52.1156 15.591C52.1667 11.9942 52.2432 11.2034 52.5493 11.2034C52.7534 11.2034 54.4115 13.2187 56.2737 15.6676L59.6154 20.1572L61.3245 20.0807L63.0082 20.0042L63.0847 12.2748L63.1357 4.57099H61.35H59.5644V9.13717C59.5644 11.6626 59.4624 13.7799 59.3348 13.8564C59.2328 13.9329 58.1359 12.6575 56.9369 10.9994C55.7125 9.36675 54.6411 7.88721 54.5135 7.75966C54.335 7.55559 52.7024 5.23423 52.3197 4.64752C52.1922 4.46895 50.8147 4.41793 49.8708 4.54548Z" fill="#161616"/>
<path d="M88.6959 4.5456C87.9561 4.62213 87.2418 4.87722 87.1143 5.0813C86.8337 5.48945 86.7827 18.6268 87.0123 19.5706C87.1653 20.1063 87.2929 20.1573 88.8744 20.0808L90.5581 20.0043L90.6346 17.836C90.7111 14.7238 90.7877 14.5198 91.7825 14.5198C92.9304 14.5198 93.16 14.7749 95.0222 17.6319L96.6293 20.1318H98.2109C100.66 20.1318 100.685 19.8767 98.7211 16.9432C97.8027 15.5657 97.063 14.2902 97.063 14.1116C97.063 13.9075 97.5731 13.2953 98.1599 12.7341C100.15 10.9229 100.354 7.93835 98.619 6.1782C97.3946 4.97926 95.9405 4.52009 92.8539 4.44356C91.3233 4.39254 89.4357 4.44356 88.6959 4.5456ZM94.8947 7.63224C96.3742 8.55057 96.2722 10.4893 94.7161 11.4586C93.6447 12.1219 91.0683 12.1729 90.8387 11.5607C90.5326 10.7954 90.6601 7.42816 91.0172 7.30061C91.859 6.94348 94.1039 7.14756 94.8947 7.63224Z" fill="#161616"/>
<path d="M105.15 4.5195C104.282 4.62153 103.568 4.85112 103.441 5.0807C103.109 5.59089 103.109 19.366 103.441 19.8761C103.645 20.1823 104.41 20.2588 107.956 20.2588C111.757 20.2333 112.369 20.1823 113.415 19.6976C116.476 18.2946 117.088 14.4682 114.486 12.9376C114.027 12.657 113.644 12.3254 113.644 12.1978C113.644 12.0958 113.976 11.6111 114.384 11.1519C115.302 10.0805 115.532 9.36628 115.328 8.01428C115.098 6.63678 114.104 5.48885 112.624 4.95316C111.323 4.49399 107.369 4.2644 105.15 4.5195ZM111.042 7.55511C111.91 8.29489 111.986 9.23873 111.272 10.055C110.711 10.7183 110.507 10.7693 108.9 10.7948L107.139 10.8203L107.063 9.31526C107.012 8.49896 107.037 7.65715 107.114 7.47859C107.318 6.91738 110.379 6.99391 111.042 7.55511ZM111.527 14.162C112.624 15.0039 112.701 16.2538 111.706 17.0446C111.144 17.4783 110.66 17.5803 109.027 17.5803H107.012V15.5396V13.4988H108.849C110.405 13.4988 110.787 13.6008 111.527 14.162Z" fill="#161616"/>
<path d="M136.986 4.49396C136.578 4.57049 136.067 4.72354 135.914 4.8766C135.455 5.25924 135.43 19.3659 135.889 19.8251C136.067 20.0037 136.858 20.1312 137.649 20.1312C138.797 20.1312 139.128 20.0292 139.282 19.6976C139.358 19.4425 139.435 17.5293 139.409 15.412C139.384 13.3202 139.384 11.4325 139.384 11.2539C139.435 10.5397 140.685 11.9172 143.72 15.9732L146.807 20.1312H148.184C150.557 20.1312 150.378 20.82 150.378 12.1978V4.57049H148.592H146.807V9.13667C146.807 11.6621 146.705 13.7794 146.603 13.8559C146.475 13.9324 146.144 13.6773 145.837 13.2947C145.021 12.2998 139.69 5.00415 139.613 4.80007C139.511 4.54498 137.904 4.36641 136.986 4.49396Z" fill="#161616"/>
<path d="M35.2286 6.91797C34.6929 8.21895 34.1572 9.51993 34.0552 9.80053C33.9277 10.0811 33.596 10.8719 33.2899 11.5862C32.9838 12.2749 32.6522 13.0912 32.5246 13.3718C31.1216 16.5095 29.9737 19.5196 30.1013 19.8002C30.1778 20.0553 30.6625 20.1318 31.8104 20.0808L33.4175 20.0043L33.9277 18.6778C34.2338 17.8615 34.6674 17.2493 35.0246 17.0962C35.3562 16.9432 36.7847 16.8156 38.2387 16.8156C40.6366 16.8156 40.8917 16.8666 41.4019 17.4023C41.708 17.734 41.9631 18.1676 41.9631 18.3972C41.9631 18.6013 42.1927 19.086 42.4988 19.4686C42.907 20.0043 43.2386 20.1318 44.1314 20.1318C45.4834 20.1318 46.0446 19.9278 46.0446 19.4431C46.0446 19.137 45.2028 17.0452 43.5957 13.2443C43.0345 11.9433 42.8304 11.4842 42.2182 9.92808C41.9376 9.1628 41.5805 8.29548 41.4529 8.01488C41.3254 7.73427 40.9427 6.84144 40.5856 6.02514L39.9224 4.57111H38.0602H36.198L35.2286 6.91797ZM38.4428 9.85155C38.6979 10.0811 38.902 10.4383 38.902 10.6679C38.902 10.8974 39.0806 11.4076 39.2846 11.8158C39.5142 12.2239 39.6928 12.9127 39.7438 13.3463L39.7948 14.1371H38.0092H36.2235L36.3 13.3718C36.3511 12.9637 36.6061 12.1474 36.8867 11.5352C37.1418 10.9485 37.3714 10.3107 37.3714 10.1066C37.3714 9.36687 37.7796 9.23933 38.4428 9.85155Z" fill="#161616"/>
<path d="M122.98 5.6425C122.725 6.25473 122.291 7.24959 122.011 7.88733C121.756 8.52506 121.424 9.26484 121.297 9.54544C121.169 9.82604 120.812 10.6934 120.506 11.4586C119.919 12.9892 119.358 14.3667 119.001 15.1575C118.873 15.4381 118.541 16.2289 118.235 16.9432C117.929 17.6319 117.572 18.4737 117.419 18.7798C116.909 19.8002 117.317 20.1318 118.95 20.1318H120.429L120.99 19.0094C121.297 18.3972 121.552 17.785 121.552 17.6319C121.552 17.0452 122.623 16.8156 125.327 16.8156C128.414 16.8156 128.669 16.9432 129.23 18.6268C129.689 19.9788 129.919 20.1318 131.347 20.1318C133.439 20.1318 133.592 19.8512 132.648 17.7084C132.444 17.2748 131.883 15.8973 131.373 14.6473C130.863 13.3718 130.301 11.9943 130.123 11.5862C129.944 11.1525 129.638 10.4638 129.46 10.0556C129.306 9.62197 128.72 8.24446 128.21 6.9945L127.266 4.69866L125.353 4.62213L123.439 4.5456L122.98 5.6425ZM126.577 11.9688C127.342 14.0606 127.215 14.2647 125.25 14.2647C124.358 14.2647 123.541 14.1371 123.465 13.9841C123.363 13.831 123.592 12.8362 123.975 11.7648C124.358 10.6934 124.715 9.62197 124.791 9.41789C124.97 8.85669 125.863 10.1322 126.577 11.9688Z" fill="#161616"/>
<path d="M154.46 5.00477C154.383 13.5759 154.485 19.7492 154.664 19.9278C154.791 20.0553 155.582 20.1318 156.398 20.0808L157.903 20.0043L158.031 17.4533C158.107 16.0503 158.26 14.7494 158.362 14.5708C158.847 13.8565 159.714 14.2647 161.22 15.9738C162.061 16.9432 163.26 18.2441 163.924 18.9074C165.046 20.0808 165.173 20.1318 166.474 20.1318C168.082 20.1318 169 19.9278 169 19.5706C169 19.2135 167.826 17.8615 163.209 12.7851C162.878 12.428 162.623 12.0198 162.623 11.8413C162.623 11.6882 163.464 10.6934 164.485 9.64748C166.423 7.68325 168.49 5.18333 168.49 4.80069C168.49 4.67315 167.571 4.57111 166.474 4.57111C164.306 4.57111 164.281 4.59662 163.158 6.15269C162.087 7.63223 158.771 10.6679 158.388 10.5148C158.133 10.4128 158.031 9.67299 157.98 7.55571L157.903 4.69865L156.194 4.62213C154.664 4.5456 154.46 4.59662 154.46 5.00477Z" fill="#161616"/>
</svg>
