<svg width="98" height="24" viewBox="0 0 98 24" fill="none" xmlns="http://www.w3.org/2000/svg">
<path d="M32.7951 7.13388C31.9442 9.42587 30.709 12.7335 30.0502 14.4765L28.8562 17.6743H30.311H31.7795L32.2599 16.1921L32.7402 14.7235H35.6087H38.4771L38.9849 16.1646L39.4927 17.6057L40.9612 17.6469C42.3337 17.6743 42.4298 17.6606 42.3337 17.441C42.2788 17.3038 41.0573 13.9961 39.6025 10.0984L36.9811 2.98907H35.6636H34.3323L32.7951 7.13388ZM36.5557 9.39842C36.9811 10.6336 37.3654 11.7316 37.4066 11.8414C37.4752 12.0198 37.2282 12.0473 35.6361 12.0473H33.7696L34.5931 9.67291C35.046 8.38281 35.444 7.22995 35.4851 7.12015C35.5949 6.77704 35.7596 7.10643 36.5557 9.39842Z" fill="#161616"/>
<path d="M67.9292 10.3317V17.6743H69.233H70.5369V10.3317V2.98907H69.233H67.9292V10.3317Z" fill="#161616"/>
<path d="M47.5485 7.11985C47.0956 7.27082 46.6289 7.47669 46.5191 7.57276C46.0662 7.95705 45.9839 7.94332 45.778 7.44924L45.5722 6.96888H44.5428H43.4998V14.1743V21.3796H44.8722H46.2447V19.1151V16.8505L47.0681 17.2897C47.8093 17.674 48.0426 17.7289 49.0307 17.7289C50.0464 17.7426 50.2522 17.7015 51.0757 17.2897C53.2304 16.2329 54.3833 13.8311 53.9441 11.2921C53.3814 8.06684 50.3895 6.11796 47.5485 7.11985ZM49.9228 9.72751C50.76 10.1392 51.1992 10.8529 51.2816 11.9783C51.3776 13.1037 51.0894 13.9135 50.362 14.5723C49.168 15.6428 47.123 15.2722 46.3819 13.8311C46.0525 13.1861 45.9976 11.594 46.2996 10.9078C46.8485 9.60399 48.5229 9.05501 49.9228 9.72751Z" fill="#161616"/>
<path d="M59.3242 7.02413C57.8831 7.49076 56.6479 8.6299 55.9342 10.1121C55.55 10.9356 55.5088 11.1415 55.5088 12.3218C55.5088 13.4472 55.5637 13.7354 55.8931 14.4354C56.6479 16.0549 57.8831 17.1391 59.4889 17.6057C61.4927 18.1959 63.8807 17.2626 65.0748 15.4235C65.363 14.9706 65.5963 14.5589 65.5963 14.4903C65.5963 14.4354 64.965 14.3805 64.1964 14.3805C63.0298 14.3805 62.7553 14.4217 62.522 14.6412C61.5064 15.5471 59.4203 15.2863 58.7341 14.1883C58.1576 13.2551 58.0478 13.2825 62.1789 13.2825H65.8982L65.8434 11.8689C65.7747 10.2768 65.514 9.59062 64.5121 8.45148C63.6474 7.47704 62.4397 6.92806 61.026 6.87316C60.3261 6.84571 59.681 6.90061 59.3242 7.02413ZM62.3573 9.89256C62.8651 10.2768 63.2631 10.8944 63.2631 11.2925C63.2631 11.4709 62.9338 11.4983 60.779 11.4983H58.2949L58.3909 11.1278C58.5282 10.5651 58.9811 10.0161 59.5301 9.71414C60.2986 9.28868 61.6848 9.38475 62.3573 9.89256Z" fill="#161616"/>
<path d="M75.4779 6.95519C74.4211 7.28458 73.3917 8.09433 73.0623 8.87663C72.8153 9.48051 72.8153 10.853 73.0761 11.347C73.5015 12.1842 74.5446 12.8156 76.2327 13.2685C77.8796 13.7077 78.2228 13.9135 78.2228 14.4625C78.2228 14.7782 78.1267 14.984 77.8659 15.1899C77.0424 15.835 75.8484 15.6154 75.3269 14.7233L75.0387 14.2429H73.8172C72.6369 14.2429 72.5957 14.2566 72.5957 14.5449C72.5957 15.0389 73.1996 16.1918 73.7074 16.6722C74.5309 17.4545 75.3681 17.729 76.864 17.7427C78.0992 17.7427 78.2365 17.7152 79.1286 17.2623C79.9246 16.8506 80.1442 16.6584 80.5148 16.0271C80.8853 15.437 80.9677 15.135 80.9677 14.5311C80.9677 12.8705 79.9795 11.9097 77.5777 11.2235C75.8072 10.7157 75.7523 10.702 75.6014 10.2903C75.4367 9.85107 75.7798 9.31581 76.3562 9.12367C76.9327 8.93153 77.7836 9.23347 78.0581 9.72755C78.2914 10.1256 78.3051 10.1256 79.5678 10.1256C81.0226 10.1256 81.0363 10.1118 80.501 8.94525C80.103 8.0806 79.1972 7.29831 78.3051 7.03754C77.5914 6.81795 76.068 6.77677 75.4779 6.95519Z" fill="#161616"/>
<path d="M92.2495 7.07868C91.8378 7.22965 91.33 7.49042 91.0966 7.65511C90.6437 7.9845 90.5202 7.9296 90.3555 7.27082C90.2732 6.99633 90.1908 6.96888 89.2576 6.96888H88.2419V12.3215V17.6877L89.5595 17.6466L90.8908 17.6054L90.9045 14.3115C90.9182 11.2509 90.9319 10.9902 91.2064 10.5373C92.0162 9.13736 94.0611 9.04129 94.9258 10.3588C95.1454 10.6882 95.1865 11.1549 95.2414 14.1743L95.3101 17.6054L96.6551 17.6466L98.0001 17.6877L97.9589 13.8037C97.9177 9.48047 97.8766 9.27461 96.8884 8.14919C95.8591 6.98261 93.8415 6.51597 92.2495 7.07868Z" fill="#161616"/>
<path d="M83.0261 12.3217V17.6743H84.33H85.6338V12.3217V6.96918H84.33H83.0261V12.3217Z" fill="#161616"/>
<path d="M2.99195 0.180492C2.89587 0.276566 2.56648 0.482433 2.27827 0.633402C1.72929 0.907894 0.411736 2.28035 0.411736 2.56856C0.411736 2.65091 0.315664 2.91167 0.205868 3.11754C0.027449 3.46066 0 4.73704 0 11.9424V20.3693L0.411736 21.2339C0.892094 22.2221 1.70184 23.0181 2.73118 23.5396L3.45858 23.8965H12.0776C19.5574 23.8965 20.7377 23.869 20.9162 23.6906C21.026 23.5808 21.2181 23.4847 21.3416 23.4847C21.6024 23.4847 23.4689 21.6457 23.4689 21.3849C23.4689 21.2751 23.5513 21.0143 23.6611 20.7947C23.812 20.4791 23.8669 19.3674 23.9081 15.4971C23.9493 10.9131 23.9356 10.5974 23.716 10.5288C23.5787 10.5013 23.4689 10.3366 23.4689 10.1857C23.4689 9.77394 22.5082 8.77205 21.6573 8.30542L20.9299 7.9074L12.1462 7.86623C3.55465 7.82506 3.36251 7.82506 3.11547 7.55057C2.93705 7.35842 2.88215 7.16628 2.93705 6.94669C3.07429 6.41143 3.48603 6.28791 4.65261 6.38398C5.22904 6.43888 9.1817 6.49378 13.45 6.5075C20.5868 6.53495 21.2318 6.54868 21.5475 6.76827C21.7259 6.90551 22.0141 7.01531 22.1651 7.01531C22.3298 7.01531 22.7964 7.3447 23.2356 7.77016C23.9905 8.49756 24.0179 8.56618 24.0316 9.25241C24.0316 9.88374 24.0591 9.92491 24.1826 9.62297C24.2787 9.37593 24.2787 8.8544 24.1552 7.83878C24.0728 7.04276 23.9767 5.80755 23.9493 5.09388C23.8807 3.50183 23.812 2.99402 23.6199 2.9254C23.5375 2.89795 23.4689 2.76071 23.4689 2.60974C23.4689 2.29407 21.671 0.427534 21.3828 0.427534C21.2593 0.427534 21.0946 0.345188 21.0122 0.235392C20.7789 -0.0390987 3.29388 -0.093998 2.99195 0.180492ZM19.2692 0.770647C19.4751 0.880444 19.7496 0.976517 19.8594 0.976517C20.175 0.976517 21.2867 1.64902 21.8769 2.198C22.6866 2.95285 23.0572 3.85867 23.0572 5.1076C23.0572 5.95852 23.016 6.19184 22.7964 6.38398C22.5357 6.6173 22.5219 6.60357 22.1788 6.01342C21.9867 5.68403 21.822 5.31347 21.822 5.17622C21.822 4.50372 21.0534 3.543 20.1888 3.15872C19.4751 2.84305 19.0496 2.82933 18.5555 3.09009C18.3497 3.19989 17.883 3.33714 17.4988 3.41948C17.1282 3.50183 16.4145 3.66652 15.9204 3.77632C15.4264 3.89984 14.7401 4.06454 14.3833 4.13316C14.0265 4.20178 13.6147 4.31158 13.4638 4.39392C13.3128 4.47627 13.0383 4.5449 12.8599 4.5449C12.6677 4.5449 12.2148 4.62724 11.858 4.73704C11.4874 4.84683 10.5679 5.03898 9.81303 5.1625C9.05818 5.28602 8.24844 5.45071 8.01512 5.51934C7.47986 5.68403 6.5466 5.68403 6.3819 5.51934C6.29955 5.45071 5.72312 5.36837 5.07807 5.35464C4.11736 5.32719 3.81542 5.36837 3.34878 5.61541C2.71745 5.9448 2.05868 6.71337 2.05868 7.15256C2.05868 7.46822 3.17036 8.62108 3.65072 8.7995C3.81542 8.86812 7.37007 8.9093 11.5423 8.9093C15.7283 8.89557 19.6123 8.95047 20.175 9.00537C21.1769 9.10144 21.1907 9.11516 21.8769 9.84256C22.2474 10.2543 22.6317 10.817 22.7278 11.0778C22.9199 11.6405 22.865 13.5756 22.6592 13.7815C22.5768 13.8639 22.2749 13.7266 21.8494 13.4109C20.9848 12.7796 20.1064 12.4639 19.7633 12.6424C19.6261 12.7247 19.379 12.7796 19.2143 12.7796C19.0496 12.7796 18.5967 13.0953 18.185 13.4796C17.5674 14.0697 17.4164 14.303 17.2792 14.9206C17.0733 15.8539 17.238 16.4852 17.883 17.2538C18.4046 17.844 19.4888 18.4616 20.0241 18.4478C20.4907 18.4341 21.2044 18.1047 21.9318 17.5558C22.3572 17.2401 22.5494 17.1577 22.6592 17.2675C22.9062 17.5146 22.7415 19.7517 22.4396 20.3281C21.9043 21.3574 21.3416 21.975 20.6142 22.3182L19.9006 22.675L12.2423 22.6613C3.4723 22.6476 3.56837 22.6476 2.42924 21.577C1.90771 21.0692 1.72929 20.7673 1.5097 20.0536C1.26266 19.2164 1.24893 18.6674 1.23521 11.7228V4.28413L1.57832 3.40576C2.00378 2.34897 2.42924 1.92351 3.43113 1.51177C4.1448 1.22356 4.4193 1.20983 8.30333 1.15494C10.8835 1.12749 12.9422 1.03141 13.8343 0.907894C15.6871 0.633402 15.7832 0.647127 15.7832 0.976517C15.7832 1.12749 15.7283 1.25101 15.6597 1.25101C15.6048 1.25101 15.3852 1.40198 15.1793 1.59412C14.7539 1.99213 14.7813 2.00586 15.7832 1.73137C16.7439 1.4706 17.5811 1.4706 18.2124 1.73137C18.8575 2.00586 19.0908 1.99213 18.981 1.69019C18.9398 1.56667 18.83 1.38825 18.7477 1.31963C18.6653 1.23728 18.5144 1.04514 18.4183 0.86672C18.2673 0.59223 18.2811 0.564779 18.5555 0.564779C18.734 0.564779 19.0496 0.660852 19.2692 0.770647ZM19.4339 4.29785C20.5319 4.84683 20.2711 4.95663 17.9105 4.95663C15.8655 4.95663 15.4401 4.87428 16.0302 4.57234C16.1538 4.49 16.538 4.39392 16.8812 4.33903C17.2243 4.28413 17.5948 4.18806 17.7046 4.11943C18.0752 3.91357 18.83 3.98219 19.4339 4.29785ZM20.8338 13.8364C21.5338 14.2756 21.8083 14.7148 21.822 15.4284C21.822 16.6088 21.122 17.3636 20.0378 17.3636C19.0222 17.3636 18.1164 16.4578 18.1164 15.4422C18.1164 14.1795 19.7908 13.1776 20.8338 13.8364Z" fill="#161616"/>
<path d="M83.3145 2.9887C82.5047 3.77099 82.8341 5.10227 83.9321 5.45911C84.8791 5.77478 85.8398 5.04738 85.8398 3.99059C85.8398 3.46906 85.7712 3.31809 85.3869 2.97497C84.7556 2.41227 83.9184 2.41227 83.3145 2.9887Z" fill="#161616"/>
</svg>
