<svg width="96" height="25" viewBox="0 0 96 25" fill="none" xmlns="http://www.w3.org/2000/svg">
<path d="M55.8109 1.0192C55.1836 1.20739 54.6065 1.64651 54.2176 2.22363C52.6869 4.54468 54.9076 7.4554 57.605 6.6399C58.2574 6.45171 59.0729 5.72402 59.3615 5.10926C59.6375 4.4945 59.6752 3.31515 59.4368 2.73803C58.8597 1.37049 57.2161 0.592625 55.8109 1.0192Z" fill="#161616"/>
<path d="M10.6069 1.33276C8.64974 1.8597 6.54197 3.25233 4.39657 5.39773C3.53088 6.26342 2.52719 7.40513 2.17589 7.93207C0.871086 9.83909 0.143406 11.6834 0.130859 13.0635C0.130859 15.3971 2.37663 19.0606 5.40027 21.6702C7.48294 23.4517 9.2645 24.4429 11.0461 24.8067C12.0623 25.0075 12.1627 25.0075 13.0911 24.8067C17.4948 23.8156 23.2159 17.969 23.8557 13.8037C23.9812 13.0133 23.9687 12.7247 23.793 11.9218C23.3413 9.88928 21.9111 7.61841 19.7029 5.41028C16.328 2.03535 13.1789 0.630173 10.6069 1.33276ZM13.4926 8.70993C15.1361 9.57562 16.8173 11.7587 16.8173 13.0258C16.8173 14.3306 15.0734 16.5513 13.3922 17.3919C12.9154 17.6303 12.3383 17.831 12.1125 17.831C10.218 17.831 7.2822 14.9454 7.2822 13.0635C7.2822 11.5203 9.31469 9.09887 11.1966 8.40882C12.0121 8.12026 12.4763 8.18299 13.4926 8.70993Z" fill="#161616"/>
<path d="M46.6777 12.8752V24.606H49.0615H51.4453V12.8752V1.14454H49.0615H46.6777V12.8752Z" fill="#161616"/>
<path d="M78.9211 12.8752V24.606H81.3049H83.6887L83.7138 21.1557L83.7514 17.7181L86.6245 21.1557L89.4976 24.606H92.3832C95.0556 24.606 95.2438 24.5934 95.0932 24.3927C94.9928 24.2798 93.4246 22.3978 91.6179 20.2273C89.7987 18.0443 88.2806 16.2 88.243 16.1122C88.2053 16.0243 89.4098 14.4435 90.9153 12.5992C92.4083 10.7549 93.688 9.16157 93.7633 9.07375C93.8511 8.96083 93.2991 8.92319 91.0659 8.92319H88.2555L85.9972 11.6959L83.7514 14.4812L83.7138 7.80658L83.6887 1.14454H81.3049H78.9211V12.8752Z" fill="#161616"/>
<path d="M35.4484 8.7351C33.3156 9.13658 31.5967 10.1528 30.4299 11.7085C29.3008 13.2015 28.8742 14.4185 28.7738 16.3256C28.6986 17.9691 28.9244 19.1108 29.6019 20.516C30.5178 22.3979 32.2491 23.8909 34.2942 24.5559C35.1975 24.857 35.5363 24.9072 36.954 24.9072C38.3215 24.9197 38.7355 24.8695 39.5259 24.6311C41.2699 24.0791 42.5119 23.2385 43.5407 21.8584C44.1555 21.0555 44.8079 19.6879 44.9835 18.8599L45.0714 18.4584H42.6374H40.2034L39.9776 18.8599C39.3503 19.9514 38.1459 20.7167 37.0293 20.7167C35.6868 20.7167 34.4071 19.9012 33.8676 18.6717C33.4536 17.7684 33.441 15.7986 33.83 14.9329C34.4447 13.5905 35.5488 12.8879 37.0167 12.9004C38.309 12.913 39.2248 13.4399 39.8521 14.5189L40.1783 15.0709H42.6249H45.0714L44.9835 14.6569C44.9334 14.4436 44.6448 13.7159 44.3311 13.0635C43.202 10.7174 41.157 9.17421 38.5975 8.7351C37.2802 8.50927 36.6403 8.50927 35.4484 8.7351Z" fill="#161616"/>
<path d="M67.9431 8.65965C65.2206 9.11131 62.9874 10.6921 61.8833 12.9504C61.1933 14.3556 60.98 15.2339 60.98 16.7645C60.98 19.2486 61.8331 21.256 63.5896 22.862C66.2243 25.2708 70.766 25.6723 73.7269 23.7527C75.2199 22.7741 76.5875 20.9549 77.0893 19.2236C77.2022 18.8472 77.2901 18.521 77.2901 18.4959C77.2901 18.4708 76.1985 18.4582 74.8686 18.4582H72.4472L72.0206 19.1106C71.1926 20.3653 69.8627 20.9173 68.4701 20.6036C66.5881 20.1896 65.6346 18.6841 65.7726 16.3756C65.8981 14.2427 67.1778 12.9254 69.1601 12.9003C70.3395 12.8752 71.2679 13.3645 71.9454 14.3556L72.4472 15.0708H74.8686H77.2901L77.2148 14.7195C77.0642 14.0671 76.4495 12.7246 75.9852 12.022C74.9941 10.529 73.2627 9.3246 71.4561 8.86039C70.5276 8.62201 68.7837 8.52164 67.9431 8.65965Z" fill="#161616"/>
<path d="M54.3311 16.7646V24.606H56.7148H59.0986V16.7646V8.92319H56.7148H54.3311V16.7646Z" fill="#161616"/>
</svg>
