<svg width="145" height="25" viewBox="0 0 145 25" fill="none" xmlns="http://www.w3.org/2000/svg">
<path d="M74.9731 8.05279C73.3472 8.56924 72.8882 9.44911 72.8882 11.9931C72.8882 14.1736 73.156 14.9388 74.208 15.57C74.8392 15.9716 75.1644 16.0099 78.0718 16.0673C81.7443 16.1438 82.4903 16.0099 83.4084 15.0535C84.0779 14.3649 84.0779 14.3649 84.1353 12.28C84.2118 9.85079 83.9631 9.10482 82.8537 8.41622C82.2225 8.01454 81.9356 7.97628 78.8178 7.93803C76.9815 7.9189 75.2409 7.97628 74.9731 8.05279ZM81.0366 10.4246C81.3809 10.8454 81.4956 11.1897 81.4956 11.9166C81.4956 13.6763 80.8262 14.1928 78.55 14.1928C76.1208 14.1928 75.5852 13.7911 75.5852 11.9931C75.5852 10.1186 76.0825 9.77428 78.7795 9.85079C80.4819 9.88905 80.5966 9.90818 81.0366 10.4246Z" fill="#161616"/>
<path d="M85.8955 11.9741V16.1057H87.5214H89.1472V12.854V9.60231H90.2566C91.7486 9.60231 92.1885 9.75533 92.3224 10.31C92.5137 11.056 91.8633 11.5725 90.6966 11.5916C89.7976 11.6107 89.7593 11.6298 89.9888 11.9933C90.1227 12.2037 90.6966 13.1409 91.2513 14.0782C91.8251 14.9963 92.3798 15.7997 92.4946 15.8571C92.6285 15.8953 93.3744 15.9144 94.1778 15.8762L95.6315 15.8188L94.5986 14.3077C94.0248 13.4661 93.5466 12.6819 93.5466 12.548C93.5466 12.4332 93.757 12.2611 94.0056 12.2037C94.2734 12.1463 94.7325 11.8594 95.0577 11.5916C95.5359 11.1899 95.6506 10.9604 95.6506 10.3292C95.6506 9.31539 95.402 8.91371 94.4456 8.41639C93.7187 8.03384 93.2979 7.99558 89.7784 7.91907L85.8955 7.84256V11.9741Z" fill="#161616"/>
<path d="M22.8117 12.0312L22.8691 16.0097L24.4567 16.0671L26.0251 16.1245V14.4795V12.8537H27.9379H29.8507V14.4795V16.1054H31.4765H33.1024V12.0886V8.07176H31.4765H29.8698L29.8124 9.44896L29.755 10.8453H27.9379H26.1208L26.0634 9.44896L26.006 8.07176H24.3802H22.7734L22.8117 12.0312Z" fill="#161616"/>
<path d="M36.3927 11.9933C35.3215 14.1547 34.4417 15.9527 34.4417 16.0101C34.4417 16.0675 35.1685 16.1057 36.0866 16.1057H37.7125L37.9994 15.4362L38.2672 14.7668H40.1608H42.0736L42.3031 15.4362L42.5518 16.1057H44.235C45.1532 16.1057 45.9183 16.0675 45.9183 16.0292C45.9183 15.9909 45.0575 14.1929 44.0055 12.0124L42.0736 8.07209H40.2182H38.3628L36.3927 11.9933ZM40.8303 11.6107C41.0981 12.2993 41.3276 12.8923 41.3276 12.9496C41.3276 13.007 40.8112 13.0453 40.18 13.0453C39.5487 13.0453 39.0323 13.007 39.0323 12.9496C39.0323 12.9114 39.1853 12.4523 39.3766 11.955C39.587 11.4577 39.7974 10.8839 39.8548 10.6926C40.0652 10.0996 40.3138 10.3483 40.8303 11.6107Z" fill="#161616"/>
<path d="M47.1039 12.0312L47.1613 16.0097L48.462 16.0671L49.7435 16.1245V13.2362C49.7435 11.6295 49.8201 10.3671 49.9157 10.3671C50.0113 10.3671 50.5087 11.6295 51.0251 13.1789L51.9815 16.0097L53.2248 16.0671L54.4872 16.1245L55.2906 13.7718C56.6104 9.81238 56.5913 9.83151 56.6104 13.1789L56.6295 16.1054H57.9685H59.3074V12.0886V8.07176H57.146H54.9654L54.2194 10.2906C53.7986 11.4956 53.3778 12.5094 53.2822 12.5094C53.1865 12.5094 52.7466 11.5147 52.3258 10.2906L51.5607 8.07176H49.3036H47.0657L47.1039 12.0312Z" fill="#161616"/>
<path d="M61.6033 12.0889V16.1057H63.2291H64.855V12.0889V8.07209H63.2291H61.6033V12.0889Z" fill="#161616"/>
<path d="M66.672 9.92738C65.8304 10.922 65.161 11.8019 65.1801 11.8593C65.2949 12.2801 68.4509 15.9143 68.7761 16.01C68.9865 16.0674 69.8664 16.1056 70.7462 16.0674L72.3338 16.01L70.4211 13.9633C69.3499 12.8157 68.4892 11.8401 68.4892 11.7445C68.4892 11.668 69.063 11.0368 69.7516 10.3673C70.4402 9.67872 71.1671 8.89449 71.3775 8.58845L71.76 8.072L69.9811 8.09113H68.2023L66.672 9.92738Z" fill="#161616"/>
<path d="M74.3612 20.6386C74.2847 20.696 74.2273 21.4802 74.2273 22.3601V23.9668L75.4132 23.9094C76.4652 23.852 76.6374 23.7946 76.8478 23.3738C77.0391 22.9913 77.0391 22.8191 76.8287 22.5131C76.6756 22.2836 76.5991 21.8819 76.6565 21.5567C76.733 21.1742 76.6756 20.9446 76.427 20.7533C76.0636 20.5047 74.5907 20.4091 74.3612 20.6386ZM75.9679 21.0785C76.6948 21.4802 76.2931 22.0349 75.2602 22.0349C74.8776 22.0349 74.8011 21.9393 74.8011 21.4611C74.8011 21.002 74.8776 20.8872 75.2028 20.8872C75.4132 20.8872 75.7575 20.9829 75.9679 21.0785ZM76.3313 22.7044C76.6948 23.1252 76.2357 23.5651 75.4515 23.5651C74.8585 23.5651 74.8011 23.5077 74.8011 22.9913C74.8011 22.4748 74.8585 22.4175 75.4515 22.4175C75.7958 22.4175 76.1974 22.5513 76.3313 22.7044Z" fill="#161616"/>
<path d="M77.7854 20.6387C77.728 20.6961 77.6707 21.4803 77.6707 22.3602C77.6707 23.6417 77.728 23.9478 77.9576 23.9478C78.1871 23.9478 78.2445 23.6417 78.2445 22.341C78.2445 20.8491 78.1106 20.3326 77.7854 20.6387Z" fill="#161616"/>
<path d="M79.009 22.2263C79.009 23.6226 79.0664 23.9478 79.2959 23.9478C79.5064 23.9478 79.5829 23.7373 79.5829 23.1826C79.5829 22.5514 79.6594 22.4175 79.9463 22.4175C80.2906 22.4175 80.8262 22.8766 81.3617 23.6417C81.5148 23.833 81.7252 23.9669 81.8399 23.9286C81.993 23.8712 81.9164 23.6226 81.6104 23.1635C81.1513 22.4941 81.1513 22.4749 81.5148 22.1689C82.4138 21.3846 81.6295 20.5048 80.0228 20.5048H79.009V22.2263ZM81.0748 21.0595C81.2278 21.1551 81.3044 21.3846 81.2661 21.5759C81.2278 21.8437 81.0174 21.9585 80.3862 21.9967C79.602 22.0541 79.5829 22.035 79.5829 21.4803C79.5829 20.9447 79.6402 20.8873 80.2141 20.8873C80.5392 20.8873 80.9409 20.9638 81.0748 21.0595Z" fill="#161616"/>
<path d="M83.0069 21.0597C82.1079 21.9778 82.3374 23.3742 83.5042 23.8715C84.6901 24.3688 85.7039 23.9097 85.7039 22.8769C85.7039 22.2648 85.6656 22.2265 85.0344 22.2265C84.671 22.2265 84.365 22.303 84.365 22.4178C84.365 22.5134 84.5754 22.6091 84.8431 22.6091C85.3979 22.6091 85.5317 23.2594 85.0153 23.4507C83.9441 23.8524 83.026 23.2977 83.026 22.2648C83.026 21.0788 84.3076 20.4668 85.0344 21.2701C85.2831 21.557 85.4552 21.5953 85.5891 21.4614C85.9143 21.1362 85.0153 20.505 84.2311 20.505C83.7529 20.505 83.4086 20.658 83.0069 21.0597Z" fill="#161616"/>
<path d="M87.2147 21.0212C86.1627 23.6991 86.0862 23.9478 86.3731 23.9478C86.5261 23.9478 86.6982 23.7373 86.7748 23.4696C86.8704 23.0488 87.0043 22.9914 87.712 22.9914C88.4197 22.9914 88.5536 23.0488 88.6493 23.4696C88.7258 23.7373 88.9171 23.9478 89.0701 23.9478C89.2614 23.9478 89.3379 23.833 89.2805 23.68C88.5345 21.7289 87.9224 20.5048 87.6929 20.5048C87.5399 20.5048 87.3295 20.7343 87.2147 21.0212ZM88.1902 22.3602C88.1902 22.4941 87.9798 22.6088 87.712 22.6088C87.1764 22.6088 87.1382 22.4941 87.4442 21.7098L87.6546 21.1742L87.9033 21.6524C88.0563 21.9202 88.1711 22.2454 88.1902 22.3602Z" fill="#161616"/>
<path d="M89.7212 22.2071V23.9478H90.8689C91.5001 23.9478 92.0165 23.8712 92.0165 23.7565C92.0165 23.6417 91.634 23.5652 91.1558 23.5652H90.3141L90.2568 22.0924C90.2185 21.136 90.1229 20.6004 89.9699 20.543C89.7786 20.4856 89.7212 20.9065 89.7212 22.2071Z" fill="#161616"/>
<path d="M92.5898 22.2071C92.5898 23.6417 92.6472 23.9478 92.8768 23.9478C93.1254 23.9478 93.1637 23.68 93.1254 22.2836C93.0872 21.1742 92.9915 20.6004 92.8385 20.543C92.6472 20.4856 92.5898 20.9065 92.5898 22.2071Z" fill="#161616"/>
<path d="M93.9292 22.2263C93.9292 23.24 94.0057 23.9478 94.1205 23.9478C94.2352 23.9478 94.3118 23.6991 94.3118 23.3931C94.3118 23.087 94.4456 22.7236 94.6178 22.5897C94.8856 22.3793 95.0003 22.4367 95.4785 22.9914C95.7846 23.3548 96.0332 23.7182 96.0332 23.7947C96.0332 23.8904 96.2054 23.9478 96.4158 23.9478C96.7792 23.9478 96.741 23.8521 96.1289 23.0679C95.7655 22.5706 95.4594 22.0541 95.4594 21.9202C95.4594 21.7863 95.7272 21.4803 96.0332 21.2316C96.6453 20.7917 96.7601 20.5048 96.3584 20.5048C96.2245 20.5048 95.7655 20.8491 95.3638 21.2699C94.9621 21.6907 94.5413 22.035 94.4648 22.035C94.3883 22.035 94.3118 21.6907 94.3118 21.2699C94.3118 20.8491 94.2352 20.5048 94.1205 20.5048C94.0057 20.5048 93.9292 21.2125 93.9292 22.2263Z" fill="#161616"/>
<path d="M97.1804 22.2263V23.9478H98.2324C99.6288 23.9478 100.05 23.5461 100.05 22.2454C100.05 21.0021 99.4757 20.5048 98.1177 20.5048H97.1804V22.2263ZM99.4375 21.4229C100.069 22.2645 99.4566 23.5652 98.4046 23.5652H97.7543V22.2071V20.8491L98.4811 20.983C98.8637 21.0403 99.3036 21.2508 99.4375 21.4229Z" fill="#161616"/>
<path d="M101.599 20.9258C101.503 21.1744 101.217 21.9204 100.93 22.5899C100.337 24.0436 100.356 23.9479 100.719 23.9479C100.872 23.9479 101.044 23.7375 101.121 23.4697C101.217 23.0489 101.35 22.9915 102.058 22.9915C102.766 22.9915 102.9 23.0489 102.995 23.4697C103.072 23.7375 103.263 23.9479 103.416 23.9479C103.588 23.9479 103.684 23.8332 103.627 23.6993C102.441 20.658 101.963 19.9885 101.599 20.9258ZM102.536 22.4368C102.536 22.5325 102.326 22.609 102.058 22.609C101.523 22.609 101.503 22.5325 101.79 21.6526L102.02 21.0405L102.269 21.6526C102.422 21.9969 102.536 22.3412 102.536 22.4368Z" fill="#161616"/>
<path d="M104.832 20.6004C104.832 20.6578 105.138 21.1551 105.501 21.7098C105.922 22.341 106.17 22.934 106.17 23.3165C106.17 23.6608 106.266 23.9478 106.362 23.9478C106.477 23.9478 106.553 23.6417 106.553 23.2783C106.553 22.8192 106.763 22.3219 107.223 21.6716C107.586 21.1742 107.892 20.6961 107.892 20.6195C107.892 20.2944 107.452 20.5813 106.955 21.2699C106.457 21.9776 106.4 21.9967 106.132 21.6907C105.96 21.5185 105.731 21.1742 105.616 20.9256C105.425 20.5622 104.832 20.3135 104.832 20.6004Z" fill="#161616"/>
<path d="M108.466 21.8247C108.466 23.4888 108.543 23.6993 109.346 23.9479C109.843 24.1201 110.111 24.1009 110.513 23.9097C111.029 23.661 111.048 23.5845 111.106 22.0734C111.144 21.0788 111.087 20.5049 110.953 20.5049C110.838 20.5049 110.761 21.0405 110.761 21.8056C110.761 23.2402 110.57 23.5654 109.767 23.5654C109.078 23.5654 108.849 23.1063 108.849 21.6717C108.849 21.0214 108.772 20.5049 108.657 20.5049C108.543 20.5049 108.466 21.0788 108.466 21.8247Z" fill="#161616"/>
<path d="M112.023 20.6387C111.966 20.6961 111.908 21.4803 111.908 22.3602C111.908 23.6417 111.966 23.9478 112.195 23.9478C112.387 23.9478 112.482 23.7565 112.482 23.4122C112.482 22.9149 112.769 22.4175 113.075 22.4175C113.133 22.4175 113.42 22.7618 113.706 23.1826C113.974 23.6035 114.338 23.9478 114.491 23.9478C114.892 23.9478 114.854 23.833 114.108 22.8575L113.42 21.9585L114.051 21.3273C114.95 20.39 114.529 20.2944 113.573 21.2316C113.113 21.6716 112.693 22.035 112.616 22.035C112.54 22.035 112.482 21.7481 112.482 21.3846C112.482 20.7343 112.272 20.39 112.023 20.6387Z" fill="#161616"/>
<path d="M115.696 20.7153C115.295 20.9449 115.237 21.7482 115.582 21.9778C115.715 22.0543 116.175 22.2647 116.595 22.4177C117.131 22.6281 117.36 22.8194 117.36 23.0872C117.36 23.661 116.27 23.7184 115.754 23.1637C115.314 22.6855 114.97 22.8194 115.276 23.3358C115.83 24.2157 117.227 24.2922 117.762 23.4506C118.202 22.8003 117.839 22.2838 116.729 21.9778C115.792 21.6909 115.601 21.3657 116.175 21.0023C116.423 20.8492 116.634 20.8684 117.112 21.1362C117.82 21.5378 118.03 21.4231 117.552 20.8875C117.169 20.4667 116.251 20.3902 115.696 20.7153Z" fill="#161616"/>
<path d="M119.273 21.3084C118.202 23.9672 118.221 23.948 118.508 23.948C118.661 23.948 118.833 23.7376 118.91 23.4699C119.005 23.049 119.139 22.9917 119.866 22.9917C120.593 22.9917 120.708 23.049 120.822 23.4699C120.937 23.9098 121.473 24.1776 121.473 23.795C121.473 23.3551 120.115 20.6007 119.885 20.5433C119.713 20.5051 119.483 20.792 119.273 21.3084ZM120.325 22.3604C120.325 22.4943 120.115 22.6091 119.847 22.6091C119.292 22.6091 119.292 22.5709 119.598 21.691L119.847 21.0406L120.076 21.5762C120.21 21.8823 120.306 22.2457 120.325 22.3604Z" fill="#161616"/>
<path d="M121.97 20.6387C121.912 20.6961 121.855 21.4803 121.855 22.3602V23.9478H123.003C123.634 23.9478 124.15 23.8712 124.15 23.7565C124.15 23.6417 123.768 23.5652 123.29 23.5652H122.429V22.1498C122.429 20.8299 122.276 20.3326 121.97 20.6387Z" fill="#161616"/>
<path d="M124.859 20.6387C124.782 20.696 124.725 21.4803 124.725 22.3602C124.725 23.6417 124.782 23.9478 125.012 23.9478C125.241 23.9478 125.298 23.6226 125.298 22.2263C125.298 20.6387 125.203 20.2944 124.859 20.6387Z" fill="#161616"/>
<path d="M126.37 20.8112C126.006 21.1746 125.968 21.7676 126.293 21.978C126.427 22.0545 126.886 22.2649 127.307 22.4179C127.843 22.6283 128.072 22.8196 128.072 23.0874C128.072 23.6612 126.944 23.7378 126.599 23.2022C126.351 22.8005 125.873 22.6475 125.873 22.9726C125.873 23.0683 126.026 23.3361 126.217 23.5656C126.676 24.1394 128.091 24.1777 128.493 23.6421C129.048 22.8961 128.742 22.3988 127.479 21.9589C126.963 21.7867 126.733 21.5955 126.733 21.3468C126.733 20.8877 127.613 20.7538 127.977 21.1555C128.283 21.5381 128.55 21.5381 128.55 21.1746C128.55 20.5434 126.905 20.2565 126.37 20.8112Z" fill="#161616"/>
<path d="M129.449 20.6387C129.372 20.696 129.315 21.4803 129.315 22.3602C129.315 23.6417 129.372 23.9478 129.602 23.9478C129.812 23.9478 129.889 23.7373 129.889 23.1826V22.4175H130.845H131.802V23.1826C131.802 23.6035 131.897 23.9478 131.993 23.9478C132.108 23.9478 132.184 23.24 132.184 22.2263C132.184 20.543 131.878 19.8162 131.763 21.2125C131.706 21.9393 131.706 21.9393 130.845 21.9393C129.984 21.9393 129.984 21.9393 129.927 21.2125C129.87 20.543 129.717 20.3518 129.449 20.6387Z" fill="#161616"/>
<path d="M134.575 20.9639C134.155 21.6143 134.461 22.169 135.36 22.3411C136.22 22.4942 136.68 22.9341 136.373 23.2975C136.048 23.6992 135.092 23.6227 134.824 23.1827C134.518 22.7046 134.289 22.6854 134.289 23.1636C134.289 24.1965 136.546 24.4069 136.871 23.3932C137.1 22.6663 136.794 22.2646 135.857 21.9968C134.824 21.6908 134.537 21.1743 135.341 20.9639C135.685 20.8874 135.953 20.9448 136.201 21.1743C136.737 21.6717 137.139 21.4421 136.622 20.9257C136.029 20.3327 134.977 20.3519 134.575 20.9639Z" fill="#161616"/>
<path d="M138.515 20.8299C138.248 21.3655 137.349 23.6226 137.349 23.7947C137.349 24.139 137.75 23.9286 137.961 23.4696C138.133 23.087 138.305 22.9914 138.917 22.9914C139.529 22.9914 139.682 23.0679 139.835 23.4696C139.931 23.7373 140.141 23.9477 140.313 23.9477C140.639 23.9477 140.6 23.8139 139.682 21.7863C139.07 20.4665 138.821 20.2561 138.515 20.8299ZM139.128 21.595C139.166 21.7863 139.281 22.0924 139.357 22.2645C139.472 22.5514 139.395 22.6088 138.879 22.6088C138.362 22.6088 138.286 22.5514 138.401 22.2645C138.477 22.0924 138.592 21.7863 138.63 21.595C138.688 21.4229 138.802 21.2699 138.879 21.2699C138.955 21.2699 139.07 21.4229 139.128 21.595Z" fill="#161616"/>
<path d="M140.983 22.2264C140.983 23.9096 141.289 24.6365 141.404 23.2402C141.48 22.169 142.035 22.1499 142.915 23.1828C143.795 24.1965 144.254 24.1392 143.546 23.1254L143.049 22.3794L143.45 22.1116C144.426 21.423 143.603 20.5049 141.997 20.5049H140.983V22.2264ZM143.163 21.3274C143.431 21.7673 143.049 22.0351 142.169 22.0351C141.518 22.0351 141.232 21.71 141.442 21.1552C141.595 20.7536 142.877 20.8683 143.163 21.3274Z" fill="#161616"/>
<path d="M144.617 22.2263C144.617 23.24 144.694 23.9478 144.809 23.9478C144.923 23.9478 145 23.24 145 22.2263C145 21.2125 144.923 20.5048 144.809 20.5048C144.694 20.5048 144.617 21.2125 144.617 22.2263Z" fill="#161616"/>
<path d="M13.1111 3.4355C12.4909 5.32889 11.1524 8.72392 10.1078 11.0417C7.72477 16.3627 7.72477 16.428 10.9566 16.1995L13.6334 16.0037L16.8326 8.49541C20.652 -0.579777 20.652 0.00782394 17.1264 0.00782394H14.221L13.1111 3.4355Z" fill="#161616"/>
<path d="M5.70093 5.39391C5.37448 6.21003 3.90548 9.63771 2.43647 13.0654C-0.827987 20.6716 -0.860631 20.2472 2.63234 20.2472C5.50506 20.2472 5.53771 20.2145 6.64762 17.146C7.26787 15.4484 8.63894 11.9881 9.65092 9.47448C12.0013 3.76169 12.0013 3.92491 8.9001 3.92491C6.74556 3.92491 6.15795 4.21871 5.70093 5.39391Z" fill="#161616"/>
</svg>
