<svg width="140" height="24" viewBox="0 0 140 24" fill="none" xmlns="http://www.w3.org/2000/svg">
<path opacity="0.935" fill-rule="evenodd" clip-rule="evenodd" d="M9.21046 0.0370372C10.3879 -0.0935683 11.4932 0.121222 12.5262 0.681775C13.3034 1.58441 13.4569 2.59757 12.9868 3.72125C11.4011 5.90802 9.28267 6.67563 6.63151 6.02389C5.20959 5.13507 4.87193 3.9377 5.61835 2.43178C6.07391 1.85336 6.59577 1.33149 7.18414 0.865986C7.88543 0.602933 8.56093 0.326617 9.21046 0.0370372ZM11.2368 1.1423C10.8516 1.17583 10.4832 1.1143 10.1315 0.958091C9.29059 1.09607 8.49222 1.31104 7.73677 1.60283C8.84333 0.764486 10.0101 0.611038 11.2368 1.1423Z" fill="#161616"/>
<path opacity="0.716" fill-rule="evenodd" clip-rule="evenodd" d="M13.8159 3.53711C14.0226 3.86648 14.0533 4.2349 13.908 4.64237C12.4599 6.7934 10.4644 7.59177 7.92114 7.03712C9.71167 6.84019 11.3082 6.19546 12.7106 5.1029C13.1489 4.62414 13.5173 4.10208 13.8159 3.53711Z" fill="#161616"/>
<path opacity="0.965" fill-rule="evenodd" clip-rule="evenodd" d="M1.47373 5.56346C2.70794 5.50267 3.93589 5.56401 5.15794 5.74767C5.86199 7.24549 7.05936 7.98233 8.75005 7.9582C10.8053 7.86665 12.5553 7.09904 14 5.65557C14.9824 5.5327 15.965 5.5327 16.9474 5.65557C17.4006 5.92415 17.7998 6.2618 18.1448 6.66873C18.4473 11.8767 18.5086 17.096 18.329 22.3267C18.0346 23.1738 17.4512 23.6957 16.579 23.8924C11.6667 24.0153 6.7545 24.0153 1.84215 23.8924C1.0296 23.6327 0.446204 23.1108 0.0921513 22.3267C-0.0307171 17.2916 -0.0307171 12.2564 0.0921513 7.22136C0.394625 6.52136 0.855151 5.96873 1.47373 5.56346ZM7.36847 9.24768C8.65794 9.24768 9.94742 9.24768 11.2369 9.24768C11.2061 12.2571 11.2369 15.2658 11.329 18.274C12.1397 18.4521 12.9687 18.5135 13.8158 18.4582C13.8542 18.904 13.7926 19.3338 13.6316 19.7477C10.6843 19.9933 7.73689 19.9933 4.78952 19.7477C4.55373 19.3421 4.55373 18.9431 4.78952 18.5503C5.58549 18.4584 6.38368 18.4276 7.18426 18.4582C7.12568 15.3738 7.18702 12.3036 7.36847 9.24768Z" fill="#161616"/>
<path opacity="0.946" fill-rule="evenodd" clip-rule="evenodd" d="M73.5 6.853C77.0076 6.77545 80.5076 6.86756 84 7.12932C86.0223 7.77019 87.0047 9.15177 86.9474 11.2741C86.9929 12.0553 86.8392 12.7921 86.4868 13.4846C86.0263 13.9451 85.5658 14.4056 85.1053 14.8662C86.9243 15.6493 87.8454 17.0308 87.8684 19.0109C87.6713 22.002 86.075 23.6291 83.0789 23.8925C79.8866 23.9846 76.6937 24.0154 73.5 23.9846C73.5 18.2741 73.5 12.5635 73.5 6.853ZM77.1842 9.98459C78.8432 9.95401 80.5011 9.98459 82.1579 10.0767C83.4273 10.5847 83.7651 11.4752 83.1711 12.7478C82.8802 13.0316 82.5423 13.2466 82.1579 13.3925C80.5011 13.4846 78.8432 13.5152 77.1842 13.4846C77.1842 12.318 77.1842 11.1512 77.1842 9.98459ZM77.1842 16.6162C79.0996 16.5427 81.0033 16.6348 82.8947 16.8925C83.73 17.2346 84.0984 17.8487 84 18.7346C84.0621 19.8951 83.5095 20.5706 82.3421 20.7609C80.624 20.853 78.9046 20.8836 77.1842 20.853C77.1842 19.4407 77.1842 18.0285 77.1842 16.6162Z" fill="#161616"/>
<path opacity="0.957" fill-rule="evenodd" clip-rule="evenodd" d="M95.4214 6.85278C96.7108 6.85278 98.0003 6.85278 99.2898 6.85278C101.5 12.5613 103.71 18.2718 105.921 23.9844C104.63 24.015 103.341 23.9844 102.053 23.8923C101.51 22.6831 101.018 21.455 100.579 20.2081C98.3697 20.116 96.1591 20.0852 93.9477 20.116C93.5925 21.3653 93.1628 22.5934 92.6582 23.8002C91.3746 23.9838 90.0852 24.0452 88.7898 23.9844C90.9265 18.2503 93.137 12.5397 95.4214 6.85278ZM97.0793 11.4581C97.1929 11.4785 97.285 11.5398 97.3556 11.6423C97.9502 13.3836 98.595 15.1028 99.2898 16.8002C97.939 17.0457 96.588 17.0457 95.2372 16.8002C95.927 15.0375 96.541 13.2567 97.0793 11.4581Z" fill="#161616"/>
<path opacity="0.955" fill-rule="evenodd" clip-rule="evenodd" d="M107.579 6.85302C108.793 6.79573 109.99 6.85708 111.171 7.03723C113.32 10.5372 115.469 14.0372 117.619 17.5373C117.711 13.9765 117.741 10.4149 117.711 6.85302C118.877 6.85302 120.044 6.85302 121.211 6.85302C121.241 12.5024 121.211 18.1516 121.119 23.8004C119.936 24.011 118.739 24.0417 117.526 23.8925C115.277 20.408 113.097 16.8774 110.987 13.3004C110.895 16.8612 110.864 20.4227 110.895 23.9846C109.79 23.9846 108.684 23.9846 107.579 23.9846C107.579 18.2741 107.579 12.5636 107.579 6.85302Z" fill="#161616"/>
<path opacity="0.937" fill-rule="evenodd" clip-rule="evenodd" d="M124.526 6.85276C125.755 6.85276 126.983 6.85276 128.211 6.85276C128.149 9.18929 128.211 11.5227 128.395 13.8528C130.511 11.5824 132.599 9.27974 134.658 6.94487C136.319 6.7916 137.977 6.82237 139.632 7.03697C137.515 9.18395 135.428 11.3639 133.369 13.5765C135.655 17.0175 137.866 20.4869 140 23.9844C138.464 24.0149 136.929 23.9844 135.395 23.8923C133.852 21.3286 132.286 18.7804 130.697 16.2475C129.899 17.0457 129.101 17.8441 128.303 18.6423C128.211 20.4219 128.18 22.2027 128.211 23.9844C126.997 24.0417 125.799 23.9803 124.619 23.8002C124.526 18.1513 124.496 12.5021 124.526 6.85276Z" fill="#161616"/>
<path opacity="0.937" fill-rule="evenodd" clip-rule="evenodd" d="M51.763 6.85277C53.7674 6.73819 54.6577 7.65924 54.4341 9.61593C54.0398 10.7188 53.2722 11.118 52.1314 10.8133C51.8271 10.5425 51.6429 10.2049 51.5788 9.80014C51.9128 9.2208 52.1583 8.60682 52.3156 7.95803C51.4939 8.01146 50.9718 8.44122 50.7498 9.24751C50.4236 10.3951 50.2088 11.5619 50.1051 12.7475C50.9057 12.7169 51.7039 12.7477 52.4998 12.8396C52.3598 13.1051 52.2372 13.3814 52.1314 13.6686C51.2936 13.796 50.4647 13.9189 49.6446 14.037C48.9978 16.44 48.3223 18.8348 47.6183 21.2212C47.4954 21.7738 47.4954 22.3265 47.6183 22.8791C47.9312 23.046 48.2691 23.1074 48.6314 23.0633C48.6314 23.3704 48.6314 23.6773 48.6314 23.9844C46.728 23.9844 44.8243 23.9844 42.9209 23.9844C42.9209 23.6773 42.9209 23.3704 42.9209 23.0633C44.1938 23.2334 44.8999 22.6807 45.0393 21.4054C45.7474 18.9136 46.4535 16.4268 47.1577 13.9449C46.6703 13.8533 46.179 13.8226 45.6841 13.8528C45.64 13.4904 45.7014 13.1526 45.8683 12.8396C46.4176 12.7479 46.9702 12.7171 47.5262 12.7475C47.8248 10.7076 48.6843 8.95756 50.1051 7.49751C50.6708 7.25877 51.2235 7.04398 51.763 6.85277Z" fill="#161616"/>
<path opacity="0.944" fill-rule="evenodd" clip-rule="evenodd" d="M26.8944 7.22144C29.1663 7.22144 31.4384 7.22144 33.7102 7.22144C33.7497 7.52428 33.6881 7.80059 33.526 8.05038C32.9874 8.23238 32.4348 8.35507 31.8681 8.41881C31.5843 8.70968 31.3693 9.04752 31.2234 9.43197C30.2546 13.198 29.2107 16.9437 28.0918 20.6688C27.8881 21.336 27.8267 22.0115 27.9076 22.6951C28.3904 22.9698 28.9125 23.0927 29.4734 23.0636C29.4879 23.327 29.4266 23.5727 29.2892 23.8004C27.0206 23.9844 24.7486 24.0458 22.4734 23.9846C22.4734 23.6775 22.4734 23.3706 22.4734 23.0636C23.878 23.2936 24.7683 22.741 25.1444 21.4057C26.2805 17.2609 27.4163 13.1162 28.5523 8.97144C28.5109 8.67283 28.3574 8.45786 28.0918 8.3267C27.6379 8.20494 27.1774 8.11283 26.7102 8.05038C26.8723 7.80059 26.9339 7.52428 26.8944 7.22144Z" fill="#161616"/>
<path opacity="0.907" fill-rule="evenodd" clip-rule="evenodd" d="M56.7369 7.22116C58.3475 7.0801 58.8693 7.75539 58.3027 9.24685C57.5847 10.1626 56.7251 10.3468 55.7238 9.79931C55.2273 8.60876 55.5652 7.74931 56.7369 7.22116Z" fill="#161616"/>
<path opacity="0.938" fill-rule="evenodd" clip-rule="evenodd" d="M39.789 12.3791C42.362 12.2186 43.3752 13.3852 42.8284 15.8791C42.2217 17.9923 41.6383 20.1107 41.0784 22.2343C41.0655 22.9697 41.434 23.246 42.1837 23.0633C42.2231 23.3661 42.1616 23.6424 41.9995 23.8922C40.1585 23.9843 38.3164 24.0149 36.4732 23.9843C36.4732 23.6773 36.4732 23.3704 36.4732 23.0633C37.1391 23.1174 37.7225 22.9332 38.2232 22.5106C39.0225 20.0207 39.7285 17.5031 40.3416 14.958C40.3278 14.1768 39.9288 13.8083 39.1442 13.8527C37.9557 14.2348 37.0347 14.9716 36.3811 16.0633C35.6929 18.1229 35.1097 20.2106 34.6311 22.3264C34.8018 22.9688 35.2316 23.2143 35.9205 23.0633C35.9351 23.3267 35.8738 23.5724 35.7363 23.8001C33.8358 24.0149 31.9322 24.0455 30.0258 23.8922C29.94 23.6529 29.94 23.3766 30.0258 23.0633C30.7059 23.1607 31.2891 22.9765 31.7758 22.5106C32.6431 19.8711 33.4105 17.2 34.0784 14.4975C33.8924 13.9063 33.4626 13.63 32.789 13.6685C32.7495 13.3657 32.8111 13.0894 32.9732 12.8396C34.3888 12.7746 35.8012 12.6824 37.21 12.5633C37.0872 12.9904 37.0564 13.4204 37.1179 13.8527C37.8767 13.0903 38.767 12.599 39.789 12.3791Z" fill="#161616"/>
<path opacity="0.937" fill-rule="evenodd" clip-rule="evenodd" d="M56.5522 12.5635C56.7978 12.5635 57.0435 12.5635 57.2891 12.5635C56.5027 15.8621 55.6432 19.1472 54.7101 22.4188C54.9461 22.9795 55.3761 23.1943 55.9996 23.0635C56.039 23.3663 55.9775 23.6427 55.8154 23.8924C53.9129 23.9845 52.0094 24.0151 50.1049 23.9845C50.0903 23.7211 50.1517 23.4754 50.2891 23.2477C51.0615 23.197 51.7062 22.89 52.2233 22.3267C52.918 19.6823 53.624 17.0418 54.3417 14.4056C54.171 13.7632 53.7412 13.5177 53.0522 13.6687C53.0377 13.4053 53.099 13.1596 53.2365 12.9319C54.3701 12.809 55.4754 12.6863 56.5522 12.5635Z" fill="#161616"/>
<path opacity="0.939" fill-rule="evenodd" clip-rule="evenodd" d="M66.3154 12.3792C67.2265 12.3955 68.0862 12.6103 68.8943 13.0239C69.3996 13.7167 69.553 14.4843 69.3548 15.3265C68.7103 17.659 68.0655 19.9922 67.4206 22.3265C67.5991 22.9689 68.0289 23.2144 68.7101 23.0634C68.7247 23.3268 68.6633 23.5725 68.5259 23.8002C66.6263 23.9843 64.7229 24.0456 62.8154 23.9844C62.7864 23.7315 62.8172 23.4858 62.9075 23.2476C64.0905 23.1699 64.8273 22.5559 65.118 21.4055C65.7388 19.236 66.322 17.0563 66.868 14.866C66.7442 14.1887 66.345 13.851 65.6706 13.8528C64.1767 14.2402 63.1328 15.1613 62.539 16.616C62.0172 18.5502 61.4951 20.4844 60.9733 22.4186C61 22.5609 61.0613 22.6837 61.1575 22.7871C61.5819 22.9519 62.0118 23.1056 62.4469 23.2476C62.3095 23.4753 62.2482 23.721 62.2627 23.9844C60.2978 23.9844 58.333 23.9844 56.368 23.9844C56.3286 23.6816 56.3901 23.4053 56.5522 23.1555C57.45 23.1524 58.0948 22.7532 58.4864 21.9581C59.1619 19.5634 59.8372 17.1686 60.5127 14.7739C60.6454 14.4769 60.6148 14.2006 60.4206 13.9449C59.9794 13.8195 59.5497 13.6659 59.1312 13.4844C59.2686 13.2567 59.3299 13.011 59.3154 12.7476C60.733 12.7745 62.1452 12.7131 63.5522 12.5634C63.1088 13.8845 63.3544 14.0995 64.289 13.2081C64.9435 12.8174 65.619 12.5411 66.3154 12.3792Z" fill="#161616"/>
</svg>
