<svg width="114" height="25" viewBox="0 0 114 25" fill="none" xmlns="http://www.w3.org/2000/svg">
<path opacity="0.967" fill-rule="evenodd" clip-rule="evenodd" d="M8.32943 0.9021C8.67622 0.9021 9.02317 0.9021 9.36996 0.9021C9.36996 1.99213 9.36996 3.08231 9.36996 4.17234C6.25714 4.48539 4.47337 6.19484 4.01866 9.30067C4.39979 12.4813 6.18356 14.2404 9.36996 14.5777C12.569 14.2282 14.3033 12.4444 14.5726 9.22635C15.6131 9.22635 16.6537 9.22635 17.6942 9.22635C17.7172 12.5082 16.3794 15.0599 13.6807 16.8817C10.3372 18.5355 7.11647 18.3374 4.01866 16.2871C1.32636 13.8583 0.360151 10.8607 1.12004 7.29393C2.25362 3.70648 4.65665 1.57592 8.32943 0.9021Z" fill="#161616"/>
<path opacity="0.961" fill-rule="evenodd" clip-rule="evenodd" d="M64.3696 1.19922C64.5182 1.19922 64.6669 1.19922 64.8155 1.19922C64.3611 3.18143 63.8903 5.16334 63.4034 7.14511C63.2873 7.6407 63.2378 8.13614 63.2547 8.63158C64.0194 7.62405 64.8369 6.65784 65.7074 5.73296C66.701 5.67499 67.6918 5.60066 68.6803 5.50999C68.7037 5.71408 68.6789 5.91238 68.606 6.10458C67.5084 7.12757 66.4927 8.2176 65.5588 9.37482C66.1838 11.0519 66.7784 12.7365 67.3425 14.4288C66.3062 14.5787 65.2656 14.6035 64.2209 14.5031C63.757 13.068 63.2367 11.6558 62.6601 10.2667C62.3777 11.654 62.1052 13.0414 61.8426 14.4288C60.8569 14.5524 59.8659 14.6019 58.8696 14.5775C59.8311 10.2851 60.723 5.97436 61.5453 1.64516C62.5261 1.62658 63.4674 1.47793 64.3696 1.19922Z" fill="#161616"/>
<path opacity="0.969" fill-rule="evenodd" clip-rule="evenodd" d="M81.9096 1.19922C82.1078 1.19922 82.3061 1.19922 82.5042 1.19922C82.156 2.8382 81.8338 4.47332 81.538 6.10458C83.1193 5.19188 84.5811 5.34053 85.9231 6.55052C86.2611 6.87948 86.4841 7.27577 86.592 7.7397C86.9913 11.1324 85.5792 13.3373 82.3556 14.3545C80.7735 14.5095 79.1881 14.5839 77.5989 14.5775C78.4908 10.2661 79.4075 5.95534 80.3489 1.64516C80.8855 1.50424 81.4057 1.3556 81.9096 1.19922ZM82.8015 6.99646C83.9892 7.09398 84.6333 7.73821 84.7339 8.92888C84.3278 11.7368 82.6927 13.1241 79.8286 13.091C80.1761 11.3538 80.5477 9.61949 80.9434 7.88835C81.5053 7.44612 82.1247 7.14883 82.8015 6.99646Z" fill="#161616"/>
<path opacity="0.961" fill-rule="evenodd" clip-rule="evenodd" d="M109.707 1.19922C109.856 1.19922 110.004 1.19922 110.153 1.19922C109.713 3.72028 109.168 6.2226 108.518 8.70591C108.543 8.78023 108.567 8.85455 108.592 8.92888C109.612 7.90916 110.628 6.8933 111.639 5.88161C112.388 5.75838 113.131 5.7832 113.869 5.95593C112.63 7.14511 111.392 8.33429 110.153 9.52347C110.995 11.1091 111.838 12.6946 112.68 14.2802C111.961 14.5641 111.218 14.6384 110.45 14.5031C109.735 13.0562 109.016 11.5946 108.295 10.1181C107.846 11.5182 107.524 12.9551 107.329 14.4288C106.639 14.522 105.945 14.5715 105.248 14.5775C106.211 10.3282 107.127 6.06712 107.998 1.79381C108.545 1.52535 109.115 1.3272 109.707 1.19922Z" fill="#161616"/>
<path opacity="0.938" fill-rule="evenodd" clip-rule="evenodd" d="M25.1267 1.49658C25.2754 1.49658 25.424 1.49658 25.5727 1.49658C25.4793 2.38995 25.2812 3.25701 24.9781 4.09791C23.9894 4.29219 22.9984 4.46566 22.0051 4.61817C22.0369 3.69805 22.2104 2.80616 22.5254 1.94252C23.4033 1.76905 24.2705 1.62041 25.1267 1.49658Z" fill="#161616"/>
<path opacity="0.955" fill-rule="evenodd" clip-rule="evenodd" d="M13.2345 2.53737C15.5833 2.43287 16.4999 3.52305 15.9845 5.80761C15.7615 6.22873 15.4394 6.55085 15.0183 6.77382C13.1532 7.27892 12.0632 6.58534 11.748 4.69276C11.863 3.68984 12.3585 2.97142 13.2345 2.53737Z" fill="#161616"/>
<path opacity="0.961" fill-rule="evenodd" clip-rule="evenodd" d="M49.3558 2.68604C49.5045 2.68604 49.6531 2.68604 49.8018 2.68604C49.6458 3.64972 49.398 4.59125 49.0585 5.51033C49.645 5.65764 50.2395 5.70714 50.8423 5.65898C50.6723 6.33607 50.474 7.00498 50.2477 7.66572C49.7049 7.73989 49.1599 7.76457 48.6126 7.74004C48.4069 8.99121 48.1344 10.2299 47.795 11.4562C47.6856 12.6692 48.1811 12.9665 49.2815 12.3481C49.4108 12.4385 49.4852 12.5623 49.5045 12.7197C49.3208 13.2959 49.1225 13.8658 48.9099 14.4292C47.7625 14.8397 46.6228 14.8151 45.491 14.3548C44.9822 13.9566 44.6849 13.4364 44.5991 12.7941C44.9452 11.1109 45.2921 9.4263 45.6397 7.74004C45.2929 7.74004 44.9459 7.74004 44.5991 7.74004C44.6045 7.07425 44.7283 6.43016 44.9707 5.80763C45.3749 5.6673 45.796 5.61781 46.2342 5.65898C46.3575 4.89315 46.5558 4.14991 46.8288 3.42927C47.7044 3.23588 48.5467 2.98809 49.3558 2.68604Z" fill="#161616"/>
<path opacity="0.956" fill-rule="evenodd" clip-rule="evenodd" d="M23.9375 5.36151C24.2719 5.31409 24.5692 5.38841 24.8294 5.58448C24.0335 8.49574 23.3894 11.444 22.8969 14.429C22.2814 14.5047 21.662 14.5542 21.0389 14.5776C20.5401 14.5962 20.0694 14.5219 19.6267 14.3547C20.3589 11.586 20.9784 8.78649 21.4848 5.9561C22.3148 5.75037 23.1324 5.55222 23.9375 5.36151Z" fill="#161616"/>
<path opacity="0.97" fill-rule="evenodd" clip-rule="evenodd" d="M28.8427 5.36133C29.0606 5.48723 29.1846 5.68538 29.2143 5.95592C31.0913 4.93858 32.5777 5.33487 33.6737 7.1451C34.4474 10.5775 33.2334 12.9807 30.0319 14.3545C29.0987 14.5311 28.1571 14.6054 27.2076 14.5775C26.936 15.9113 26.6883 17.2491 26.4643 18.5909C25.4645 18.5471 24.4736 18.5966 23.4914 18.7396C23.3427 18.6901 23.2436 18.5909 23.1941 18.4423C24.3217 14.3283 25.2136 10.1662 25.8697 5.95592C26.885 5.78735 27.876 5.58906 28.8427 5.36133ZM29.2886 7.59104C30.2933 7.55432 30.8384 8.04991 30.9237 9.07751C30.8349 10.7226 30.042 11.8374 28.5454 12.4221C28.2481 12.5212 27.9508 12.5212 27.6535 12.4221C27.952 10.98 28.2988 9.54322 28.694 8.1113C28.8703 7.90141 29.0685 7.72794 29.2886 7.59104Z" fill="#161616"/>
<path opacity="0.964" fill-rule="evenodd" clip-rule="evenodd" d="M39.6941 5.36133C42.1597 5.37575 43.5471 6.58975 43.8562 9.00319C43.4432 13.6795 40.9657 15.4632 36.4239 14.3545C35.4815 13.9311 34.9115 13.2126 34.7144 12.1991C34.1789 8.25133 35.8388 5.97212 39.6941 5.36133ZM39.0995 7.44239C40.2796 7.23503 40.8742 7.73062 40.8833 8.92886C40.8546 10.3468 40.3592 11.5608 39.3968 12.5707C38.1483 12.9853 37.5538 12.5145 37.6131 11.1586C37.59 9.68741 38.0856 8.44873 39.0995 7.44239Z" fill="#161616"/>
<path opacity="0.955" fill-rule="evenodd" clip-rule="evenodd" d="M54.707 5.36133C58.3626 5.35969 59.6509 7.11864 58.5719 10.6383C56.8384 10.7126 55.1041 10.7375 53.3692 10.7126C53.1882 11.7151 53.5846 12.3345 54.5584 12.5707C54.9548 12.6699 55.3511 12.6699 55.7476 12.5707C56.5767 12.3689 57.3695 12.0962 58.1259 11.7532C58.0232 12.511 57.8497 13.2542 57.6057 13.9829C57.101 14.3515 56.5312 14.5745 55.8962 14.6518C54.4438 14.871 53.0563 14.6729 51.7341 14.0572C50.5932 12.9901 50.172 11.6771 50.4706 10.118C50.8244 7.56071 52.2365 5.97524 54.707 5.36133ZM54.8557 7.29374C56.0898 7.16591 56.5357 7.68617 56.1935 8.85454C55.3016 8.95369 54.4098 8.95369 53.5179 8.85454C53.8369 8.21432 54.2828 7.69405 54.8557 7.29374Z" fill="#161616"/>
<path opacity="0.964" fill-rule="evenodd" clip-rule="evenodd" d="M73.4367 5.51023C74.7755 5.48555 76.1133 5.51023 77.4502 5.58455C77.1791 7.28433 76.8075 8.99377 76.3354 10.7129C76.1024 11.9517 75.8795 13.1904 75.6665 14.4291C74.7304 14.551 73.7889 14.6005 72.8422 14.5777C72.8655 14.3736 72.8407 14.1753 72.7678 13.9831C71.6246 14.764 70.4106 14.8878 69.126 14.3547C68.1938 13.592 67.7479 12.601 67.7881 11.3818C68.0368 7.83819 69.9197 5.8811 73.4367 5.51023ZM73.1394 7.59129C73.4998 7.5455 73.8466 7.59515 74.18 7.73993C73.8296 9.16933 73.5076 10.6062 73.2138 12.0507C72.386 12.8941 71.6427 12.8445 70.9841 11.9021C70.6838 9.92579 71.4024 8.48897 73.1394 7.59129Z" fill="#161616"/>
<path opacity="0.985" fill-rule="evenodd" clip-rule="evenodd" d="M8.77504 5.51001C11.9754 5.61302 13.3876 7.24814 13.0115 10.4154C12.4606 12.1919 11.2467 13.1332 9.36963 13.2397C6.39416 12.8169 5.18016 11.1321 5.72777 8.18566C6.26602 6.72966 7.28173 5.83778 8.77504 5.51001Z" fill="#161616"/>
<path opacity="0.962" fill-rule="evenodd" clip-rule="evenodd" d="M102.126 5.51008C103.885 5.32144 104.876 6.08936 105.099 7.81411C104.836 10.0985 104.39 12.3282 103.761 14.5032C103.118 14.5774 102.474 14.6022 101.828 14.5776C102.302 12.5299 102.748 10.4736 103.166 8.4087C102.793 7.18266 102 6.83571 100.788 7.36817C100.329 7.53064 99.9574 7.80311 99.6729 8.18573C99.1848 10.2547 98.7637 12.3358 98.4094 14.4289C97.7228 14.5499 97.0291 14.5994 96.3284 14.5776C96.9444 11.8155 97.5143 9.04075 98.0378 6.25331C98.1121 6.07984 98.236 5.95602 98.4094 5.88169C98.999 5.75861 99.5936 5.68429 100.193 5.65872C100.17 5.86282 100.195 6.06111 100.268 6.25331C100.862 5.89924 101.481 5.65159 102.126 5.51008Z" fill="#161616"/>
<path opacity="0.967" fill-rule="evenodd" clip-rule="evenodd" d="M92.166 5.80762C93.603 5.80762 95.0398 5.80762 96.4768 5.80762C95.8789 8.67309 95.3092 11.5469 94.7674 14.4292C94.161 14.597 93.5418 14.6218 92.9093 14.5035C92.8162 14.392 92.7419 14.268 92.6863 14.1319C88.8539 15.3534 87.1691 13.9661 87.6323 9.96974C88.2795 7.61205 89.7906 6.22472 92.166 5.80762ZM93.2066 7.14544C93.606 7.12106 94.0024 7.14589 94.3957 7.21977C93.9434 8.80658 93.5718 10.4169 93.2809 12.0508C93.1658 12.4134 92.9429 12.686 92.612 12.8684C89.8049 13.3858 88.8882 12.2709 89.862 9.5238C90.5544 8.10972 91.6692 7.31683 93.2066 7.14544Z" fill="#161616"/>
<path opacity="0.937" fill-rule="evenodd" clip-rule="evenodd" d="M83.0987 16.8075C83.337 16.7795 83.5353 16.8539 83.6933 17.0305C83.5674 17.4345 83.4187 17.8308 83.2473 18.2196C83.5561 18.2482 83.8534 18.3225 84.1392 18.4426C84.0836 19.209 83.6872 19.556 82.95 19.4831C82.8719 20.1425 82.7232 20.7866 82.5041 21.4156C82.722 21.7362 82.9946 21.7857 83.3217 21.5642C83.3856 21.9644 83.3608 22.3608 83.2473 22.7534C82.4721 23.0092 81.7537 22.9101 81.0919 22.4561C80.9928 21.911 80.9928 21.3661 81.0919 20.821C81.2629 20.3352 81.3869 19.8397 81.4636 19.3345C81.2654 19.3345 81.0671 19.3345 80.869 19.3345C80.8107 18.6446 81.108 18.2978 81.7609 18.294C81.8111 17.944 81.8854 17.5972 81.9838 17.2534C82.3654 17.0918 82.737 16.9432 83.0987 16.8075Z" fill="#161616"/>
<path opacity="0.927" fill-rule="evenodd" clip-rule="evenodd" d="M77.896 18.2938C80.4772 18.2283 81.2948 19.4175 80.3487 21.8614C79.4709 22.9961 78.356 23.3183 77.0041 22.8276C76.6325 22.6541 76.36 22.3816 76.1865 22.01C75.7614 20.2667 76.3312 19.028 77.896 18.2938ZM78.4906 19.3344C78.7161 19.336 78.8895 19.435 79.0108 19.6317C79.1427 20.3113 79.0435 20.9554 78.7135 21.5641C78.1026 22.2193 77.731 22.0955 77.5987 21.1925C77.6457 20.4303 77.943 19.8109 78.4906 19.3344Z" fill="#161616"/>
<path opacity="0.928" fill-rule="evenodd" clip-rule="evenodd" d="M85.0315 18.2937C85.4617 18.2257 85.8333 18.3248 86.1464 18.591C87.0864 18.0668 87.8297 18.2649 88.3761 19.1856C88.7569 21.6756 87.7164 22.9143 85.2545 22.9018C85.0804 23.5753 84.907 24.2442 84.7342 24.9085C84.1914 24.9827 83.6464 25.0074 83.0991 24.9829C83.6088 22.8165 84.0548 20.6363 84.4369 18.4424C84.6746 18.4822 84.8728 18.4326 85.0315 18.2937ZM86.0721 19.4829C86.3164 19.4511 86.5394 19.5008 86.741 19.6316C87.0069 20.7351 86.6105 21.4784 85.5518 21.8613C85.5447 21.0302 85.718 20.2373 86.0721 19.4829Z" fill="#161616"/>
<path opacity="0.884" fill-rule="evenodd" clip-rule="evenodd" d="M93.0583 18.4424C93.752 18.4424 94.4456 18.4424 95.1393 18.4424C94.8889 20.0891 94.5667 21.7242 94.1731 23.3477C93.3799 24.8177 92.2156 25.1893 90.6799 24.4626C90.2728 24.0728 90.3224 23.7509 90.8286 23.4964C91.0911 23.5842 91.3389 23.7081 91.5718 23.868C92.4332 24.0815 92.9783 23.7593 93.2069 22.9018C90.8155 22.7784 90.1961 21.6387 91.3488 19.4829C91.8339 18.9681 92.4038 18.6214 93.0583 18.4424ZM93.2069 19.3343C93.5082 19.3102 93.8055 19.335 94.0988 19.4086C93.8448 20.1031 93.6713 20.8215 93.5785 21.564C93.25 21.9787 92.8288 22.1025 92.315 21.9356C91.8022 21.4394 91.7279 20.8695 92.0921 20.2262C92.4056 19.8364 92.7772 19.5391 93.2069 19.3343Z" fill="#161616"/>
<path opacity="0.883" fill-rule="evenodd" clip-rule="evenodd" d="M97.6664 18.4426C98.0303 18.3698 98.2781 18.4936 98.4096 18.8142C98.3187 19.1201 98.17 19.3926 97.9637 19.6318C97.667 19.4668 97.3945 19.5164 97.1461 19.7804C96.6574 20.7616 96.3849 21.8022 96.3286 22.902C95.898 22.9578 95.5017 22.8834 95.1394 22.679C95.5889 21.4013 95.911 20.0883 96.1056 18.7399C96.5021 18.5417 96.8983 18.5417 97.2948 18.7399C97.4427 18.6558 97.5665 18.5566 97.6664 18.4426Z" fill="#161616"/>
<path opacity="0.891" fill-rule="evenodd" clip-rule="evenodd" d="M99.7476 18.4424C101.17 18.1358 102.013 18.6809 102.275 20.0775C102.051 22.4673 100.812 23.2848 98.5584 22.5302C97.9766 21.4639 98.0014 20.3986 98.6327 19.3342C98.947 18.9446 99.3186 18.6473 99.7476 18.4424ZM100.045 19.1856C100.837 19.0854 101.183 19.4322 101.085 20.2261C101.144 21.4303 100.599 22.0002 99.4503 21.9356C99.0849 20.9144 99.2831 19.9978 100.045 19.1856Z" fill="#161616"/>
<path opacity="0.87" fill-rule="evenodd" clip-rule="evenodd" d="M103.315 18.4424C103.661 18.4424 104.008 18.4424 104.355 18.4424C104.075 19.5213 103.901 20.6113 103.835 21.7126C104.31 22.1034 104.756 22.0539 105.173 21.564C105.514 20.5469 105.737 19.5064 105.842 18.4424C106.188 18.4424 106.535 18.4424 106.882 18.4424C106.61 19.8273 106.338 21.2147 106.064 22.6045C105.882 22.6949 105.683 22.7444 105.47 22.7532C104.714 22.7206 103.946 22.6959 103.166 22.6788C102.814 22.3933 102.616 22.0217 102.571 21.564C102.796 20.5153 103.044 19.4747 103.315 18.4424Z" fill="#161616"/>
<path opacity="0.879" fill-rule="evenodd" clip-rule="evenodd" d="M108.22 18.4424C108.714 18.6392 109.21 18.6392 109.707 18.4424C110.745 18.4894 111.29 19.0343 111.342 20.0775C111.07 22.0722 109.93 22.9641 107.923 22.7532C107.84 23.4002 107.741 24.0443 107.626 24.6856C107.217 24.7321 106.821 24.6826 106.437 24.5369C106.996 22.5798 107.442 20.5978 107.774 18.591C107.966 18.6263 108.115 18.5768 108.22 18.4424ZM109.112 19.3343C110.189 19.4046 110.511 19.9497 110.078 20.9694C109.63 21.751 108.961 22.0731 108.072 21.9356C108.305 21.1751 108.528 20.4072 108.741 19.6316C108.888 19.5474 109.012 19.4483 109.112 19.3343Z" fill="#161616"/>
</svg>
