<svg width="179" height="25" viewBox="0 0 179 25" fill="none" xmlns="http://www.w3.org/2000/svg">
<path d="M32.8677 12.7846V18.613H34.661H36.432L36.4992 16.1247L36.5665 13.6364L38.3599 16.1247L40.1532 18.613H42.238C43.3589 18.613 44.3004 18.5458 44.3004 18.4785C44.3004 18.4113 43.2916 16.9093 42.0363 15.116C40.7809 13.345 39.817 11.7534 39.8842 11.5965C39.9515 11.4396 40.8257 10.3187 41.8121 9.13062L43.6503 6.95616H42.1932H40.7585L38.6513 9.57896L36.5665 12.2018L36.4992 9.57896L36.432 6.95616H34.661H32.8677V12.7846Z" fill="#161616"/>
<path d="M52.3931 7.44929C52.281 7.74071 51.1826 10.3635 49.9272 13.2777C48.6943 16.1919 47.6631 18.6354 47.6631 18.7027C47.6631 18.7699 48.2011 18.8372 48.8512 18.8372H50.0393L50.7342 17.268L51.4516 15.6764L53.3122 15.7436L55.1504 15.8109L55.7557 17.268L56.3833 18.7251L58.2888 18.7923C59.3424 18.8147 60.2167 18.7699 60.2167 18.6802C60.2167 18.5906 59.1855 15.9005 57.9525 12.7173L55.666 6.95611H54.1192C52.7293 6.95611 52.5724 7.00095 52.3931 7.44929ZM54.0071 12.269C54.3434 13.2329 54.6124 14.0847 54.6124 14.1744C54.6124 14.2865 54.0071 14.3537 53.2449 14.3537C52.2362 14.3537 51.8999 14.2865 51.9896 14.0623C52.0344 13.9278 52.3258 13.0536 52.6173 12.1569C52.8863 11.2826 53.2001 10.5428 53.2674 10.5428C53.3346 10.5428 53.6709 11.3274 54.0071 12.269Z" fill="#161616"/>
<path d="M64.0278 12.7622V18.613H65.597H67.1662V16.2817V13.9727L68.6458 13.8158C70.4167 13.6364 71.7393 13.0088 72.1877 12.1569C73.1068 10.3636 72.7929 8.61502 71.3806 7.67351C70.484 7.09066 70.3046 7.06825 67.2335 7.001L64.0278 6.91133V12.7622ZM68.9596 8.52536C69.1838 8.63744 69.4752 9.08578 69.6321 9.51171C70.1029 10.9912 69.3407 12.3138 67.7939 12.6949L67.1662 12.8294V10.5653V8.30119H67.8612C68.2422 8.30119 68.7354 8.39085 68.9596 8.52536Z" fill="#161616"/>
<path d="M76.3569 12.8966V18.8372H78.0382H79.7195V12.8966V6.95611H78.0382H76.3569V12.8966Z" fill="#161616"/>
<path d="M83.3059 7.85279V8.74948H84.8751H86.4443V13.7933V18.8372H88.0135H89.5827V13.7933V8.74948H91.1519H92.7211V7.85279V6.95611H88.0135H83.3059V7.85279Z" fill="#161616"/>
<path d="M96.0392 12.6276C94.6942 15.766 93.6182 18.4561 93.6182 18.5906C93.6182 18.7475 94.0665 18.8372 94.7614 18.8372H95.8823L96.5772 17.268L97.2722 15.6988H99.0431H100.814L101.509 17.268L102.204 18.8372H104.177H106.172L105.723 17.6491C105.477 17.0214 104.446 14.3537 103.414 11.7758L101.554 7.0682L99.9846 7.00095L98.4378 6.93369L96.0392 12.6276ZM99.9622 12.6052L100.545 14.3537H99.2C98.3033 14.3537 97.8774 14.2641 97.8774 14.0623C97.8774 13.5243 99.0655 10.5204 99.2224 10.6998C99.3121 10.7894 99.6484 11.6637 99.9622 12.6052Z" fill="#161616"/>
<path d="M110.027 12.8294L110.094 18.7251L113.636 18.7924L117.156 18.8596V17.9405V17.0438H115.25H113.345V12V6.95616H111.663H109.982L110.027 12.8294Z" fill="#161616"/>
<path d="M120.967 12.9192V18.9045L125.07 18.77C129.732 18.6355 130.651 18.4338 131.458 17.2457C131.884 16.618 131.974 16.2817 131.884 15.3851C131.772 14.0176 130.876 13.0985 129.463 12.8744L128.567 12.7174L129.441 12.3363C130.651 11.7759 131.279 10.9241 131.279 9.75838C131.279 7.56151 129.822 6.95625 124.509 6.95625H120.967V12.9192ZM127.132 9.08587C128.32 10.2516 127.491 11.888 125.742 11.888H124.778V10.2067V8.52544H125.675C126.347 8.52544 126.728 8.68236 127.132 9.08587ZM127.222 14.04C128.701 15.273 127.804 17.2681 125.787 17.2681H124.778V15.3626V13.4572H125.652C126.28 13.4572 126.751 13.6365 127.222 14.04Z" fill="#161616"/>
<path d="M139.058 7.22512C138.99 7.38204 137.914 9.93758 136.659 12.8966C135.404 15.8557 134.328 18.4112 134.26 18.5457C134.171 18.7699 134.484 18.8372 135.381 18.8372H136.592L137.309 17.268L138.004 15.6988H139.753H141.523L142.241 17.268L142.981 18.8372H144.864C145.917 18.8372 146.747 18.7475 146.747 18.613C146.747 18.5009 145.738 15.8333 144.483 12.6725L142.218 6.95611H140.694C139.685 6.95611 139.125 7.04578 139.058 7.22512ZM140.582 12.3362C140.896 13.2329 141.142 14.0623 141.142 14.1744C141.142 14.2641 140.537 14.3537 139.797 14.3537C139.058 14.3537 138.452 14.3089 138.452 14.2417C138.452 14.152 138.632 13.6812 139.618 11.0136C139.73 10.7222 139.865 10.5204 139.909 10.5877C139.977 10.6549 140.268 11.4395 140.582 12.3362Z" fill="#161616"/>
<path d="M150.333 12.8966V18.8372H151.342H152.351V15.6988C152.351 13.9727 152.418 12.5604 152.53 12.5604C152.62 12.5604 154.099 13.9727 155.825 15.6988L158.964 18.8372H160.354H161.766V12.8966V6.95611H160.757H159.748V10.3635V13.7933L156.319 10.3635L152.911 6.95611H151.611H150.333V12.8966Z" fill="#161616"/>
<path d="M166.698 12.7846V18.613H168.492H170.263L170.33 16.1247L170.397 13.6364L172.19 16.1247L173.984 18.613H176.069C177.189 18.613 178.131 18.5458 178.131 18.4785C178.131 18.3889 177.167 16.9542 175.979 15.2729C174.768 13.5916 173.76 12.0673 173.715 11.8879C173.67 11.7086 174.477 10.5205 175.553 9.2427L177.481 6.95616H176.024H174.589L172.504 9.55654L170.397 12.1345L170.33 9.55654L170.263 6.95616H168.492H166.698V12.7846Z" fill="#161616"/>
<path d="M0.219728 1.0418C0.121851 1.32145 0.093886 19.1492 0.191763 19.1492C0.247693 19.1492 0.359553 18.8835 0.443447 18.5479C0.876904 16.7721 4.40048 3.99211 5.01571 1.96465C5.15554 1.53119 5.2674 1.1257 5.2674 1.06977C5.2674 0.901976 0.275658 0.874012 0.219728 1.0418Z" fill="#161616"/>
<path d="M10.8602 0.930103L6.93115 0.972054L5.91043 4.71937C5.33715 6.7748 4.79183 8.73235 4.69396 9.08192C4.5821 9.43148 4.09271 11.1933 3.58934 12.997C3.08598 14.8008 2.58261 16.5905 2.47075 16.982C1.77162 19.3731 0.303467 24.6445 0.303467 24.7563C0.303467 24.9661 8.35736 24.9101 8.52515 24.7004C8.59506 24.6025 8.69294 24.3788 8.7209 24.183C8.76285 23.9873 9.53189 21.2187 10.4268 18.0307C11.3216 14.8427 12.594 10.3124 13.2512 7.96331C13.9084 5.61425 14.6075 3.16731 14.8033 2.51013C15.2367 1.04196 15.2507 0.916122 14.985 0.90214C14.8732 0.90214 13.0135 0.916122 10.8602 0.930103Z" fill="#161616"/>
<path d="M20.7882 0.944157L16.8591 0.97212L16.3278 2.90171C16.0481 3.9504 15.6566 5.34865 15.4888 6.00583C15.3071 6.66301 14.8037 8.45277 14.3703 9.99085C13.9228 11.5289 13.4474 13.2628 13.2936 13.836C13.0279 14.8148 11.8254 19.0935 10.7068 23.0086C10.4412 23.9454 10.2314 24.7564 10.2314 24.7983C10.2314 24.8403 12.0352 24.8683 14.2444 24.8543L18.2574 24.8123L18.4391 24.3229C18.523 24.0573 18.8307 22.9806 19.1243 21.9459C19.4039 20.9112 19.8793 19.1774 20.187 18.1007C20.8301 15.8076 21.5013 13.4166 21.6971 12.7174C21.767 12.4518 21.9907 11.6967 22.1725 11.0395C22.3682 10.3824 23.0534 7.96338 23.7105 5.65627C24.3537 3.34915 24.927 1.36363 24.9829 1.23779C25.0249 1.09796 24.9969 0.986103 24.8851 0.958139C24.7872 0.930174 22.9415 0.916191 20.7882 0.944157Z" fill="#161616"/>
<path d="M24.0184 10.3822C23.4871 12.3118 22.5922 15.5418 22.0329 17.5413C21.4596 19.5408 20.8723 21.6521 20.7045 22.2254C20.4109 23.2741 20.1313 24.183 19.9495 24.6304C19.8516 24.8681 20.0334 24.8821 22.4384 24.8821H25.0391L25.0811 15.9612C25.109 11.0673 25.095 7.01241 25.0531 6.95648C25.0111 6.90055 24.5357 8.43863 24.0184 10.3822Z" fill="#161616"/>
</svg>
