<svg width="102" height="25" viewBox="0 0 102 25" fill="none" xmlns="http://www.w3.org/2000/svg">
<path opacity="0.987" fill-rule="evenodd" clip-rule="evenodd" d="M24.3915 0.9021C24.5685 2.11702 24.657 3.37952 24.6573 4.68959C24.613 5.95209 24.5686 7.21458 24.5244 8.47708C19.8882 11.4975 15.2369 14.4876 10.5705 17.4475C10.3933 17.5361 10.216 17.5361 10.0389 17.4475C7.00451 15.2104 3.97 12.9733 0.935621 10.7363C0.84698 8.21129 0.84698 5.6863 0.935621 3.1613C4.08216 5.4225 7.22737 7.68171 10.3711 9.93892C15.0849 6.97391 19.7584 3.96173 24.3915 0.9021Z" fill="#161616"/>
<path opacity="0.974" fill-rule="evenodd" clip-rule="evenodd" d="M57.0835 7.67996C59.2102 7.65776 61.3365 7.67996 63.4624 7.7464C66.224 8.19904 67.0435 9.68294 65.921 12.1984C65.7336 12.3694 65.5343 12.5245 65.3229 12.6635C66.8074 13.3911 67.3168 14.5649 66.8512 16.1852C66.4407 17.083 65.7542 17.6368 64.7914 17.8464C62.2293 18.0391 59.6601 18.1055 57.0835 18.0457C57.0835 14.5905 57.0835 11.1352 57.0835 7.67996ZM60.1401 9.93916C61.0802 9.89411 62.0104 9.96056 62.9308 10.1385C63.6309 10.6141 63.6309 11.1015 62.9308 11.6003C62.0104 11.7783 61.0802 11.8447 60.1401 11.7997C60.1401 11.1795 60.1401 10.5594 60.1401 9.93916ZM60.1401 13.926C61.0714 13.9039 62.0017 13.926 62.9308 13.9924C63.7949 14.124 64.0607 14.5891 63.7282 15.3878C63.5734 15.5319 63.3962 15.6426 63.1966 15.7201C62.1788 15.7865 61.1599 15.8086 60.1401 15.7865C60.1401 15.1663 60.1401 14.5462 60.1401 13.926Z" fill="#161616"/>
<path opacity="0.979" fill-rule="evenodd" clip-rule="evenodd" d="M79.8085 7.6799C80.6513 7.65784 81.4929 7.6799 82.3335 7.74635C83.7751 9.40992 85.1705 11.1154 86.5196 12.8628C86.5861 11.1357 86.6083 9.40806 86.5861 7.6799C87.605 7.6799 88.6238 7.6799 89.6427 7.6799C89.6427 11.1352 89.6427 14.5904 89.6427 18.0457C88.7556 18.0677 87.8696 18.0457 86.9848 17.9792C85.5431 16.3156 84.1477 14.6102 82.7986 12.8628C82.7321 14.5899 82.71 16.3175 82.7321 18.0457C81.7132 18.0457 80.6945 18.0457 79.6756 18.0457C79.6325 14.5806 79.6769 11.1253 79.8085 7.6799Z" fill="#161616"/>
<path opacity="0.981" fill-rule="evenodd" clip-rule="evenodd" d="M32.3652 7.6797C33.2081 7.65764 34.0497 7.6797 34.8902 7.74615C35.9587 9.6787 37.1105 11.5614 38.3455 13.3942C39.4529 11.5336 40.5604 9.67312 41.6678 7.81259C42.5495 7.6801 43.4353 7.63584 44.3257 7.6797C44.3257 11.135 44.3257 14.5902 44.3257 18.0455C43.3955 18.0455 42.4652 18.0455 41.5349 18.0455C41.5081 16.4051 41.4417 14.7662 41.3356 13.1284C40.6088 14.4723 39.8336 15.7792 39.01 17.0488C38.4886 17.1541 37.9792 17.1319 37.4817 16.9823C36.7814 15.7069 36.0283 14.4666 35.2225 13.2613C35.156 14.8553 35.1338 16.4501 35.156 18.0455C34.2258 18.0455 33.2955 18.0455 32.3652 18.0455C32.3652 14.5902 32.3652 11.135 32.3652 7.6797Z" fill="#161616"/>
<path opacity="0.968" fill-rule="evenodd" clip-rule="evenodd" d="M46.1868 7.67963C47.2057 7.67963 48.2244 7.67963 49.2433 7.67963C49.2213 9.00937 49.2433 10.3383 49.3098 11.6665C50.5317 10.3563 51.7499 9.04937 52.9644 7.74608C54.0744 7.63551 55.182 7.6577 56.2867 7.81252C54.9957 9.36832 53.6667 10.8744 52.2999 12.3309C53.6665 14.2292 55.084 16.0897 56.5525 17.9125C55.3589 18.0673 54.1628 18.0895 52.9644 17.9789C52.0804 16.8073 51.1501 15.6777 50.1736 14.5901C49.8657 14.8315 49.5777 15.0973 49.3098 15.3875C49.2433 16.2723 49.2213 17.1583 49.2433 18.0454C48.2244 18.0454 47.2057 18.0454 46.1868 18.0454C46.1868 14.5901 46.1868 11.1349 46.1868 7.67963Z" fill="#161616"/>
<path opacity="0.966" fill-rule="evenodd" clip-rule="evenodd" d="M71.5689 7.67981C72.6215 7.63795 73.6624 7.6822 74.692 7.81271C76.1634 11.2195 77.6474 14.6083 79.1439 17.9791C78.0808 18.0678 77.0176 18.0678 75.9545 17.9791C75.7145 17.392 75.4487 16.8162 75.1571 16.2515C73.7403 16.1851 72.3227 16.1629 70.9045 16.1851C70.7625 16.7875 70.5411 17.3633 70.24 17.9127C69.1768 18.0898 68.1137 18.0898 67.0505 17.9127C68.5903 14.5225 70.0963 11.1117 71.5689 7.67981ZM73.0308 11.0022C73.4264 11.8746 73.8251 12.7606 74.2268 13.6601C73.4737 13.8372 72.7207 13.8372 71.9676 13.6601C72.3241 12.7707 72.6785 11.8847 73.0308 11.0022Z" fill="#161616"/>
<path opacity="0.969" fill-rule="evenodd" clip-rule="evenodd" d="M91.5034 7.6799C92.5223 7.6799 93.5411 7.6799 94.56 7.6799C94.5379 9.00964 94.56 10.3386 94.6264 11.6667C95.8447 10.36 97.0628 9.0531 98.281 7.74635C99.3876 7.6799 100.495 7.65784 101.603 7.6799C101.518 7.98024 101.363 8.24603 101.138 8.47727C99.9398 9.74202 98.766 11.0267 97.6166 12.3312C98.9831 14.2295 100.401 16.09 101.869 17.9128C100.676 18.0676 99.4795 18.0898 98.281 17.9792C97.397 16.8076 96.4668 15.678 95.4902 14.5904C95.1823 14.8317 94.8944 15.0975 94.6264 15.3878C94.56 16.2726 94.5379 17.1586 94.56 18.0457C93.5411 18.0457 92.5223 18.0457 91.5034 18.0457C91.5034 14.5904 91.5034 11.1352 91.5034 7.6799Z" fill="#161616"/>
<path opacity="0.97" fill-rule="evenodd" clip-rule="evenodd" d="M24.2583 12.8625C24.3912 12.8625 24.5241 12.8625 24.657 12.8625C24.657 16.8494 24.657 20.8362 24.657 24.823C22.1762 24.823 19.6956 24.823 17.2149 24.823C17.1927 22.3863 17.2149 19.9498 17.2813 17.5139C19.627 15.9768 21.9527 14.4263 24.2583 12.8625Z" fill="#161616"/>
<path opacity="0.978" fill-rule="evenodd" clip-rule="evenodd" d="M0.869141 15.1218C3.34124 16.8169 5.79979 18.5445 8.24478 20.3047C8.31123 21.8101 8.33342 23.3164 8.31123 24.8231C5.83049 24.8231 3.34988 24.8231 0.869141 24.8231C0.869141 21.5894 0.869141 18.3555 0.869141 15.1218Z" fill="#161616"/>
</svg>
