<svg width="83" height="24" viewBox="0 0 83 24" fill="none" xmlns="http://www.w3.org/2000/svg">
<path d="M0.0402832 5.58392V11.1877L1.6955 12.9626C3.66979 15.1164 4.02875 15.1762 4.02875 13.4013C4.02875 11.8059 4.46748 11.5666 7.45883 11.5666C11.7664 11.5666 14.0597 9.73193 14.299 6.08248C14.5982 1.2365 12.7635 7.15256e-05 5.36488 7.15256e-05H0.0402832V5.58392ZM9.67243 3.84894C11.8063 5.76341 10.1112 8.29608 6.60131 8.45562L4.22817 8.57527L4.10852 5.88306L3.98886 3.19084H6.48166C8.21664 3.19084 9.17387 3.39027 9.67243 3.84894Z" fill="#161616"/>
<path d="M45.2094 2.61225C43.8134 3.58942 43.8134 19.1444 45.1894 20.1216C46.4857 21.019 74.0659 21.0589 75.8009 20.1615C78.0943 18.965 82.9802 13.1219 83.0001 11.5464C83.0001 10.0507 79.3706 5.12498 76.7582 3.07092C75.2425 1.89432 46.8247 1.45559 45.2094 2.61225ZM56.5366 6.58077L57.3942 7.51806L58.2716 6.58077C59.4083 5.36429 60.8242 5.04521 62.4994 5.6036C64.4338 6.24175 64.6931 7.0195 64.9124 12.6034L65.0919 17.5491H63.2771H61.4624V13.401C61.4624 8.63483 61.3029 7.97673 60.1462 7.97673C58.132 7.97673 57.4739 9.39264 57.4739 13.6603V17.5889L55.7788 17.4693L54.0837 17.3496L54.2233 13.5207C54.3829 9.3727 53.984 7.97673 52.6678 7.97673C50.8531 7.97673 50.2947 9.27298 50.2947 13.5606V17.5491H48.4999H46.7051V14.7372C46.7051 8.09639 53.0866 2.79173 56.5366 6.58077ZM50.0354 5.88279C50.1351 6.04233 49.4172 6.85996 48.46 7.69754L46.7051 9.2331V7.39841V5.58365H48.2805C49.138 5.58365 49.9357 5.72325 50.0354 5.88279ZM75.2425 6.40129C76.6385 7.25881 78.0145 10.0308 77.7553 11.4268C77.6157 12.0849 77.1371 12.1846 73.5474 12.2843L69.4792 12.384L69.8781 13.4609C70.596 15.3355 72.7298 15.7941 74.0261 14.3583C74.8636 13.421 77.4163 13.2415 77.4163 14.099C77.4163 17.8881 69.5989 18.5861 67.4052 14.9964C64.1347 9.63195 70.0376 3.17063 75.2425 6.40129Z" fill="#161616"/>
<path d="M71.0745 8.0765C68.7611 9.27304 69.2198 10.3699 72.0516 10.3699C74.9632 10.3699 75.382 9.83143 73.5672 8.39558C72.3508 7.43835 72.3308 7.43835 71.0745 8.0765Z" fill="#161616"/>
<path d="M17.7089 5.36433C16.4725 5.90277 14.9768 8.01666 15.4754 8.51522C16.0936 9.15337 18.4867 8.73458 19.1647 7.89701C20.102 6.74035 22.6148 6.68052 23.4324 7.7973C24.3099 8.99384 23.931 9.75164 22.3754 9.89124C16.8913 10.33 14.7974 11.7259 14.7974 14.9566C14.7974 18.2072 19.2246 19.9821 22.7544 18.1474C23.7714 17.6289 23.911 17.6289 24.1304 18.1872C24.2899 18.626 24.8284 18.7656 26.0648 18.6659L27.7599 18.5462L27.8795 13.6803C27.9992 7.83718 27.5405 6.26174 25.3867 5.36433C23.6518 4.64641 19.404 4.64641 17.7089 5.36433ZM23.8911 13.8199C24.0905 15.9138 20.5408 17.3896 19.2046 15.7742C17.8884 14.1988 19.7431 12.2644 22.3754 12.4638C23.6318 12.5436 23.7914 12.7031 23.8911 13.8199Z" fill="#161616"/>
<path d="M28.9564 5.18493C28.8368 5.38436 29.814 8.47542 31.1302 12.0252C32.586 15.874 33.4634 18.7856 33.3039 19.2443C32.6059 21.4778 37.8507 16.8113 38.9077 14.2587C40.3236 10.8884 42.2181 5.22482 41.9987 5.00545C41.5799 4.58666 38.8279 4.78609 38.4291 5.28464C38.2097 5.56384 37.5516 7.29882 36.9334 9.1734C35.4576 13.7601 35.4377 13.7601 33.942 9.29305C33.2241 7.13928 32.4464 5.24476 32.1871 5.08522C31.549 4.66643 29.2356 4.72626 28.9564 5.18493Z" fill="#161616"/>
<path d="M0.119654 15.8143L0.239308 18.5464H2.03412C4.04829 18.5464 5.12518 15.914 3.35031 15.2958C2.95146 15.1562 2.03412 14.5978 1.31619 14.0594L0 13.1021L0.119654 15.8143Z" fill="#161616"/>
<path d="M35.3975 19.4237C33.862 20.4607 33.0444 20.7399 31.5088 20.7399H29.5544V22.3353V23.9307H31.6683C34.0016 23.9307 35.4973 22.8139 36.9132 20.022C37.8903 18.0876 37.5713 17.9679 35.3975 19.4237Z" fill="#161616"/>
</svg>
