<svg width="184" height="25" viewBox="0 0 184 25" fill="none" xmlns="http://www.w3.org/2000/svg">
<path fill-rule="evenodd" clip-rule="evenodd" d="M37.4595 6.22022C40.0905 6.0146 42.6589 6.29535 45.1644 7.06295C46.077 7.24835 46.5183 7.77012 46.4887 8.62801C46.0929 9.30484 45.5714 9.86657 44.9237 10.3135C42.4694 8.82472 39.8608 8.50353 37.0984 9.35034C36.2836 10.0224 36.404 10.5441 37.4595 10.9154C39.7103 11.2048 41.9575 11.5258 44.2013 11.8785C47.1867 12.8091 48.0295 14.6951 46.7295 17.5368C45.7584 18.6851 44.5143 19.3672 42.9974 19.5834C40.3701 19.8981 37.8017 19.6573 35.2925 18.8611C34.464 18.4335 33.7015 17.9117 33.0051 17.296C33.1775 16.3153 33.7393 15.593 34.6906 15.129C37.284 16.9705 40.1334 17.492 43.2382 16.6941C44.1341 16.2814 44.2945 15.7197 43.7198 15.0086C43.2382 14.848 42.7567 14.6877 42.2751 14.5271C40.1615 14.3641 38.0747 14.0429 36.0149 13.564C33.4515 12.65 32.689 10.9246 33.7275 8.38723C34.7565 7.25196 36.0007 6.52962 37.4595 6.22022Z" fill="#161616"/>
<path fill-rule="evenodd" clip-rule="evenodd" d="M49.7395 6.46099C50.8661 6.42102 51.9896 6.46123 53.1104 6.58138C54.7556 8.70818 56.4011 10.8352 58.0464 12.962C59.6808 10.7654 61.4062 8.63859 63.2231 6.58138C64.2635 6.46123 65.3068 6.42102 66.3532 6.46099C66.3532 10.795 66.3532 15.129 66.3532 19.463C65.3901 19.463 64.427 19.463 63.4639 19.463C63.5041 16.6529 63.4639 13.8437 63.3435 11.0358C61.6631 13.2774 59.8975 15.4444 58.0464 17.5368C56.1953 15.4444 54.4296 13.2774 52.7492 11.0358C52.6288 13.8437 52.5886 16.6529 52.6288 19.463C51.6657 19.463 50.7026 19.463 49.7395 19.463C49.7395 15.129 49.7395 10.795 49.7395 6.46099Z" fill="#161616"/>
<path fill-rule="evenodd" clip-rule="evenodd" d="M74.2981 6.46089C75.5126 6.38216 76.7165 6.46234 77.9098 6.70167C79.8336 10.7102 81.8802 14.6428 84.0497 18.4998C84.1676 18.8111 84.2079 19.1323 84.1701 19.4629C83.035 19.5417 81.9116 19.4612 80.7992 19.2222C80.4286 18.4406 80.0272 17.6783 79.5953 16.9348C77.1875 16.7742 74.7797 16.7742 72.3719 16.9348C71.7336 19.3161 70.2085 20.0786 67.7971 19.2222C70.032 14.9931 72.199 10.7393 74.2981 6.46089ZM75.7428 9.83179C75.9826 9.81109 76.1832 9.89151 76.3448 10.0726C76.881 11.3858 77.4829 12.6698 78.1506 13.925C76.7127 14.2053 75.268 14.2453 73.8166 14.0454C74.498 12.6438 75.1399 11.2391 75.7428 9.83179Z" fill="#161616"/>
<path fill-rule="evenodd" clip-rule="evenodd" d="M85.6157 6.46112C89.2394 6.36096 92.8511 6.48134 96.4508 6.82229C98.5284 7.37704 99.6519 8.74129 99.8217 10.9155C99.4925 12.9405 98.3688 14.3047 96.4508 15.0088C97.6997 16.3778 98.9036 17.7823 100.062 19.2224C98.8665 19.5022 97.6626 19.5424 96.4508 19.3428C95.282 18.0539 94.1583 16.7296 93.0799 15.3699C91.6441 15.1301 90.1994 15.0499 88.7458 15.1291C88.7458 16.5738 88.7458 18.0185 88.7458 19.4632C87.7025 19.4632 86.659 19.4632 85.6157 19.4632C85.6157 15.1291 85.6157 10.7951 85.6157 6.46112ZM88.7458 9.35046C90.9945 9.31049 93.2419 9.35046 95.4876 9.47085C96.4406 9.97793 96.6814 10.7405 96.21 11.7582C95.87 12.0727 95.4686 12.2735 95.0061 12.3602C92.9209 12.4806 90.8341 12.5205 88.7458 12.4806C88.7458 11.4373 88.7458 10.3938 88.7458 9.35046Z" fill="#161616"/>
<path fill-rule="evenodd" clip-rule="evenodd" d="M101.266 6.46094C105.841 6.46094 110.415 6.46094 114.99 6.46094C114.99 7.42405 114.99 8.38717 114.99 9.35028C113.225 9.35028 111.459 9.35028 109.693 9.35028C109.693 12.7212 109.693 16.0921 109.693 19.463C108.65 19.463 107.606 19.463 106.563 19.463C106.563 16.0921 106.563 12.7212 106.563 9.35028C104.797 9.35028 103.031 9.35028 101.266 9.35028C101.266 8.38717 101.266 7.42405 101.266 6.46094Z" fill="#161616"/>
<path fill-rule="evenodd" clip-rule="evenodd" d="M117.157 6.70185C121.01 6.66164 124.863 6.70185 128.714 6.82224C131.686 8.06417 132.328 10.0306 130.641 12.7213C131.716 13.3741 132.197 14.3372 132.085 15.6107C131.879 17.9436 130.595 19.1877 128.233 19.3427C124.542 19.4631 120.85 19.5033 117.157 19.4631C117.157 15.2093 117.157 10.9557 117.157 6.70185ZM120.287 9.35041C122.777 9.31044 125.264 9.35041 127.751 9.4708C128.449 10.2307 128.369 10.8726 127.51 11.397C125.104 11.5174 122.696 11.5574 120.287 11.5174C120.287 10.7951 120.287 10.0727 120.287 9.35041ZM120.287 14.166C122.937 14.1258 125.585 14.166 128.233 14.2864C129.16 15.0429 129.16 15.7652 128.233 16.4534C125.585 16.5738 122.937 16.614 120.287 16.5738C120.287 15.7713 120.287 14.9685 120.287 14.166Z" fill="#161616"/>
<path fill-rule="evenodd" clip-rule="evenodd" d="M138.587 6.70185C139.961 6.62264 141.325 6.70306 142.68 6.94263C144.818 11.058 146.824 15.2314 148.699 19.4631C147.576 19.4631 146.452 19.4631 145.328 19.4631C144.84 16.8328 143.235 15.8697 140.513 16.5738C139.309 16.614 138.105 16.6539 136.901 16.6942C136.42 17.5771 135.938 18.4598 135.457 19.3427C134.416 19.4629 133.373 19.5031 132.326 19.4631C134.335 15.2037 136.422 10.9499 138.587 6.70185ZM140.272 9.83197C140.512 9.81127 140.712 9.89169 140.874 10.0728C141.408 11.3169 142.01 12.5207 142.68 13.6844C141.235 14.0054 139.791 14.0054 138.346 13.6844C138.991 12.3939 139.633 11.1098 140.272 9.83197Z" fill="#161616"/>
<path fill-rule="evenodd" clip-rule="evenodd" d="M149.903 6.70196C151.19 6.66199 152.474 6.7022 153.756 6.82235C156.122 9.58937 158.57 12.2781 161.1 14.8884C161.22 12.1609 161.26 9.43191 161.22 6.70196C162.344 6.70196 163.467 6.70196 164.591 6.70196C164.591 10.9558 164.591 15.2094 164.591 19.4632C163.304 19.5032 162.02 19.463 160.738 19.3428C158.203 16.4874 155.675 13.6383 153.154 10.7952C153.033 13.6833 152.993 16.5727 153.033 19.4632C151.99 19.4632 150.947 19.4632 149.903 19.4632C149.903 15.2094 149.903 10.9558 149.903 6.70196Z" fill="#161616"/>
<path fill-rule="evenodd" clip-rule="evenodd" d="M167.48 6.70196C168.604 6.70196 169.727 6.70196 170.851 6.70196C170.811 8.46952 170.851 10.2351 170.972 11.9991C173.339 10.2734 175.707 8.54801 178.074 6.82235C179.519 6.66175 180.964 6.66175 182.408 6.82235C180.409 8.54416 178.322 10.1494 176.148 11.6379C178.506 14.1175 180.834 16.6456 183.131 19.2224C181.774 19.5025 180.409 19.5427 179.038 19.3428C177.303 17.3682 175.497 15.482 173.62 13.6845C172.747 14.1955 171.904 14.7572 171.092 15.37C170.852 16.7251 170.772 18.0893 170.851 19.4632C169.727 19.4632 168.604 19.4632 167.48 19.4632C167.48 15.2094 167.48 10.9558 167.48 6.70196Z" fill="#161616"/>
<path fill-rule="evenodd" clip-rule="evenodd" d="M14.3446 6.22031C14.1404 5.83675 13.8195 5.55576 13.3815 5.37759C13.4617 5.29741 13.5421 5.21699 13.6223 5.13681C13.1109 4.86665 12.6695 4.50549 12.298 4.0533C12.2178 4.13348 12.1374 4.2139 12.0572 4.29408C11.2345 3.27366 10.3918 2.31055 9.52905 1.40474C12.3377 0.410085 14.8659 0.891642 17.1136 2.84941C17.2742 3.09019 17.2742 3.33097 17.1136 3.57175C16.1871 4.47322 15.2642 5.35616 14.3446 6.22031Z" fill="#161616"/>
<path fill-rule="evenodd" clip-rule="evenodd" d="M9.52914 1.40479C10.3919 2.31059 11.2346 3.27371 12.0573 4.29413C12.1375 4.21395 12.2179 4.13353 12.2981 4.05335C12.6696 4.50553 13.111 4.8667 13.6224 5.13685C13.5422 5.21703 13.4618 5.29745 13.3816 5.37763C13.8196 5.55581 14.1405 5.83679 14.3447 6.22035C13.783 6.62173 13.3014 7.10329 12.9 7.66503C12.7341 7.37441 12.6942 7.05321 12.7797 6.70191C11.8782 5.71352 10.8749 4.87079 9.76992 4.17374C9.17977 3.48704 8.6178 2.80491 8.08447 2.12712C8.56603 1.88634 9.04759 1.64556 9.52914 1.40479Z" fill="#161616"/>
<path fill-rule="evenodd" clip-rule="evenodd" d="M8.08447 2.12695C8.61779 2.80474 9.17977 3.48687 9.76992 4.17357C10.8748 4.87062 11.8782 5.71335 12.7796 6.70174C12.6942 7.05304 12.7341 7.37424 12.9 7.66486C12.9 7.74504 12.9 7.82546 12.9 7.90564C12.7394 7.90564 12.5791 7.90564 12.4185 7.90564C11.4279 7.84568 10.5452 7.48451 9.76992 6.82213C8.73385 5.92499 7.73052 5.00185 6.76019 4.05318C6.64846 3.91016 6.60825 3.74956 6.6398 3.57162C7.04117 3.00989 7.52273 2.52833 8.08447 2.12695Z" fill="#161616"/>
<path fill-rule="evenodd" clip-rule="evenodd" d="M6.63999 3.57178C6.60845 3.74971 6.64866 3.91031 6.76038 4.05333C7.73071 5.002 8.73404 5.92515 9.77011 6.82229C10.5454 7.48467 11.4281 7.84584 12.4187 7.90579C12.0173 8.46753 11.5357 8.94908 10.974 9.35046C9.96562 9.44822 9.16311 9.08705 8.56622 8.26696C6.90533 8.34666 5.50087 7.82489 4.35259 6.7019C4.2363 6.47364 4.19633 6.23286 4.2322 5.97956C4.95454 5.09663 5.75705 4.29411 6.63999 3.57178Z" fill="#161616"/>
<path fill-rule="evenodd" clip-rule="evenodd" d="M13.8631 7.90585C16.7151 7.82688 19.5243 7.90706 22.2903 8.14663C21.5044 8.53043 20.8623 9.09217 20.3641 9.83208C19.722 10.3136 19.1602 10.8754 18.6787 11.5175C18.0365 11.9991 17.4748 12.5608 16.9932 13.203C15.3879 14.6476 13.8631 16.1725 12.4184 17.7778C12.1276 17.9545 11.8066 18.0347 11.4553 18.0185C10.4922 18.0185 9.52909 18.0185 8.56597 18.0185C8.53925 17.87 8.45907 17.7496 8.3252 17.6574C10.1611 14.7481 11.967 11.8185 13.7427 8.86897C13.8607 8.55764 13.9009 8.23644 13.8631 7.90585Z" fill="#161616"/>
<path fill-rule="evenodd" clip-rule="evenodd" d="M2.54637 7.66504C3.11629 7.80445 3.55764 8.12541 3.87065 8.62815C4.50606 9.31606 5.34879 9.95797 6.39882 10.5544C6.69931 11.4978 7.34147 11.9793 8.32505 11.9991C7.92367 12.5608 7.44211 13.0423 6.88038 13.4437C6.32009 13.5046 5.83853 13.344 5.43571 12.9622C4.24289 11.4893 2.95882 10.1248 1.58325 8.86893C1.7229 8.32742 2.04386 7.92628 2.54637 7.66504Z" fill="#161616"/>
<path fill-rule="evenodd" clip-rule="evenodd" d="M22.2905 8.14648C23.2252 8.96947 23.8271 10.0128 24.0963 11.2766C24.2836 12.5007 24.2434 13.7046 23.9759 14.8883C23.0239 14.3778 22.2614 13.6555 21.6885 12.7213C21.3011 11.7076 20.8598 10.7445 20.3643 9.83193C20.8624 9.09202 21.5046 8.53029 22.2905 8.14648Z" fill="#161616"/>
<path fill-rule="evenodd" clip-rule="evenodd" d="M4.23232 5.97949C4.19645 6.23279 4.23642 6.47357 4.35271 6.70183C5.50099 7.82482 6.90545 8.34659 8.56634 8.26689C9.16323 9.08698 9.96574 9.44815 10.9741 9.35039C10.1716 10.3135 9.28867 11.1964 8.32556 11.999C7.34198 11.9792 6.69982 11.4977 6.39933 10.5543C5.3493 9.95787 4.50657 9.31596 3.87116 8.62806C3.55814 8.12531 3.1168 7.80435 2.54688 7.66494C3.02843 7.02279 3.59017 6.46105 4.23232 5.97949Z" fill="#161616"/>
<path fill-rule="evenodd" clip-rule="evenodd" d="M1.58357 8.86865C2.95914 10.1246 4.24321 11.489 5.43603 12.9619C5.83885 13.3438 6.32041 13.5044 6.8807 13.4434C5.43603 14.9683 3.99136 16.4934 2.54668 18.0182C2.09619 17.9318 1.73502 17.691 1.46318 17.2959C0.299258 15.5291 -0.102119 13.6028 0.259289 11.5172C0.453116 10.4876 0.894463 9.60471 1.58357 8.86865Z" fill="#161616"/>
<path fill-rule="evenodd" clip-rule="evenodd" d="M20.3642 9.83203C20.8597 10.7446 21.301 11.7077 21.6884 12.7214C22.2613 13.6556 23.0238 14.3779 23.9758 14.8884C23.8237 15.8349 23.4223 16.6376 22.7719 17.2962C21.8726 16.7604 21.0701 16.0783 20.3642 15.2495C20.448 14.7547 20.2874 14.2732 19.8826 13.8049C19.9628 13.7247 20.0432 13.6443 20.1234 13.5641C19.67 12.8562 19.1884 12.1738 18.6787 11.5175C19.1603 10.8753 19.722 10.3136 20.3642 9.83203Z" fill="#161616"/>
<path fill-rule="evenodd" clip-rule="evenodd" d="M12.4188 7.90576C12.5794 7.90576 12.7397 7.90576 12.9003 7.90576C13.2213 7.90576 13.5425 7.90576 13.8635 7.90576C13.9013 8.23635 13.8611 8.55755 13.7431 8.86888C11.9673 11.8184 10.1615 14.748 8.32556 17.6573C8.45943 17.7495 8.53961 17.8699 8.56634 18.0185C6.55993 18.0185 4.55328 18.0185 2.54688 18.0185C3.99155 16.4936 5.43622 14.9685 6.88089 13.4437C7.44262 13.0423 7.92418 12.5607 8.32556 11.999C9.28867 11.1965 10.1716 10.3135 10.9741 9.35043C11.5359 8.94905 12.0174 8.4675 12.4188 7.90576Z" fill="#161616"/>
<path fill-rule="evenodd" clip-rule="evenodd" d="M16.9932 13.2029C17.4105 13.3252 17.4907 13.5258 17.234 13.8048C17.9559 14.9425 18.3573 16.2668 18.4379 17.7777C19.6888 17.7004 20.8927 17.7808 22.0496 18.0185C18.8398 17.9229 15.6292 17.8427 12.4185 17.7777C13.8631 16.1724 15.388 14.6476 16.9932 13.2029Z" fill="#161616"/>
<path fill-rule="evenodd" clip-rule="evenodd" d="M18.6786 11.5173C19.1883 12.1737 19.6699 12.8561 20.1233 13.564C20.0431 13.6441 19.9627 13.7246 19.8825 13.8047C20.2873 14.273 20.4479 14.7546 20.3641 15.2494C21.07 16.0782 21.8725 16.7603 22.7718 17.296C22.6112 17.617 22.3705 17.8578 22.0495 18.0184C20.8926 17.7807 19.6887 17.7003 18.4378 17.7776C18.3572 16.2667 17.9558 14.9424 17.2339 13.8047C17.4906 13.5257 17.4104 13.3251 16.9932 13.2028C17.4747 12.5606 18.0365 11.9989 18.6786 11.5173Z" fill="#161616"/>
<path fill-rule="evenodd" clip-rule="evenodd" d="M12.4187 17.7776C15.6295 17.8426 18.84 17.9228 22.0498 18.0184C20.2459 19.9427 18.4001 21.8287 16.5119 23.6767C14.4205 25.019 12.1734 25.3402 9.77014 24.6398C8.7165 24.2651 7.8338 23.6632 7.12158 22.8339C8.5937 21.2241 10.0384 19.6188 11.4556 18.0184C11.8069 18.0345 12.1278 17.9543 12.4187 17.7776Z" fill="#161616"/>
</svg>
