<svg width="67" height="24" viewBox="0 0 67 24" fill="none" xmlns="http://www.w3.org/2000/svg">
<path opacity="0.97" fill-rule="evenodd" clip-rule="evenodd" d="M10.8308 0.0211815C15.5145 -0.215544 19.2281 1.53197 21.9715 5.26383C22.0693 5.44269 22.1533 5.62749 22.2235 5.81835C21.7198 6.13744 21.1821 6.40623 20.6104 6.62491C20.0223 7.21299 19.4341 7.80118 18.846 8.38926C18.6439 8.92804 18.3918 9.43215 18.0899 9.90156C16.9662 7.18224 14.9331 5.73718 11.9903 5.56629C10.6226 5.60773 9.3623 5.99428 8.20952 6.72573C7.58736 7.31432 6.99928 7.93607 6.44517 8.5909C6.21591 9.01576 6.01427 9.45261 5.84025 9.90156C5.20881 8.53122 4.2846 7.40536 3.0677 6.52409C2.67642 6.31166 2.27314 6.12675 1.85786 5.96958C1.74554 5.84627 1.72871 5.71188 1.80745 5.56629C3.98607 2.36162 6.99383 0.513184 10.8308 0.0211815Z" fill="#161616"/>
<path opacity="0.967" fill-rule="evenodd" clip-rule="evenodd" d="M32.7083 5.46548C34.697 5.23672 36.579 5.57285 38.3542 6.47368C38.4549 7.58069 38.4885 8.68971 38.455 9.80075C37.7824 9.52581 37.1103 9.24019 36.4386 8.94378C35.3857 8.54826 34.3103 8.44744 33.2124 8.64131C32.5042 8.92059 32.4371 9.29029 33.0107 9.75034C33.9041 10.0653 34.8115 10.3341 35.7329 10.5569C36.8999 10.9972 37.9249 11.6525 38.8079 12.5229C39.9243 15.5525 38.9665 17.5521 35.9345 18.5217C33.5066 19.0222 31.2213 18.6693 29.0787 17.4631C29.0787 16.2868 29.0787 15.1106 29.0787 13.9344C29.7253 14.3083 30.3974 14.6612 31.0951 14.993C32.4708 15.6582 33.8823 15.7758 35.3296 15.3459C35.8525 14.8683 35.819 14.4146 35.2288 13.9848C33.6568 13.6169 32.1445 13.0792 30.6919 12.3717C29.3237 11.3952 28.8029 10.0677 29.1292 8.38926C29.3448 7.43601 29.8657 6.71343 30.6919 6.22163C31.3432 5.87763 32.0153 5.62558 32.7083 5.46548Z" fill="#161616"/>
<path opacity="0.969" fill-rule="evenodd" clip-rule="evenodd" d="M46.017 5.46566C49.2366 5.11824 51.7067 6.29451 53.4273 8.99437C54.3009 11.0774 54.3009 13.1611 53.4273 15.2452C52.7237 16.5539 51.6987 17.5117 50.3522 18.1186C50.9696 18.7362 51.7089 18.9379 52.5703 18.7235C52.8579 18.5794 53.1604 18.4954 53.4777 18.4715C53.5111 19.4148 53.4775 20.3558 53.3768 21.2944C51.6856 21.9449 50.0725 21.7937 48.5375 20.8407C47.8653 20.1686 47.1933 19.4965 46.5211 18.8243C42.1949 17.954 40.2289 15.3158 40.6231 10.91C41.0898 8.45962 42.4845 6.76241 44.8071 5.81853C45.2228 5.69836 45.6261 5.5807 46.017 5.46566ZM46.8235 8.59109C48.7351 8.57183 49.9281 9.47922 50.4027 11.3132C50.7599 13.4389 49.9365 14.8673 47.9326 15.5981C45.8779 15.7619 44.6176 14.8377 44.1518 12.8255C43.9155 11.2337 44.4364 9.97344 45.7145 9.04478C46.0727 8.83094 46.4424 8.67971 46.8235 8.59109Z" fill="#161616"/>
<path opacity="0.962" fill-rule="evenodd" clip-rule="evenodd" d="M55.8972 5.66696C58.2163 5.65012 60.5351 5.66696 62.8538 5.71737C65.6516 6.15685 66.6429 7.71956 65.828 10.4055C65.5759 10.792 65.2566 11.1113 64.8702 11.3633C66.3992 11.9629 67.105 13.0887 66.9874 14.7408C67.0304 15.7797 66.6943 16.6703 65.9792 17.4125C65.5792 17.6464 65.1759 17.8816 64.7694 18.1183C64.3436 18.2667 63.9067 18.3675 63.4587 18.4207C60.9384 18.4711 58.4179 18.488 55.8972 18.4711C55.8972 14.2031 55.8972 9.93498 55.8972 5.66696ZM59.3251 8.48993C60.2331 8.47319 61.1405 8.48993 62.0472 8.54034C62.8063 8.83201 63.0247 9.35295 62.7026 10.1031C62.5404 10.1683 62.3891 10.2523 62.2489 10.3551C61.281 10.4953 60.3064 10.5458 59.3251 10.5063C59.3251 9.83416 59.3251 9.1621 59.3251 8.48993ZM59.3251 13.1277C60.3339 13.1109 61.3421 13.1277 62.3497 13.1781C62.9526 13.3239 63.2551 13.7103 63.2571 14.3375C63.2525 14.8802 63.0173 15.2667 62.5513 15.4969C61.4824 15.6384 60.407 15.6888 59.3251 15.6482C59.3251 14.808 59.3251 13.9678 59.3251 13.1277Z" fill="#161616"/>
<path opacity="0.977" fill-rule="evenodd" clip-rule="evenodd" d="M1.25267 6.47363C2.70015 6.82035 3.826 7.62692 4.63014 8.89332C4.92081 9.4074 5.15612 9.94518 5.33588 10.5064C5.41543 11.8361 5.61707 13.1467 5.9408 14.4384C6.97119 16.6786 8.70186 18.0061 11.133 18.4208C13.4379 18.6039 15.3702 17.8478 16.9302 16.1524C17.1272 15.7711 17.3792 15.435 17.6863 15.1442C17.8288 16.6264 17.8121 18.1051 17.6359 19.5803C16.9278 22.0696 15.2978 23.5315 12.7462 23.9659C7.3788 24.106 3.46366 21.804 1.00062 17.0598C-0.412875 13.5048 -0.328791 9.97613 1.25267 6.47363Z" fill="#161616"/>
<path opacity="0.975" fill-rule="evenodd" clip-rule="evenodd" d="M22.4249 6.4735C22.5253 6.46483 22.6093 6.4985 22.677 6.57432C24.5625 10.7676 24.3273 14.8341 21.9712 18.7736C21.3179 19.5916 20.629 20.3813 19.9044 21.1428C19.3073 21.504 18.736 21.9073 18.1905 22.3527C17.7872 22.5543 17.3839 22.756 16.9806 22.9576C16.7208 23.0836 16.452 23.1173 16.1741 23.0584C17.2481 22.0028 17.9707 20.7426 18.3417 19.2777C18.4689 16.4911 18.5362 13.7017 18.5433 10.9096C18.943 8.96255 20.0353 7.53423 21.82 6.62473C22.0426 6.60547 22.2442 6.55506 22.4249 6.4735Z" fill="#161616"/>
</svg>
