<svg width="91" height="25" viewBox="0 0 91 25" fill="none" xmlns="http://www.w3.org/2000/svg">
<path opacity="0.988" fill-rule="evenodd" clip-rule="evenodd" d="M12.0881 0.923805C12.454 0.844459 12.6514 0.982663 12.6802 1.3383C12.0922 3.72873 11.7764 6.15647 11.7328 8.62151C11.8372 10.7374 11.9951 12.8495 12.2065 14.9573C12.1832 15.4295 12.0844 15.8835 11.9104 16.3192C9.00081 19.3051 5.58611 21.5354 1.66655 23.0103C0.448412 23.3212 -0.0450712 22.8673 0.186216 21.6484C3.66606 14.4507 7.63334 7.54253 12.0881 0.923805Z" fill="#161616"/>
<path opacity="0.988" fill-rule="evenodd" clip-rule="evenodd" d="M13.7458 1.04213C14.064 1.02271 14.3798 1.04249 14.6932 1.10134C15.712 2.27791 16.6397 3.52139 17.4762 4.83177C20.8444 10.3429 24.0023 15.9878 26.9503 21.7667C27.0089 22.0004 27.0287 22.2372 27.0095 22.4773C26.8083 22.4962 26.6109 22.4766 26.4174 22.4181C24.7823 20.8628 23.0059 19.4811 21.0882 18.2732C18.9607 17.1107 16.7896 16.0448 14.5747 15.0756C13.9683 14.5143 13.5932 13.8235 13.4497 13.0032C12.7529 9.5076 12.6344 5.99436 13.0944 2.46325C13.1648 1.9141 13.382 1.4404 13.7458 1.04213Z" fill="#161616"/>
<path opacity="0.974" fill-rule="evenodd" clip-rule="evenodd" d="M50.9323 10.99C51.7735 10.9979 52.6025 11.0966 53.4193 11.2861C53.4855 11.3719 53.5249 11.4706 53.5377 11.5821C53.4002 12.0927 53.2818 12.6059 53.1824 13.1217C50.5502 12.2252 49.3264 13.1528 49.5112 15.9047C49.5068 16.4851 49.5661 17.0574 49.6889 17.6219C49.9875 18.5224 50.6192 18.9172 51.5837 18.8061C52.2134 18.7738 52.8252 18.6554 53.4193 18.4508C53.466 18.9874 53.545 19.5204 53.6562 20.0496C53.6167 20.1483 53.5772 20.247 53.5377 20.3457C51.8578 20.9168 50.2393 20.7786 48.6822 19.9312C48.2757 19.5709 47.9402 19.1564 47.6756 18.6877C46.863 16.4737 47.0208 14.342 48.1493 12.2927C48.9313 11.5164 49.8589 11.0822 50.9323 10.99Z" fill="#161616"/>
<path opacity="0.981" fill-rule="evenodd" clip-rule="evenodd" d="M39.4453 11.1082C40.8275 11.0885 42.2091 11.1082 43.5902 11.1675C45.0889 11.3238 45.839 12.1528 45.8403 13.6544C45.9618 14.522 45.646 15.1536 44.8929 15.5492C45.8451 15.9923 46.3188 16.7424 46.314 17.7993C46.2714 19.4212 45.4424 20.329 43.8271 20.5231C42.367 20.5824 40.9065 20.6021 39.4453 20.5824C39.4453 17.4243 39.4453 14.2663 39.4453 11.1082ZM41.6954 12.8846C42.2495 12.865 42.8021 12.8848 43.3534 12.9439C43.6434 13.1645 43.7618 13.4606 43.7087 13.8321C43.7261 14.1581 43.6471 14.4541 43.4718 14.7203C42.8948 14.8846 42.3027 14.9438 41.6954 14.8979C41.6954 14.2268 41.6954 13.5558 41.6954 12.8846ZM41.6954 16.5559C42.3778 16.5143 43.0488 16.5735 43.7087 16.7335C43.7679 16.7927 43.8271 16.8519 43.8863 16.9111C43.9653 17.4243 43.9653 17.9375 43.8863 18.4507C43.8271 18.5099 43.7679 18.5691 43.7087 18.6283C43.0488 18.7883 42.3778 18.8475 41.6954 18.806C41.6954 18.056 41.6954 17.3059 41.6954 16.5559Z" fill="#161616"/>
<path opacity="0.961" fill-rule="evenodd" clip-rule="evenodd" d="M58.6301 11.1085C60.0182 11.0627 61.3998 11.1219 62.7751 11.2861C64.1128 11.9711 64.5667 13.0567 64.137 14.5429C64.0406 15.0142 63.7839 15.3695 63.3672 15.6087C64.2736 16.0979 64.7079 16.8677 64.6699 17.918C64.6259 19.4621 63.8365 20.3305 62.3013 20.5234C61.0782 20.5826 59.8545 20.6023 58.6301 20.5826C58.6301 17.4245 58.6301 14.2666 58.6301 11.1085ZM59.8144 12.1743C60.7326 12.1274 61.6405 12.1867 62.5382 12.352C62.961 12.6691 63.1584 13.1033 63.1303 13.6547C63.183 14.3302 62.9066 14.8039 62.3013 15.0758C61.4733 15.135 60.6443 15.1547 59.8144 15.135C59.8144 14.1482 59.8144 13.1612 59.8144 12.1743ZM59.8144 16.2008C60.8995 16.1306 61.9654 16.2293 63.0119 16.4969C63.568 17.3036 63.6272 18.1524 63.1895 19.0431C63.0025 19.2256 62.7854 19.3638 62.5382 19.4576C61.6312 19.5168 60.7232 19.5364 59.8144 19.5168C59.8144 18.4115 59.8144 17.3061 59.8144 16.2008Z" fill="#161616"/>
<path opacity="0.947" fill-rule="evenodd" clip-rule="evenodd" d="M68.814 11.1085C69.2021 11.0749 69.577 11.1143 69.939 11.227C71.0434 14.3428 72.1289 17.4614 73.1958 20.5826C72.7687 20.6169 72.3542 20.5774 71.9523 20.4642C71.698 19.7609 71.481 19.0503 71.3009 18.3325C69.9959 18.2932 68.6932 18.3327 67.3929 18.451C67.2032 19.1387 66.9663 19.8097 66.6823 20.4642C66.2953 20.5811 65.9005 20.6205 65.498 20.5826C66.5793 17.4178 67.6847 14.2597 68.814 11.1085ZM69.2877 12.6481C69.8686 14.154 70.3818 15.6935 70.8272 17.2667C69.8404 17.2667 68.8534 17.2667 67.8666 17.2667C68.3408 15.7259 68.8145 14.1863 69.2877 12.6481Z" fill="#161616"/>
<path opacity="0.968" fill-rule="evenodd" clip-rule="evenodd" d="M74.7358 11.1083C75.085 11.0755 75.4205 11.115 75.7425 11.2268C77.2426 13.5163 78.7426 15.806 80.2427 18.0955C80.3019 15.7668 80.3217 13.4377 80.3019 11.1083C80.6572 11.1083 81.0124 11.1083 81.3677 11.1083C81.3677 14.2664 81.3677 17.4244 81.3677 20.5824C80.9524 20.6424 80.5773 20.5635 80.2427 20.3456C78.8116 18.0754 77.3509 15.8253 75.8609 13.5953C75.8017 15.924 75.7819 18.2531 75.8017 20.5824C75.4464 20.5824 75.0911 20.5824 74.7358 20.5824C74.7358 17.4244 74.7358 14.2664 74.7358 11.1083Z" fill="#161616"/>
<path opacity="0.946" fill-rule="evenodd" clip-rule="evenodd" d="M83.7357 11.1084C84.091 11.1084 84.4463 11.1084 84.8016 11.1084C84.7818 12.4905 84.8016 13.8722 84.8608 15.2533C86.0674 13.9244 87.2319 12.5625 88.3544 11.1676C88.8329 11.0696 89.3066 11.0894 89.7755 11.2268C88.4588 12.7355 87.1561 14.2554 85.8674 15.7862C87.3541 17.2923 88.7753 18.8515 90.1308 20.464C89.6221 20.6015 89.1089 20.6213 88.5912 20.5232C87.3035 19.1173 86.06 17.6765 84.8608 16.2007C84.8016 17.6608 84.7818 19.1213 84.8016 20.5825C84.4135 20.6161 84.0386 20.5767 83.6765 20.464C83.5791 17.337 83.5987 14.2183 83.7357 11.1084Z" fill="#161616"/>
<path opacity="0.988" fill-rule="evenodd" clip-rule="evenodd" d="M31.2729 11.1086C33.6415 11.1086 36.01 11.1086 38.3785 11.1086C38.3785 11.7402 38.3785 12.3719 38.3785 13.0035C37.589 13.0035 36.7996 13.0035 36.01 13.0035C36.0298 15.4908 36.01 17.9777 35.9508 20.4643C35.2312 20.5799 34.501 20.6195 33.7599 20.5827C33.7599 18.0564 33.7599 15.5299 33.7599 13.0035C32.9309 13.0035 32.1019 13.0035 31.2729 13.0035C31.2729 12.3719 31.2729 11.7402 31.2729 11.1086Z" fill="#161616"/>
<path opacity="0.99" fill-rule="evenodd" clip-rule="evenodd" d="M14.1016 17.0298C15.3852 17.0692 16.6089 17.3653 17.7728 17.918C20.3415 18.9849 22.7494 20.327 24.9968 21.9445C26.6554 23.5158 26.3395 24.3843 24.0494 24.5499C23.0254 24.6582 21.999 24.7372 20.9703 24.7867C14.572 24.9178 8.17694 24.8389 1.78522 24.5499C1.17687 24.6146 0.97957 24.3778 1.19309 23.8393C4.24447 22.968 7.0867 21.6653 9.7198 19.9312C11.116 18.8403 12.5767 17.8732 14.1016 17.0298Z" fill="#161616"/>
</svg>
