<svg width="142" height="25" viewBox="0 0 142 25" fill="none" xmlns="http://www.w3.org/2000/svg">
<path d="M0 4.11216C0 6.38206 0.12808 8.22431 0.25616 8.22431C0.384239 8.22431 2.46554 7.04001 4.83501 5.62543L9.18972 2.99365L13.8967 5.65832L18.5716 8.323V4.63851C18.5716 2.63178 18.5075 0.822435 18.4115 0.625052C18.3154 0.427669 14.1528 0.197389 9.12568 0.131595L0 5.72205e-06V4.11216Z" fill="white"/>
<path d="M42.9062 10.8554V19.4087H44.5072H46.1082V10.8554V2.30215H44.5072H42.9062V10.8554Z" fill="white"/>
<path d="M130.642 10.8556V19.4089H132.243C133.651 19.4089 133.844 19.1128 133.844 17.1061C133.844 14.1782 134.708 14.1782 136.565 17.0732C137.878 19.1786 141.048 20.7906 141.977 19.8366C142.169 19.6392 141.144 18.0272 139.703 16.2508L137.078 13.0268L139.031 11.1188C142.265 7.99357 142.585 6.90796 140.28 6.90796C138.743 6.90796 138.006 7.43432 136.661 9.53974C134.26 13.2242 133.844 12.8624 133.844 7.23694C133.844 2.40105 133.812 2.30236 132.243 2.30236H130.642V10.8556Z" fill="white"/>
<path d="M31.6997 3.75012C31.5396 4.21068 30.2908 7.92807 28.946 12.0073L26.4805 19.4092H28.2416C29.6825 19.4092 30.0667 19.0473 30.4189 17.4354C30.8032 15.5602 30.9953 15.4615 34.0372 15.4615C36.983 15.4615 37.2712 15.5931 37.8796 17.4354C38.4239 19.0144 41.722 20.6264 41.6259 19.2447C41.5939 19.146 40.5052 15.5273 39.1604 11.1849L36.7269 3.28956L34.3574 3.09218C32.8524 2.96059 31.8918 3.19087 31.6997 3.75012ZM36.4387 12.6653C36.4707 13.1916 35.6382 13.4877 34.2613 13.4877C31.6677 13.4877 31.5716 13.0929 33.0766 8.52022L34.1653 5.29629L35.286 8.55311C35.8943 10.3625 36.4387 12.2047 36.4387 12.6653Z" fill="white"/>
<path d="M89.4957 3.45355C89.3997 3.71673 89.3997 7.43411 89.5277 11.6778L89.7519 19.4087H94.8431C100.415 19.4087 102.464 18.2902 102.464 15.2307C102.464 13.5859 100.703 11.5134 99.1978 11.4805C98.7175 11.4805 99.0056 11.0528 99.8702 10.5593C102.848 8.88159 102.848 5.52607 99.8382 3.91411C97.981 2.92719 89.912 2.56532 89.4957 3.45355ZM96.9884 6.24981C100.286 7.5328 98.7495 10.1975 94.715 10.1975C93.0179 10.1975 92.8578 10.0001 92.8578 7.89467C92.8578 5.36159 93.7864 4.99972 96.9884 6.24981ZM98.9416 14.8031C98.9416 16.2835 98.6534 16.4808 95.8997 16.6453C92.8898 16.8427 92.8578 16.8427 92.8578 14.8031C92.8578 12.7635 92.8898 12.7635 95.8997 12.9608C98.6534 13.1253 98.9416 13.3227 98.9416 14.8031Z" fill="white"/>
<path d="M4.64289 7.76308L0 10.2633V14.836V19.4087H9.44588H18.8918L18.5716 14.7702L18.2514 10.1317L13.7686 7.69729L9.28578 5.23L4.64289 7.76308Z" fill="white"/>
<path d="M51.3918 7.59901C48.9903 8.58593 47.6775 12.2704 48.574 15.4285C50.6553 22.5014 60.1973 20.7908 60.1973 13.356C60.1973 8.58593 55.8426 5.75677 51.3918 7.59901ZM56.8672 11.6783C57.8598 13.8495 56.7712 16.9418 54.85 17.3366C53.1849 17.6656 51.2317 15.5601 51.2317 13.4218C51.2317 9.53995 55.2662 8.25696 56.8672 11.6783Z" fill="white"/>
<path d="M63.6551 8.45427C58.8842 12.6322 63.7192 22.5672 68.8424 19.1459L70.4434 18.0603V21.0539C70.4434 23.7844 70.5714 24.0146 72.0443 24.0146H73.6453V15.6917V7.40156L71.4039 7.76343C70.1872 7.96082 69.0345 7.86213 68.8103 7.53315C68.1379 6.41465 65.4162 6.87521 63.6551 8.45427ZM69.6749 10.3294C71.5 12.2046 70.2512 17.4352 67.9778 17.4352C66.3768 17.4352 64.6798 15.3627 64.6798 13.4218C64.6798 10.2965 67.7857 8.38848 69.6749 10.3294Z" fill="white"/>
<path d="M78.3207 7.66473C76.8477 8.42137 75.9832 9.96754 76.5275 10.8558C76.9438 11.5466 79.4093 10.8887 79.4093 10.132C79.4093 9.80305 80.2739 9.53988 81.3305 9.53988C82.3872 9.53988 83.2517 9.67146 83.2517 9.80305C83.2517 9.96754 83.4118 10.5597 83.636 11.1189C83.9562 11.9414 83.604 12.1717 82.131 12.1717C78.865 12.1717 76.2394 13.4546 75.7911 15.2969C74.9266 18.784 78.4167 21.021 81.8749 19.2117C82.9956 18.6524 83.8921 18.455 83.8921 18.8169C83.8921 19.1459 84.5325 19.409 85.333 19.409C86.934 19.409 86.9981 9.83595 85.3971 8.19109C84.3724 7.13838 79.9857 6.80941 78.3207 7.66473ZM83.8921 14.7705C83.8921 15.9219 81.8749 17.4352 80.3379 17.4352C78.6409 17.4352 78.0645 15.1982 79.5694 14.5731C80.9783 14.0139 83.8921 14.1126 83.8921 14.7705Z" fill="white"/>
<path d="M106.947 7.36858C105.73 7.82914 104.385 9.53979 104.385 10.6583C104.385 11.8426 106.595 11.7439 107.587 10.5267C108.292 9.67138 111.43 9.07923 111.43 9.80297C111.43 9.96745 111.59 10.5267 111.782 11.0531C112.038 11.7439 111.43 12.0729 109.188 12.3361C102.848 13.0598 101.696 20.0669 107.907 20.0669C108.644 20.0669 109.861 19.6063 110.661 19.0471C111.43 18.4549 112.07 18.3233 112.07 18.7181C112.07 19.08 112.806 19.409 113.735 19.409H115.4L115.176 14.4086C114.856 7.82914 112.07 5.49343 106.947 7.36858ZM112.07 14.7704C112.07 15.8232 110.117 17.4351 108.804 17.4351C107.235 17.4351 106.434 15.5271 107.651 14.7375C108.836 13.9809 112.07 13.9809 112.07 14.7704Z" fill="white"/>
<path d="M117.193 13.1582C117.193 19.3758 117.193 19.4087 118.794 19.4087C120.331 19.4087 120.395 19.2442 120.395 15.4939C120.395 12.8293 120.715 11.2831 121.387 10.5593C123.917 7.99336 125.806 10.5264 125.39 15.8887L125.102 19.4087H126.991H128.848L128.624 14.5399C128.304 7.82888 125.774 5.29579 121.676 7.5657C120.875 7.99336 120.331 7.99336 120.075 7.5657C118.378 4.73654 117.193 7.00645 117.193 13.1582Z" fill="white"/>
</svg>
