<svg width="160" height="25" viewBox="0 0 160 25" fill="none" xmlns="http://www.w3.org/2000/svg">
<path d="M87.8109 1.0192C87.1836 1.20739 86.6065 1.64651 86.2176 2.22363C84.6869 4.54468 86.9076 7.4554 89.605 6.6399C90.2574 6.45171 91.0729 5.72402 91.3615 5.10926C91.6375 4.4945 91.6752 3.31515 91.4368 2.73803C90.8597 1.37049 89.2161 0.592625 87.8109 1.0192Z" fill="white"/>
<path d="M42.6069 1.33276C40.6497 1.8597 38.542 3.25233 36.3966 5.39773C35.5309 6.26342 34.5272 7.40513 34.1759 7.93207C32.8711 9.83909 32.1434 11.6834 32.1309 13.0635C32.1309 15.3971 34.3766 19.0606 37.4003 21.6702C39.4829 23.4517 41.2645 24.4429 43.0461 24.8067C44.0623 25.0075 44.1627 25.0075 45.0911 24.8067C49.4948 23.8156 55.2159 17.969 55.8557 13.8037C55.9812 13.0133 55.9687 12.7247 55.793 11.9218C55.3413 9.88928 53.9111 7.61841 51.7029 5.41028C48.328 2.03535 45.1789 0.630173 42.6069 1.33276ZM45.4926 8.70993C47.1361 9.57562 48.8173 11.7587 48.8173 13.0258C48.8173 14.3306 47.0734 16.5513 45.3922 17.3919C44.9154 17.6303 44.3383 17.831 44.1125 17.831C42.218 17.831 39.2822 14.9454 39.2822 13.0635C39.2822 11.5203 41.3147 9.09887 43.1966 8.40882C44.0121 8.12026 44.4763 8.18299 45.4926 8.70993Z" fill="white"/>
<path d="M78.6777 12.8753V24.606H81.0615H83.4453V12.8753V1.14454H81.0615H78.6777V12.8753Z" fill="white"/>
<path d="M110.921 12.8753V24.606H113.305H115.689L115.714 21.1557L115.752 17.7181L118.625 21.1557L121.498 24.606H124.383C127.056 24.606 127.244 24.5934 127.093 24.3927C126.993 24.2798 125.425 22.3978 123.618 20.2273C121.799 18.0443 120.281 16.2 120.243 16.1122C120.206 16.0243 121.41 14.4435 122.916 12.5992C124.409 10.7549 125.688 9.16157 125.764 9.07375C125.851 8.96083 125.299 8.92319 123.066 8.92319H120.256L117.997 11.6959L115.752 14.4812L115.714 7.80658L115.689 1.14454H113.305H110.921V12.8753Z" fill="white"/>
<path d="M67.4487 8.7351C65.3158 9.13658 63.597 10.1528 62.4302 11.7085C61.301 13.2015 60.8745 14.4185 60.7741 16.3256C60.6988 17.9691 60.9246 19.1108 61.6021 20.516C62.518 22.3979 64.2494 23.8909 66.2944 24.5559C67.1977 24.857 67.5365 24.9072 68.9542 24.9072C70.3218 24.9197 70.7358 24.8695 71.5262 24.6311C73.2701 24.0791 74.5122 23.2385 75.541 21.8584C76.1557 21.0555 76.8081 19.6879 76.9838 18.8599L77.0716 18.4584H74.6377H72.2037L71.9779 18.8599C71.3505 19.9514 70.1461 20.7167 69.0295 20.7167C67.687 20.7167 66.4073 19.9012 65.8678 18.6717C65.4538 17.7684 65.4413 15.7986 65.8302 14.9329C66.445 13.5905 67.549 12.8879 69.0169 12.9004C70.3092 12.913 71.2251 13.4399 71.8524 14.5189L72.1786 15.0709H74.6251H77.0716L76.9838 14.6569C76.9336 14.4436 76.645 13.7159 76.3314 13.0635C75.2022 10.7174 73.1572 9.17421 70.5978 8.7351C69.2804 8.50927 68.6406 8.50927 67.4487 8.7351Z" fill="white"/>
<path d="M99.9431 8.65965C97.2206 9.11131 94.9874 10.6921 93.8833 12.9505C93.1933 14.3556 92.98 15.2339 92.98 16.7645C92.98 19.2486 93.8331 21.256 95.5896 22.862C98.2243 25.2708 102.766 25.6723 105.727 23.7527C107.22 22.7741 108.587 20.9549 109.089 19.2236C109.202 18.8472 109.29 18.521 109.29 18.4959C109.29 18.4708 108.199 18.4582 106.869 18.4582H104.447L104.021 19.1106C103.193 20.3653 101.863 20.9173 100.47 20.6036C98.5881 20.1896 97.6346 18.6841 97.7726 16.3756C97.8981 14.2427 99.1778 12.9254 101.16 12.9003C102.339 12.8752 103.268 13.3645 103.945 14.3556L104.447 15.0708H106.869H109.29L109.215 14.7195C109.064 14.0671 108.449 12.7246 107.985 12.022C106.994 10.529 105.263 9.3246 103.456 8.86039C102.528 8.62201 100.784 8.52164 99.9431 8.65965Z" fill="white"/>
<path d="M86.3311 16.7646V24.606H88.7148H91.0986V16.7646V8.92319H88.7148H86.3311V16.7646Z" fill="white"/>
</svg>
