<svg width="83" height="24" viewBox="0 0 83 24" fill="none" xmlns="http://www.w3.org/2000/svg">
<path d="M0.0400391 5.58392V11.1877L1.69525 12.9626C3.66954 15.1164 4.0285 15.1762 4.0285 13.4013C4.0285 11.8059 4.46724 11.5666 7.45859 11.5666C11.7661 11.5666 14.0595 9.73193 14.2988 6.08248C14.5979 1.2365 12.7632 7.15256e-05 5.36464 7.15256e-05H0.0400391V5.58392ZM9.67218 3.84894C11.806 5.76341 10.1109 8.29608 6.60107 8.45562L4.22793 8.57527L4.10827 5.88306L3.98862 3.19084H6.48141C8.21639 3.19084 9.17362 3.39027 9.67218 3.84894Z" fill="white"/>
<path d="M45.2091 2.61225C43.8132 3.58942 43.8132 19.1444 45.1892 20.1216C46.4855 21.019 74.0657 21.0589 75.8007 20.1615C78.0941 18.965 82.9799 13.1219 82.9999 11.5464C82.9999 10.0507 79.3704 5.12498 76.7579 3.07092C75.2423 1.89432 46.8245 1.45559 45.2091 2.61225ZM56.5364 6.58077L57.3939 7.51806L58.2714 6.58077C59.4081 5.36429 60.824 5.04521 62.4991 5.6036C64.4336 6.24175 64.6928 7.0195 64.9122 12.6034L65.0917 17.5491H63.2769H61.4621V13.401C61.4621 8.63483 61.3026 7.97673 60.146 7.97673C58.1318 7.97673 57.4737 9.39264 57.4737 13.6603V17.5889L55.7786 17.4693L54.0835 17.3496L54.2231 13.5207C54.3826 9.3727 53.9838 7.97673 52.6676 7.97673C50.8528 7.97673 50.2944 9.27298 50.2944 13.5606V17.5491H48.4996H46.7048V14.7372C46.7048 8.09639 53.0864 2.79173 56.5364 6.58077ZM50.0352 5.88279C50.1349 6.04233 49.417 6.85996 48.4597 7.69754L46.7048 9.2331V7.39841V5.58365H48.2803C49.1378 5.58365 49.9355 5.72325 50.0352 5.88279ZM75.2423 6.40129C76.6383 7.25881 78.0143 10.0308 77.755 11.4268C77.6154 12.0849 77.1368 12.1846 73.5472 12.2843L69.479 12.384L69.8778 13.4609C70.5957 15.3355 72.7296 15.7941 74.0258 14.3583C74.8634 13.421 77.416 13.2415 77.416 14.099C77.416 17.8881 69.5986 18.5861 67.405 14.9964C64.1344 9.63195 70.0374 3.17063 75.2423 6.40129Z" fill="white"/>
<path d="M71.0745 8.0765C68.7611 9.27304 69.2198 10.3699 72.0516 10.3699C74.9632 10.3699 75.382 9.83143 73.5672 8.39558C72.3508 7.43835 72.3308 7.43835 71.0745 8.0765Z" fill="white"/>
<path d="M17.7089 5.36433C16.4725 5.90277 14.9768 8.01666 15.4754 8.51522C16.0936 9.15337 18.4867 8.73458 19.1647 7.89701C20.102 6.74035 22.6148 6.68052 23.4324 7.7973C24.3099 8.99384 23.931 9.75164 22.3754 9.89124C16.8913 10.33 14.7974 11.7259 14.7974 14.9566C14.7974 18.2072 19.2246 19.9821 22.7544 18.1474C23.7714 17.6289 23.911 17.6289 24.1304 18.1872C24.2899 18.626 24.8284 18.7656 26.0648 18.6659L27.7599 18.5462L27.8795 13.6803C27.9992 7.83718 27.5405 6.26174 25.3867 5.36433C23.6518 4.64641 19.404 4.64641 17.7089 5.36433ZM23.8911 13.8199C24.0905 15.9138 20.5408 17.3896 19.2046 15.7742C17.8884 14.1988 19.7431 12.2644 22.3754 12.4638C23.6318 12.5436 23.7914 12.7031 23.8911 13.8199Z" fill="white"/>
<path d="M28.9562 5.18493C28.8366 5.38436 29.8137 8.47542 31.1299 12.0252C32.5857 15.874 33.4632 18.7856 33.3036 19.2443C32.6057 21.4778 37.8505 16.8113 38.9074 14.2587C40.3233 10.8884 42.2179 5.22482 41.9985 5.00545C41.5797 4.58666 38.8277 4.78609 38.4288 5.28464C38.2094 5.56384 37.5513 7.29882 36.9331 9.1734C35.4574 13.7601 35.4375 13.7601 33.9418 9.29305C33.2239 7.13928 32.4461 5.24476 32.1869 5.08522C31.5487 4.66643 29.2354 4.72626 28.9562 5.18493Z" fill="white"/>
<path d="M0.119654 15.8143L0.239308 18.5464H2.03412C4.04829 18.5464 5.12518 15.914 3.35031 15.2958C2.95146 15.1562 2.03412 14.5978 1.31619 14.0594L0 13.1021L0.119654 15.8143Z" fill="white"/>
<path d="M35.3978 19.4237C33.8622 20.4607 33.0446 20.7399 31.509 20.7399H29.5547V22.3353V23.9307H31.6686C34.0018 23.9307 35.4975 22.8139 36.9134 20.022C37.8906 18.0876 37.5715 17.9679 35.3978 19.4237Z" fill="white"/>
</svg>
