<svg width="62" height="25" viewBox="0 0 62 25" fill="none" xmlns="http://www.w3.org/2000/svg">
<path opacity="0.986" fill-rule="evenodd" clip-rule="evenodd" d="M11.007 0.923662C15.3012 0.700184 18.8285 2.21385 21.5889 5.46458C24.5713 9.65617 24.9227 14.0619 22.6431 18.6819C20.0512 22.9139 16.2536 24.9547 11.2503 24.804C6.12732 24.2107 2.62701 21.5213 0.749423 16.7358C-0.528762 12.5232 0.173944 8.68506 2.8577 5.22132C5.01334 2.73119 7.72977 1.29861 11.007 0.923662ZM10.8448 5.14023C11.7098 5.14023 12.5747 5.14023 13.4396 5.14023C13.4396 7.22151 13.4396 9.30271 13.4396 11.384C12.5747 11.384 11.7098 11.384 10.8448 11.384C10.8448 9.30271 10.8448 7.22151 10.8448 5.14023ZM16.7642 8.05939C17.7641 8.28368 18.7507 8.55394 19.7239 8.87027C19.778 10.5731 19.778 12.276 19.7239 13.9788C19.2432 17.5359 17.2836 19.8198 13.8451 20.8307C10.0068 21.4049 7.12818 20.0129 5.20924 16.6547C4.89235 15.928 4.67617 15.1712 4.56054 14.3842C4.50646 12.5462 4.50646 10.7083 4.56054 8.87027C5.49702 8.53967 6.45653 8.29641 7.43915 8.14048C7.42561 10.2759 7.43915 12.4113 7.4797 14.5464C7.88189 18.2004 9.89562 19.7275 13.5207 19.1279C15.1443 18.6529 16.1443 17.5852 16.521 15.9249C16.6328 15.5271 16.7003 15.1217 16.7237 14.7086C16.7642 12.4924 16.7778 10.2759 16.7642 8.05939Z" fill="white"/>
<path opacity="0.949" fill-rule="evenodd" clip-rule="evenodd" d="M53.4162 5.78901C54.4566 5.73014 55.3486 6.05449 56.0921 6.76206C56.9764 5.89288 58.0306 5.60908 59.2545 5.91064C60.1578 6.16526 60.739 6.74641 60.9979 7.65403C61.1124 9.05612 61.1529 10.4617 61.1195 11.8706C60.4978 11.8706 59.8762 11.8706 59.2545 11.8706C59.268 10.681 59.2545 9.49172 59.214 8.30273C59.0608 7.77112 58.7093 7.47377 58.1598 7.41077C57.5788 7.45723 57.2005 7.7545 57.0246 8.30273C56.984 9.49172 56.9705 10.681 56.984 11.8706C56.3894 11.8706 55.7947 11.8706 55.2001 11.8706C55.2137 10.708 55.2001 9.54573 55.1596 8.38382C54.8475 7.51829 54.2664 7.26148 53.4162 7.61348C53.2371 7.76536 53.0884 7.94108 52.9702 8.14056C52.9297 9.38363 52.9161 10.627 52.9297 11.8706C52.308 11.8706 51.6863 11.8706 51.0646 11.8706C51.0511 10.627 51.0646 9.38363 51.1052 8.14056C51.2949 6.7752 52.0652 5.99132 53.4162 5.78901Z" fill="white"/>
<path opacity="0.959" fill-rule="evenodd" clip-rule="evenodd" d="M29.738 5.95117C30.3326 5.95117 30.9273 5.95117 31.5219 5.95117C31.5084 7.08673 31.5219 8.22196 31.5625 9.35686C31.7099 10.0313 32.1288 10.3556 32.8193 10.3299C33.3975 10.3313 33.7894 10.061 33.9951 9.51904C34.0356 8.33004 34.0492 7.14073 34.0356 5.95117C34.6303 5.95117 35.2249 5.95117 35.8196 5.95117C35.8331 7.19482 35.8196 8.43814 35.779 9.68121C35.3835 11.2186 34.3834 11.9755 32.7788 11.9517C31.0887 11.9374 30.0886 11.0994 29.7785 9.43795C29.738 8.27604 29.7244 7.11373 29.738 5.95117Z" fill="white"/>
<path opacity="0.944" fill-rule="evenodd" clip-rule="evenodd" d="M36.9548 5.95117C38.8199 5.95117 40.6849 5.95117 42.5499 5.95117C42.5839 6.50127 42.5434 7.0418 42.4283 7.57293C41.4116 8.50868 40.371 9.41411 39.3064 10.2894C40.4413 10.3299 41.5765 10.3435 42.7121 10.3299C42.7121 10.8434 42.7121 11.3571 42.7121 11.8706C40.766 11.8706 38.8199 11.8706 36.8738 11.8706C36.847 11.3273 36.874 10.7868 36.9548 10.2488C37.9549 9.34332 38.955 8.43789 39.9551 7.53238C38.9554 7.49184 37.9553 7.4783 36.9548 7.49184C36.9548 6.97831 36.9548 6.4647 36.9548 5.95117Z" fill="white"/>
<path opacity="0.959" fill-rule="evenodd" clip-rule="evenodd" d="M43.8474 5.95117C44.442 5.95117 45.0367 5.95117 45.6313 5.95117C45.596 7.19919 45.6366 8.44259 45.7529 9.68121C45.996 10.1273 46.3745 10.3435 46.8882 10.3299C47.4413 10.351 47.8198 10.1077 48.0234 9.60012C48.1382 8.38786 48.1787 7.17154 48.145 5.95117C48.7396 5.95117 49.3343 5.95117 49.9289 5.95117C49.9425 7.19482 49.9289 8.43813 49.8884 9.68121C49.4698 11.2201 48.4562 11.9769 46.8476 11.9517C45.315 11.9447 44.3285 11.2149 43.8879 9.7623C43.8474 8.49222 43.8338 7.22182 43.8474 5.95117Z" fill="white"/>
<path opacity="0.966" fill-rule="evenodd" clip-rule="evenodd" d="M29.7378 12.6814C30.3324 12.6814 30.9271 12.6814 31.5217 12.6814C31.4948 13.6829 31.5218 14.683 31.6028 15.6816C32.0557 15.2527 32.5963 15.0229 33.2246 14.9924C35.2822 14.888 36.3634 15.861 36.4681 17.9116C36.3325 20.0472 35.1973 21.0202 33.0624 20.8307C32.463 20.7268 31.9629 20.443 31.5623 19.9793C31.5218 20.2754 31.5083 20.5727 31.5217 20.8713C30.9271 20.8713 30.3324 20.8713 29.7378 20.8713C29.7378 18.1413 29.7378 15.4114 29.7378 12.6814ZM32.6569 16.5736C33.7957 16.3715 34.4714 16.8311 34.6841 17.9521C34.4047 19.1138 33.6749 19.5327 32.4948 19.209C31.6748 18.8528 31.391 18.2447 31.6434 17.3845C31.88 16.9706 32.2179 16.7004 32.6569 16.5736Z" fill="white"/>
<path opacity="0.943" fill-rule="evenodd" clip-rule="evenodd" d="M53.2534 12.6814C53.848 12.6814 54.4427 12.6814 55.0373 12.6814C55.0238 14.3034 55.0373 15.9252 55.0779 17.5467C55.8236 16.6932 56.5668 15.8418 57.3078 14.9924C58.0121 14.9249 58.7149 14.9385 59.4161 15.0329C58.5945 15.9626 57.7836 16.8951 56.9834 17.8305C57.8624 18.8041 58.7273 19.7907 59.5783 20.7902C58.8771 20.8846 58.1743 20.8982 57.47 20.8307C56.6426 19.9765 55.8453 19.098 55.0779 18.1954C55.0373 19.0869 55.0238 19.9789 55.0373 20.8713C54.4427 20.8713 53.848 20.8713 53.2534 20.8713C53.2534 18.1413 53.2534 15.4114 53.2534 12.6814Z" fill="white"/>
<path opacity="0.957" fill-rule="evenodd" clip-rule="evenodd" d="M39.4686 14.7087C40.532 14.5517 41.4375 14.8489 42.185 15.6006C42.2254 15.3317 42.2389 15.0614 42.2256 14.7897C42.8202 14.7897 43.4149 14.7897 44.0095 14.7897C43.9959 16.1685 44.0095 17.547 44.05 18.9252C44.113 19.3683 44.3698 19.5305 44.8204 19.4118C44.8204 19.9253 44.8204 20.4389 44.8204 20.9524C44.2791 20.9659 43.7385 20.9524 43.1986 20.9119C42.7907 20.7606 42.4663 20.5039 42.2256 20.1415C41.4302 20.9787 40.4572 21.2895 39.3064 21.0741C38.0351 20.7216 37.2648 19.8973 36.9954 18.6009C36.7435 16.5861 37.5679 15.2887 39.4686 14.7087ZM40.1173 16.3304C41.7446 16.3458 42.3528 17.1296 41.9417 18.682C41.3074 19.4966 40.51 19.6994 39.5497 19.2901C38.5506 18.4705 38.4965 17.5921 39.3875 16.6548C39.6293 16.5198 39.8726 16.4117 40.1173 16.3304Z" fill="white"/>
<path opacity="0.943" fill-rule="evenodd" clip-rule="evenodd" d="M45.5498 14.9519C46.1444 14.9519 46.7391 14.9519 47.3337 14.9519C47.3203 15.2774 47.3338 15.6017 47.3743 15.9249C47.8849 15.2441 48.5741 14.9198 49.442 14.9519C50.7693 14.9184 51.5937 15.5401 51.9152 16.8169C51.9557 18.1681 51.9693 19.5196 51.9557 20.8713C51.3611 20.8713 50.7664 20.8713 50.1718 20.8713C50.1853 19.7627 50.1718 18.6546 50.1313 17.5467C49.919 16.8753 49.4595 16.5509 48.7528 16.5736C48.1245 16.5362 47.692 16.8064 47.4554 17.3845C47.3394 18.542 47.2989 19.7043 47.3337 20.8713C46.7391 20.8713 46.1444 20.8713 45.5498 20.8713C45.5498 18.8982 45.5498 16.925 45.5498 14.9519Z" fill="white"/>
</svg>
